<svg aria-hidden="true" style="position: absolute; width: 0; height: 0; overflow: hidden;" version="1.1" 
    xmlns="http://www.w3.org/2000/svg" 
    xmlns:xlink="http://www.w3.org/1999/xlink">
    <defs>
        <symbol id="icon-Document" viewBox="0 0 32 32">
            <title>Document</title>
            <path d="M18.475 3.6l5.925 5.971v18.829h-16.8v-24.8h10.875zM19.974 0h-15.974v32h24v-23.912l-8.026-8.088z"></path>
        </symbol>
        <symbol id="icon-Download" viewBox="0 0 32 32">
            <title>Download</title>
            <path d="M18.161 4.474v19.681l8.495-8.495 2.842 2.842-13.498 13.498-13.499-13.499 2.842-2.842 8.344 8.344v-19.529h-11.185v-4.474h26.845v4.474h-11.185z"></path>
        </symbol>
        <symbol id="icon-External-Link" viewBox="0 0 32 32">
            <title>External-Link</title>
            <path d="M28.407 6.421l-13.478 13.478-2.828-2.828 13.478-13.478h-10.645v-3.593h17.066v17.067h-3.593v-10.645zM24 28.4v3.6h-24v-24h12v3.6h-8.4v16.8h16.8v-8.4h3.6v8.4z"></path>
        </symbol>
        <symbol id="icon-Invoice" viewBox="0 0 30 32">
            <title>Invoice</title>
            <path d="M26.742 8.513c0.002-0.227-0.085-0.447-0.242-0.611l-3.061-3.196v-2.946c0.009-0.96-0.759-1.746-1.719-1.76h-16.997c-0.961 0.011-1.732 0.799-1.723 1.76v24.96c-0.009 0.961 0.762 1.749 1.723 1.76h1.473v2.363c-0.009 0.483 0.374 0.883 0.857 0.894h18.835c0.483-0.011 0.867-0.411 0.857-0.894v-22.33h-0.004zM4.731 26.72v-24.989l16.985 0.029v1.403h-14.663c-0.478 0.011-0.86 0.403-0.857 0.882v22.695l-1.465-0.020zM7.927 30.002v-25.116h12.595v4.476h4.488v20.644l-17.083-0.004z"></path>
            <path d="M18.926 19.508v-0.447h-4.923v0.447h2.232v5.928l-1.916-1.916-0.316 0.316 2.293 2.289c0.042 0.046 0.102 0.073 0.164 0.073s0.122-0.026 0.164-0.073l0.078-0.082 2.191-2.191-0.304-0.304-1.895 1.887v-5.928h2.232zM9.351 16.509c-0.017 0.006-0.036 0.006-0.053 0h-0.529c-0.017 0.006-0.036 0.006-0.053 0-0.007-0.017-0.007-0.036 0-0.053v-2.942c-0.006-0.017-0.006-0.036 0-0.053 0.017-0.006 0.036-0.006 0.053 0h0.525c0.017-0.006 0.036-0.006 0.053 0 0.006 0.017 0.006 0.036 0 0.053v2.937c0.009 0.018 0.010 0.038 0.004 0.057zM11.673 16.509c-0.022-0.016-0.041-0.036-0.057-0.057l-1.112-1.936c0.014 0.274 0.021 0.506 0.021 0.697v1.231c0.005 0.020-0.001 0.040-0.015 0.055s-0.035 0.020-0.055 0.015h-0.48c-0.017 0.006-0.036 0.006-0.053 0-0.007-0.017-0.007-0.036 0-0.053v-2.946c-0.006-0.017-0.006-0.036 0-0.053 0.017-0.006 0.036-0.006 0.053 0h0.595c0.019-0.007 0.039-0.007 0.057 0 0.017 0.016 0.032 0.034 0.045 0.053l1.112 1.928c-0.014-0.274-0.021-0.506-0.021-0.697v-1.231c-0.006-0.017-0.006-0.036 0-0.053 0.017-0.006 0.036-0.006 0.053 0h0.505c0.017-0.006 0.036-0.006 0.053 0 0.006 0.017 0.006 0.036 0 0.053v2.937c0.007 0.017 0.007 0.036 0 0.053-0.017 0.006-0.036 0.006-0.053 0h-0.591c-0.018 0.008-0.038 0.009-0.057 0.004zM14.733 13.456c0 0 0.025 0 0.049 0h0.554c0.045 0 0.070 0 0.070 0.049s0 0.049 0 0.119l-0.41 2.232c-0.025 0.141-0.065 0.278-0.119 0.41-0.040 0.094-0.111 0.17-0.201 0.217-0.129 0.056-0.27 0.082-0.41 0.074h-0.353c-0.141 0.008-0.281-0.017-0.41-0.074-0.090-0.047-0.161-0.124-0.201-0.217-0.054-0.132-0.094-0.27-0.119-0.41l-0.41-2.232c0-0.071 0-0.111 0-0.119 0-0.033 0.025-0.049 0.070-0.049h0.574c0.025 0 0.045 0 0.049 0 0.004 0.019 0.004 0.039 0 0.057l0.39 2.191c0.006 0.052 0.019 0.103 0.037 0.152 0.011 0.028 0.033 0.051 0.062 0.062 0.041 0.007 0.082 0.007 0.123 0h0.033c0.041 0.007 0.082 0.007 0.123 0 0.028-0.011 0.051-0.033 0.062-0.062 0.018-0.049 0.030-0.1 0.037-0.152l0.41-2.191c-0.007-0.018-0.009-0.038-0.008-0.057z"></path>
            <path d="M15.898 13.625c0.176-0.154 0.406-0.232 0.64-0.217h0.747c0.232-0.014 0.461 0.064 0.636 0.217 0.157 0.159 0.239 0.376 0.226 0.599v1.518c0.013 0.223-0.069 0.44-0.226 0.599-0.175 0.153-0.404 0.231-0.636 0.217h-0.747c-0.232 0.014-0.461-0.064-0.636-0.217-0.157-0.159-0.239-0.376-0.226-0.599v-1.518c-0.014-0.222 0.066-0.44 0.222-0.599zM17.408 14.105c-0.061-0.054-0.141-0.081-0.222-0.074h-0.554c-0.081-0.007-0.161 0.020-0.222 0.074-0.053 0.068-0.078 0.153-0.070 0.238v1.288c-0.008 0.085 0.017 0.17 0.070 0.238 0.061 0.054 0.141 0.081 0.222 0.074h0.55c0.081 0.007 0.161-0.020 0.222-0.074 0.052-0.068 0.077-0.153 0.070-0.238v-1.272c0.012-0.091-0.013-0.183-0.070-0.254h0.004z"></path>
            <path d="M19.271 16.509c-0.017 0.006-0.036 0.006-0.053 0h-0.525c-0.017 0.006-0.036 0.006-0.053 0-0.007-0.017-0.007-0.036 0-0.053v-2.942c-0.006-0.017-0.006-0.036 0-0.053 0.017-0.006 0.036-0.006 0.053 0h0.525c0.017-0.006 0.036-0.006 0.053 0 0.006 0.017 0.006 0.036 0 0.053v2.937c0.007 0.018 0.007 0.039 0 0.057zM21.601 16.537h-0.993c-0.232 0.014-0.461-0.064-0.636-0.217-0.157-0.159-0.239-0.376-0.226-0.599v-1.485c-0.013-0.223 0.069-0.44 0.226-0.599 0.175-0.153 0.404-0.231 0.636-0.217h1.132c0.017-0.006 0.036-0.006 0.053 0 0.006 0.017 0.006 0.036 0 0.053v0.48c0.006 0.017 0.006 0.036 0 0.053-0.017 0.006-0.036 0.006-0.053 0h-1.038c-0.081-0.007-0.161 0.020-0.222 0.074-0.053 0.068-0.078 0.153-0.070 0.238v1.264c-0.008 0.085 0.017 0.17 0.070 0.238 0.061 0.054 0.141 0.081 0.222 0.074 0.347 0 0.659 0 0.935 0h0.127c0.020-0.005 0.040 0.001 0.055 0.015s0.020 0.035 0.015 0.055v0.48c0.005 0.020-0.001 0.040-0.015 0.055s-0.035 0.020-0.055 0.015l-0.164 0.025zM24.333 15.918c0.006 0.017 0.006 0.036 0 0.053v0.48c0.005 0.020-0.001 0.040-0.015 0.055s-0.035 0.020-0.055 0.015h-1.374c-0.18 0.037-0.366-0.019-0.495-0.149s-0.186-0.316-0.149-0.495v-2.363c-0.006-0.017-0.006-0.036 0-0.053 0.017-0.006 0.036-0.006 0.053 0h1.916c0.017-0.006 0.036-0.006 0.053 0 0.006 0.017 0.006 0.036 0 0.053v0.48c0.005 0.020-0.001 0.040-0.015 0.055s-0.035 0.020-0.055 0.015h-1.288v0.583h1.231c0.020-0.005 0.040 0.001 0.055 0.015s0.020 0.035 0.015 0.055v0.464c0.006 0.017 0.006 0.036 0 0.053-0.017 0.006-0.036 0.006-0.053 0h-1.231v0.472c-0.003 0.044 0.008 0.087 0.033 0.123 0.029 0.028 0.070 0.042 0.111 0.037h1.231c0.018 0.012 0.030 0.032 0.033 0.053z"></path>
        </symbol>
        <symbol id="icon-Left-Link" viewBox="0 0 32 32">
            <title>Left-Link</title>
            <path d="M24 2.4l-11.2 13.6 11.2 13.6-2.666 2.4-13.334-16 13.334-16z"></path>
        </symbol>
        <symbol id="icon-Link" viewBox="0 0 32 32">
            <title>Link</title>
            <path d="M11.257 19.055v2.764h-8.255v-11.636h8.255v3.055h3.002v-3.2c0-0.733-0.3-1.436-0.835-1.954s-1.26-0.809-2.016-0.809h-8.555c-1.575 0-2.852 1.237-2.852 2.764v11.927c0 0.733 0.3 1.436 0.835 1.954s1.26 0.809 2.016 0.809h8.555c0.756 0 1.482-0.291 2.016-0.809s0.835-1.221 0.835-1.954v-2.909h-3.002zM20.562 19.053v2.764h8.255v-11.636h-8.105v3.055h-3.002v-3.2c0-1.526 1.277-2.764 2.852-2.764h8.555c1.575 0 2.852 1.237 2.852 2.764v11.927c0.001 0.759-0.32 1.485-0.888 2.007s-1.332 0.796-2.114 0.756h-8.555c-0.756 0-1.482-0.291-2.016-0.809s-0.835-1.221-0.835-1.954v-2.909h3.002z"></path>
            <path d="M24.014 17.455h-16.36c-0.829 0-1.501-0.651-1.501-1.455s0.672-1.455 1.501-1.455h16.36c0.829 0 1.501 0.651 1.501 1.455s-0.672 1.455-1.501 1.455z"></path>
        </symbol>
        <symbol id="icon-PDF" viewBox="0 0 32 32">
            <title>PDF</title>
            <path d="M10.651 15.026h-2.752c-0.041-0.004-0.082 0.007-0.114 0.032-0.025 0.033-0.036 0.073-0.032 0.114v6.085c-0.004 0.041 0.007 0.082 0.032 0.114 0.032 0.025 0.073 0.037 0.114 0.032h1.088c0.041 0.005 0.082-0.007 0.114-0.032 0.025-0.033 0.036-0.073 0.032-0.114v-1.797h1.518c0.494 0.028 0.979-0.141 1.349-0.471 0.337-0.332 0.516-0.792 0.494-1.265v-0.961c0.023-0.473-0.157-0.933-0.494-1.265-0.369-0.33-0.854-0.5-1.349-0.472zM11.109 17.531c0.016 0.175-0.035 0.35-0.142 0.489-0.125 0.111-0.29 0.165-0.457 0.151h-1.371v-1.856h1.371c0.167-0.015 0.332 0.040 0.457 0.151 0.107 0.14 0.157 0.314 0.142 0.489v0.576zM13.431 15.026c-0.041-0.004-0.082 0.007-0.114 0.032-0.025 0.033-0.036 0.073-0.032 0.114v6.085c-0.004 0.041 0.007 0.082 0.032 0.114 0.032 0.025 0.073 0.037 0.114 0.032h2.953c0.482 0.029 0.956-0.131 1.321-0.448 0.326-0.329 0.497-0.782 0.471-1.245v-2.992c0.026-0.463-0.145-0.915-0.471-1.245-0.365-0.317-0.839-0.477-1.321-0.448h-2.953zM16.8 16.955v2.523c0.016 0.175-0.035 0.35-0.142 0.49-0.125 0.111-0.291 0.165-0.457 0.151h-1.536v-3.805h1.527c0.167-0.014 0.332 0.040 0.457 0.151 0.11 0.138 0.164 0.313 0.151 0.489z"></path>
            <path d="M19.314 21.408h1.088c0.041 0.005 0.082-0.007 0.114-0.032 0.025-0.033 0.036-0.073 0.032-0.114v-2.277h2.491c0.041 0.005 0.082-0.007 0.114-0.032 0.025-0.033 0.036-0.073 0.032-0.114v-0.997c0.004-0.041-0.007-0.082-0.032-0.114-0.033-0.025-0.074-0.036-0.114-0.032h-2.496v-1.381h2.688c0.041 0.005 0.082-0.007 0.114-0.032 0.025-0.033 0.036-0.073 0.032-0.114v-0.997c0.004-0.041-0.007-0.082-0.032-0.114-0.033-0.025-0.074-0.036-0.114-0.032h-3.918c-0.041-0.004-0.082 0.007-0.114 0.032-0.025 0.033-0.036 0.073-0.032 0.114v6.085c-0.004 0.041 0.007 0.082 0.032 0.114 0.032 0.027 0.073 0.040 0.114 0.037z"></path>
            <path d="M10.651 15.026h-2.752c-0.041-0.004-0.082 0.007-0.114 0.032-0.025 0.033-0.036 0.073-0.032 0.114v6.085c-0.004 0.041 0.007 0.082 0.032 0.114 0.032 0.025 0.073 0.037 0.114 0.032h1.088c0.041 0.005 0.082-0.007 0.114-0.032 0.025-0.033 0.036-0.073 0.032-0.114v-1.797h1.518c0.494 0.028 0.979-0.141 1.349-0.471 0.337-0.332 0.516-0.792 0.494-1.265v-0.961c0.023-0.473-0.157-0.933-0.494-1.265-0.369-0.33-0.854-0.5-1.349-0.472zM11.109 17.531c0.016 0.175-0.035 0.35-0.142 0.489-0.125 0.111-0.29 0.165-0.457 0.151h-1.371v-1.856h1.371c0.167-0.015 0.332 0.040 0.457 0.151 0.107 0.14 0.157 0.314 0.142 0.489v0.576zM13.431 15.026c-0.041-0.004-0.082 0.007-0.114 0.032-0.025 0.033-0.036 0.073-0.032 0.114v6.085c-0.004 0.041 0.007 0.082 0.032 0.114 0.032 0.025 0.073 0.037 0.114 0.032h2.953c0.482 0.029 0.956-0.131 1.321-0.448 0.326-0.329 0.497-0.782 0.471-1.245v-2.992c0.026-0.463-0.145-0.915-0.471-1.245-0.365-0.317-0.839-0.477-1.321-0.448h-2.953zM16.8 16.955v2.523c0.016 0.175-0.035 0.35-0.142 0.49-0.125 0.111-0.291 0.165-0.457 0.151h-1.536v-3.805h1.527c0.167-0.014 0.332 0.040 0.457 0.151 0.11 0.138 0.164 0.313 0.151 0.489z"></path>
            <path d="M19.314 21.408h1.088c0.041 0.005 0.082-0.007 0.114-0.032 0.025-0.033 0.036-0.073 0.032-0.114v-2.277h2.491c0.041 0.005 0.082-0.007 0.114-0.032 0.025-0.033 0.036-0.073 0.032-0.114v-0.997c0.004-0.041-0.007-0.082-0.032-0.114-0.033-0.025-0.074-0.036-0.114-0.032h-2.496v-1.381h2.688c0.041 0.005 0.082-0.007 0.114-0.032 0.025-0.033 0.036-0.073 0.032-0.114v-0.997c0.004-0.041-0.007-0.082-0.032-0.114-0.033-0.025-0.074-0.036-0.114-0.032h-3.918c-0.041-0.004-0.082 0.007-0.114 0.032-0.025 0.033-0.036 0.073-0.032 0.114v6.085c-0.004 0.041 0.007 0.082 0.032 0.114 0.032 0.027 0.073 0.040 0.114 0.037z"></path>
            <path d="M18.216 0l8.413 8.414v23.586h-22.629v-32h14.216zM24.343 29.714v-19.728h-7.543v-7.701h-10.514v27.429h18.057z"></path>
        </symbol>
        <symbol id="icon-Right-Link" viewBox="0 0 32 32">
            <title>Right-Link</title>
            <path d="M8 2.4l11.2 13.6-11.2 13.6 2.666 2.4 13.334-16-13.334-16z"></path>
        </symbol>
        <symbol id="icon-Unlink" viewBox="0 0 32 32">
            <title>Unlink</title>
            <path d="M21.983 26.435l1.67 2.226zM24.014 31.684l-0.6-0.3-1.799-2.399c-0.248-0.331-0.181-0.801 0.15-1.049s0.801-0.181 1.049 0.15l1.799 2.399c0.248 0.331 0.181 0.801-0.15 1.049l-0.45 0.15zM16 26.435v2.365zM15.769 31.684c-0.414 0-0.75-0.336-0.75-0.75v-2.549c0-0.414 0.336-0.75 0.75-0.75s0.75 0.336 0.75 0.75v2.549c0 0.414-0.336 0.75-0.75 0.75zM9.878 26.435l-1.67 2.226zM7.374 31.684h-0.45c-0.331-0.248-0.398-0.718-0.15-1.049l1.799-2.399c0.248-0.331 0.718-0.398 1.049-0.15s0.398 0.718 0.15 1.049l-1.799 2.249-0.6 0.3zM21.983 4.452l1.67-2.226zM22.215 3.898h-0.45c-0.159-0.119-0.264-0.297-0.292-0.494s0.023-0.397 0.142-0.556l1.799-2.549c0.161-0.214 0.423-0.326 0.689-0.294s0.494 0.203 0.6 0.45c0.105 0.246 0.071 0.53-0.090 0.744l-1.799 2.399-0.6 0.3zM16 4.452v-2.365zM15.769 4.048c-0.414 0-0.75-0.336-0.75-0.75v-2.549c0-0.414 0.336-0.75 0.75-0.75s0.75 0.336 0.75 0.75v2.549c0 0.414-0.336 0.75-0.75 0.75zM9.878 4.452l-1.67-2.226zM9.173 4.184l-0.6-0.3-1.799-2.549c-0.257-0.205-0.35-0.555-0.229-0.861s0.427-0.498 0.755-0.472c0.328 0.026 0.601 0.262 0.673 0.583l1.799 2.399c0.248 0.331 0.181 0.801-0.15 1.049l-0.45 0.15z"></path>
            <path d="M11.257 19.055v2.764h-8.255v-11.636h8.255v3.055h3.002v-3.2c0-0.733-0.3-1.436-0.835-1.954s-1.26-0.809-2.016-0.809h-8.555c-1.575 0-2.852 1.237-2.852 2.764v11.927c0 0.733 0.3 1.436 0.835 1.954s1.26 0.809 2.016 0.809h8.555c0.756 0 1.482-0.291 2.016-0.809s0.835-1.221 0.835-1.954v-2.909h-3.002zM20.562 19.053v2.764h8.255v-11.636h-8.105v3.055h-3.002v-3.2c0-1.526 1.277-2.764 2.852-2.764h8.555c1.575 0 2.852 1.237 2.852 2.764v11.927c0.001 0.759-0.32 1.485-0.888 2.007s-1.332 0.796-2.114 0.756h-8.555c-0.756 0-1.482-0.291-2.016-0.809s-0.835-1.221-0.835-1.954v-2.909h3.002z"></path>
        </symbol>
        <symbol id="icon-Upload" viewBox="0 0 32 32">
            <title>Upload</title>
            <path d="M13.839 27.526v-19.681l-8.495 8.495-2.842-2.842 13.498-13.498 13.499 13.499-2.842 2.842-8.344-8.344v19.529h11.185v4.474h-26.845v-4.474h11.185z"></path>
        </symbol>
    </defs>
</svg>
