<svg aria-hidden="true" style="position: absolute; width: 0; height: 0; overflow: hidden;" version="1.1" 
    xmlns="http://www.w3.org/2000/svg" 
    xmlns:xlink="http://www.w3.org/1999/xlink">
    <defs>
        <symbol id="icon-Cargo-ISO-container" viewBox="0 0 32 32">
            <title>Cargo-ISO-container</title>
            <path d="M30.408 12.796h-0.318v5.095h0.318v-5.095zM29.453 12.796h-0.318v5.095h0.318v-5.095zM28.497 12.796h-0.318v5.095h0.318v-5.095zM27.542 12.796h-0.318v5.095h0.318v-5.095zM26.587 12.796h-0.318v5.095h0.318v-5.095zM25.632 12.796h-0.318v5.095h0.318v-5.095zM24.677 12.796h-0.318v5.095h0.318v-5.095zM23.721 12.796h-0.318v5.095h0.318v-5.095zM22.766 12.796h-0.318v5.095h0.318v-5.095zM21.811 12.796h-0.318v5.095h0.318v-5.095zM20.856 12.796h-0.318v5.095h0.318v-5.095zM19.901 12.796h-0.318v5.095h0.318v-5.095zM18.945 12.796h-0.318v5.095h0.318v-5.095zM17.99 12.796h-0.318v5.095h0.318v-5.095zM17.035 12.796h-0.318v5.095h0.318v-5.095zM16.080 12.796h-0.318v5.095h0.318v-5.095zM15.124 12.796h-0.318v5.095h0.318v-5.095zM14.169 12.796h-0.318v5.095h0.318v-5.095zM13.214 12.796h-0.318v5.095h0.318v-5.095zM12.259 12.796h-0.318v5.095h0.318v-5.095zM11.303 12.796h-0.318v5.095h0.318v-5.095zM10.348 12.796h-0.318v5.095h0.318v-5.095zM9.393 12.796h-0.318v5.095h0.318v-5.095zM8.438 12.796h-0.318v5.095h0.318v-5.095zM7.483 12.796h-0.318v5.095h0.318v-5.095zM6.527 12.796h-0.318v5.095h0.318v-5.095zM5.572 12.796h-0.318v5.095h0.318v-5.095zM4.617 12.796h-0.318v5.095h0.318v-5.095zM3.662 12.796h-0.318v5.095h0.318v-5.095zM2.706 12.796h-0.318v5.095h0.318v-5.095zM1.751 12.796h-0.318v5.095h0.318v-5.095zM31.688 12.159c0.088 0 0.159 0.072 0.159 0.159v6.050c0 0.088-0.072 0.159-0.159 0.159h-31.528c-0.088 0-0.159-0.072-0.159-0.159v-6.050c0-0.088 0.072-0.159 0.159-0.159h31.528zM10.456 20.793c0.366 0 0.663-0.297 0.663-0.663s-0.297-0.663-0.663-0.663-0.663 0.297-0.663 0.663c0 0.366 0.297 0.663 0.663 0.663zM10.456 18.856c0.703 0 1.274 0.57 1.274 1.274s-0.57 1.274-1.274 1.274-1.274-0.57-1.274-1.274c0-0.703 0.57-1.274 1.274-1.274zM13.499 20.793c0.366 0 0.663-0.297 0.663-0.663s-0.297-0.663-0.663-0.663-0.663 0.297-0.663 0.663c0 0.366 0.297 0.663 0.663 0.663zM13.499 18.856c0.703 0 1.274 0.57 1.274 1.274s-0.57 1.274-1.274 1.274-1.274-0.57-1.274-1.274c0-0.703 0.57-1.274 1.274-1.274zM7.414 20.793c0.366 0 0.663-0.297 0.663-0.663s-0.297-0.663-0.663-0.663-0.663 0.297-0.663 0.663c0 0.366 0.297 0.663 0.663 0.663zM7.414 18.856c0.703 0 1.274 0.57 1.274 1.274s-0.57 1.274-1.274 1.274-1.274-0.57-1.274-1.274c0-0.703 0.57-1.274 1.274-1.274z"></path>
        </symbol>
        <symbol id="icon-Cargo-Automotive" viewBox="0 0 32 32">
            <title>Cargo-Automotive</title>
            <path d="M6.687 24.461c0.734 0 1.329-0.595 1.329-1.329v-0c-0-0.734-0.595-1.329-1.33-1.329s-1.329 0.595-1.329 1.33c0 0.734 0.595 1.329 1.33 1.329zM6.687 20.579h0c1.41 0 2.553 1.143 2.553 2.554s-1.143 2.553-2.553 2.553-2.553-1.143-2.553-2.553c0-1.41 1.143-2.554 2.553-2.554zM23.33 24.482h0c0.734-0 1.329-0.595 1.329-1.329s-0.595-1.329-1.329-1.329-1.329 0.595-1.329 1.329c0 0.734 0.595 1.329 1.329 1.329zM23.33 20.6c1.41 0 2.553 1.143 2.553 2.553v0c-0 1.41-1.143 2.553-2.554 2.553s-2.553-1.143-2.553-2.554c0-1.41 1.144-2.553 2.554-2.553zM11.192 21.218h9.384c-0.737 0.798-0.956 1.945-0.564 2.958h-10.097v-1.16c0-0.025 0-0.049 0-0.073-0.020-1.814-1.508-3.268-3.321-3.248s-3.268 1.507-3.248 3.321v1.161h-2.349c-0.541 0-0.933-0.618-0.933-1.158v-5.574c0 0 6.484-1.249 7.226-1.425s0.931-0.585 0.99-0.975c0.058-0.354 0.088-0.712 0.090-1.071 0-0.363-0.475-0.382-0.475-0.382h-7.89c-0.022-1.095 0.045-3.843 2.368-4.17l7.818-1.021c0.004 0 0.007-0 0.011-0 0.533-0.015 0.977 0.404 0.992 0.937v11.881zM29.399 24.482c0.734 0 1.329-0.595 1.329-1.329s-0.595-1.329-1.329-1.329-1.329 0.595-1.329 1.329c0 0.734 0.595 1.329 1.329 1.329zM29.399 20.6c1.41 0 2.553 1.143 2.553 2.553v0c0 1.41-1.143 2.553-2.553 2.553s-2.553-1.143-2.553-2.554c0-1.41 1.143-2.553 2.554-2.553zM25.928 17.649c0.717-0.169 1.434 0.275 1.604 0.991s-0.275 1.434-0.991 1.604c-0.717 0.169-1.434-0.275-1.604-0.991s0.275-1.435 0.991-1.604zM17.724 17.701c0.736 0 1.333 0.597 1.333 1.333s-0.597 1.333-1.333 1.333c-0.736 0-1.333-0.597-1.333-1.333s0.597-1.333 1.333-1.333zM26.289 15.839c0.017 0 0.033 0.002 0.050 0.003-1.501-1.038-2.998-2.035-5.512-2.035-0.343 0-0.68 0.013-1.012 0.036 0.007 0.079 0.12 1.464 0.162 1.672 0.042 0.214-0.011 0.296 0.505 0.303 1.549 0.021 4.302 0.021 5.808 0.021zM15.612 15.839h3.729c0 0-0.007-1.914-0.005-1.925 0.005-0.032-0.019-0.032-0.062-0.023-1.952 0.195-4.275 1.949-3.661 1.949zM26.469 15.849c3.092 0.191 5.189 3.071 4.289 3.306-0.68 0.178-2.785 0.126-2.785 0.126h-0.026v-0.274c0.001-0.036 0.001-0.072 0-0.108-0.030-0.969-0.839-1.73-1.808-1.7s-1.73 0.839-1.7 1.808v0.111l-4.9 0.071v-0.118c0.001-0.036 0.001-0.072 0-0.108-0.030-0.969-0.839-1.73-1.808-1.7s-1.73 0.839-1.7 1.808v0.019c-0.32-0.010-1.528-0.041-1.965-0.041-1.771 0-1.053-2.449-0.459-2.974 0.143-0.127 0.714-0.269 0.983-0.418 1.722-1.473 3.459-2.432 5.515-2.432 3.080 0 4.988 1.124 6.364 2.623zM16.986 10.683c0.717 0.169 1.16 0.887 0.991 1.604s-0.887 1.16-1.604 0.991c-0.716-0.169-1.16-0.887-0.991-1.604s0.887-1.16 1.604-0.991zM25.191 10.735c0.736 0 1.333 0.597 1.333 1.333s-0.597 1.333-1.333 1.333c-0.736 0-1.333-0.597-1.333-1.333s0.597-1.333 1.333-1.333zM16.626 8.873c1.506 0 4.259 0 5.808-0.021 0.516-0.007 0.463-0.089 0.505-0.303 0.041-0.208 0.155-1.593 0.162-1.672-0.331-0.023-0.669-0.036-1.012-0.036-2.514 0-4.011 0.997-5.512 2.035 0.017-0.001 0.033-0.003 0.050-0.003zM27.302 8.873c0.614 0-1.709-1.753-3.661-1.949-0.043-0.009-0.067-0.009-0.062 0.023 0.002 0.012-0.005 1.925-0.005 1.925h3.729zM16.445 8.883c1.376-1.499 3.284-2.623 6.364-2.623 2.056 0 3.793 0.959 5.515 2.432 0.268 0.15 0.839 0.291 0.983 0.418 0.594 0.525 1.312 2.974-0.459 2.974-0.437 0-1.645 0.032-1.965 0.041v-0.019c0.030-0.969-0.731-1.778-1.7-1.808s-1.778 0.731-1.808 1.7c-0.001 0.036-0.001 0.072 0 0.108v0.118l-4.9-0.071v-0.111c0.030-0.969-0.731-1.778-1.7-1.808s-1.778 0.731-1.808 1.7c-0.001 0.036-0.001 0.072 0 0.108v0.274h-0.026c0 0-2.106 0.052-2.785-0.126-0.9-0.236 1.196-3.115 4.289-3.306z"></path>
        </symbol>
        <symbol id="icon-Cargo-Hazardous-Trailer" viewBox="0 0 32 32">
            <title>Cargo-Hazardous-Trailer</title>
            <path d="M31.688 12.159c0.088 0 0.159 0.072 0.159 0.159v6.050c0 0.088-0.072 0.159-0.159 0.159h-31.528c-0.088 0-0.159-0.072-0.159-0.159v-6.050c0-0.088 0.072-0.159 0.159-0.159h31.528zM10.456 20.793c0.366 0 0.663-0.297 0.663-0.663s-0.297-0.663-0.663-0.663-0.663 0.297-0.663 0.663c0 0.366 0.297 0.663 0.663 0.663zM10.456 18.856c0.703 0 1.274 0.57 1.274 1.274s-0.57 1.274-1.274 1.274-1.274-0.57-1.274-1.274c0-0.703 0.57-1.274 1.274-1.274zM13.499 20.793c0.366 0 0.663-0.297 0.663-0.663s-0.297-0.663-0.663-0.663-0.663 0.297-0.663 0.663c0 0.366 0.297 0.663 0.663 0.663zM13.499 18.856c0.703 0 1.274 0.57 1.274 1.274s-0.57 1.274-1.274 1.274-1.274-0.57-1.274-1.274c0-0.703 0.57-1.274 1.274-1.274zM7.414 20.793c0.366 0 0.663-0.297 0.663-0.663s-0.297-0.663-0.663-0.663-0.663 0.297-0.663 0.663c0 0.366 0.297 0.663 0.663 0.663zM7.414 18.856c0.703 0 1.274 0.57 1.274 1.274s-0.57 1.274-1.274 1.274-1.274-0.57-1.274-1.274c0-0.703 0.57-1.274 1.274-1.274z"></path>
            <path fill="currentColor" d="M16.256 15.851c0 0.024-0.004 0.040-0.014 0.050s-0.026 0.014-0.050 0.014h-0.386c-0.024 0-0.040-0.005-0.050-0.014s-0.014-0.026-0.014-0.050l-0.052-1.521c0-0.024 0.005-0.041 0.014-0.050s0.026-0.014 0.050-0.014h0.489c0.024 0 0.040 0.005 0.050 0.014s0.014 0.026 0.014 0.050l-0.052 1.521zM16.308 16.832c0 0.024-0.005 0.040-0.014 0.050s-0.026 0.014-0.050 0.014h-0.489c-0.024 0-0.040-0.004-0.050-0.014s-0.014-0.026-0.014-0.050v-0.449c0-0.024 0.005-0.041 0.014-0.050s0.026-0.014 0.050-0.014h0.489c0.024 0 0.040 0.005 0.050 0.014s0.014 0.026 0.014 0.050v0.449zM18.48 17.26l-0.044-0.075-2.293-3.976c-0.028-0.050-0.082-0.083-0.143-0.083-0.063 0-0.116 0.034-0.144 0.085l-0.027 0.047-2.307 4c-0.014 0.024-0.022 0.051-0.022 0.080 0 0.089 0.073 0.162 0.164 0.162h4.673c0.090 0 0.163-0.073 0.163-0.162 0-0.028-0.007-0.055-0.020-0.078z"></path>
        </symbol>
        <symbol id="icon-Cargo-Industrial" viewBox="0 0 32 32">
            <title>Cargo-Industrial</title>
            <path d="M7.931 21.206c0.484 0 0.877-0.393 0.877-0.877s-0.393-0.877-0.877-0.877c-0.484 0-0.877 0.392-0.877 0.877s0.393 0.877 0.877 0.877zM7.931 18.645c0.93 0 1.684 0.754 1.684 1.684s-0.754 1.684-1.684 1.684c-0.93 0-1.684-0.754-1.684-1.684s0.754-1.684 1.684-1.684zM11.956 21.206c0.484 0 0.877-0.393 0.877-0.877s-0.392-0.877-0.877-0.877c-0.484 0-0.877 0.392-0.877 0.877s0.392 0.877 0.877 0.877zM11.956 18.645c0.93 0 1.684 0.754 1.684 1.684s-0.754 1.684-1.684 1.684c-0.93 0-1.684-0.754-1.684-1.684s0.754-1.684 1.684-1.684zM3.909 21.206c0.484 0 0.877-0.393 0.877-0.877s-0.393-0.877-0.877-0.877c-0.484 0-0.877 0.392-0.877 0.877s0.392 0.877 0.877 0.877zM3.909 18.645c0.93 0 1.684 0.754 1.684 1.684s-0.754 1.684-1.684 1.684c-0.93 0-1.684-0.754-1.684-1.684s0.754-1.684 1.684-1.684zM5.383 14.563c0.42 0 0.76-0.34 0.76-0.76s-0.34-0.76-0.76-0.76c-0.42 0-0.76 0.34-0.76 0.76s0.34 0.76 0.76 0.76zM5.383 12.343c0.807 0 1.46 0.654 1.46 1.46s-0.654 1.46-1.46 1.46c-0.806 0-1.46-0.654-1.46-1.46s0.654-1.46 1.46-1.46zM13.383 14.563c0.42 0 0.76-0.34 0.76-0.76s-0.34-0.76-0.76-0.76c-0.42 0-0.76 0.34-0.76 0.76s0.34 0.76 0.76 0.76zM13.383 12.343c0.807 0 1.46 0.654 1.46 1.46s-0.654 1.46-1.46 1.46c-0.806 0-1.46-0.654-1.46-1.46s0.654-1.46 1.46-1.46zM21.383 14.563c0.42 0 0.76-0.34 0.76-0.76s-0.34-0.76-0.76-0.76c-0.42 0-0.76 0.34-0.76 0.76s0.34 0.76 0.76 0.76zM21.383 12.343c0.807 0 1.46 0.654 1.46 1.46s-0.654 1.46-1.46 1.46c-0.806 0-1.46-0.654-1.46-1.46s0.654-1.46 1.46-1.46zM5.39 11.719c-1.145 0-2.077 0.932-2.077 2.077s0.932 2.077 2.077 2.077 2.077-0.932 2.077-2.077c0-1.145-0.932-2.077-2.077-2.077zM13.39 11.719c-1.145 0-2.077 0.932-2.077 2.077s0.932 2.077 2.077 2.077 2.077-0.932 2.077-2.077c0-1.145-0.932-2.077-2.077-2.077zM21.39 11.719c-1.145 0-2.077 0.932-2.077 2.077s0.932 2.077 2.077 2.077 2.077-0.932 2.077-2.077c0-1.145-0.932-2.077-2.077-2.077zM22.13 21.789v-3.789h-21.919v-0.421h4.913l0.016-0.42c-1.752-0.129-3.125-1.606-3.125-3.362 0-1.861 1.514-3.375 3.375-3.375s3.375 1.514 3.375 3.375c0 1.756-1.372 3.233-3.125 3.362l0.016 0.42h7.468l0.016-0.42c-1.752-0.129-3.125-1.606-3.125-3.362 0-1.861 1.514-3.375 3.375-3.375s3.375 1.514 3.375 3.375c0 1.756-1.372 3.233-3.125 3.362l0.016 0.42h7.468l0.016-0.42c-1.752-0.129-3.125-1.606-3.125-3.362 0-1.861 1.514-3.375 3.375-3.375s3.375 1.514 3.375 3.375c0 1.756-1.372 3.233-3.125 3.362l0.016 0.42h3.88l2.020-2.526h4.031v0.421h-3.711l-1.949 2.526h-3.376v3.789h-0.421z"></path>
            <path d="M5.39 15.663c-1.031 0-1.867-0.836-1.867-1.867s0.836-1.867 1.867-1.867c1.031 0 1.867 0.836 1.867 1.867s-0.836 1.867-1.867 1.867zM13.39 15.663c-1.031 0-1.867-0.836-1.867-1.867s0.836-1.867 1.867-1.867c1.031 0 1.867 0.836 1.867 1.867s-0.836 1.867-1.867 1.867zM21.39 15.663c-1.031 0-1.867-0.836-1.867-1.867s0.836-1.867 1.867-1.867c1.031 0 1.867 0.836 1.867 1.867s-0.836 1.867-1.867 1.867zM21.39 10.211c-1.98 0-3.586 1.605-3.586 3.585 0 1.891 1.464 3.436 3.32 3.572h-7.468c1.856-0.137 3.32-1.682 3.32-3.572 0-1.98-1.605-3.585-3.586-3.585s-3.586 1.605-3.586 3.585c0 1.891 1.464 3.436 3.32 3.572h-7.468c1.856-0.137 3.32-1.682 3.32-3.572 0-1.98-1.605-3.585-3.586-3.585s-3.586 1.605-3.586 3.585c0 1.891 1.464 3.436 3.32 3.572h-5.124v0.632c0 0.116 0.095 0.211 0.211 0.211h21.709v3.789h0.842v-3.789h3.269l1.949-2.526h3.608c0.116 0 0.211-0.095 0.211-0.211v-0.632h-4.343l-2.020 2.526h-3.779c1.856-0.137 3.32-1.682 3.32-3.572 0-1.98-1.605-3.585-3.586-3.585zM5.39 16.084c1.261 0 2.288-1.026 2.288-2.288s-1.026-2.288-2.288-2.288c-1.261 0-2.288 1.026-2.288 2.288s1.026 2.288 2.288 2.288zM5.39 10.632c1.745 0 3.165 1.42 3.165 3.164 0 1.647-1.287 3.032-2.93 3.152l0.031 0.841h-0.532l0.031-0.841c-1.643-0.121-2.93-1.505-2.93-3.152 0-1.745 1.42-3.164 3.165-3.164zM13.39 16.084c1.261 0 2.288-1.026 2.288-2.288s-1.026-2.288-2.288-2.288c-1.261 0-2.288 1.026-2.288 2.288s1.026 2.288 2.288 2.288zM13.39 10.632c1.745 0 3.165 1.42 3.165 3.164 0 1.647-1.287 3.032-2.93 3.152l0.031 0.841h-0.532l0.031-0.841c-1.643-0.121-2.93-1.505-2.93-3.152 0-1.745 1.42-3.164 3.165-3.164zM21.39 16.084c1.261 0 2.288-1.026 2.288-2.288s-1.026-2.288-2.288-2.288c-1.261 0-2.288 1.026-2.288 2.288s1.026 2.288 2.288 2.288zM21.39 10.632c1.745 0 3.165 1.42 3.165 3.164 0 1.647-1.287 3.032-2.93 3.152l0.031 0.841h3.981l0.126-0.158 1.894-2.368h0.115l-1.948 2.526h-4.7l0.031-0.841c-1.643-0.121-2.93-1.505-2.93-3.152 0-1.745 1.42-3.164 3.165-3.164z"></path>
        </symbol>
        <symbol id="icon-Cargo-Locked-Container" viewBox="0 0 32 32">
            <title>Cargo-Locked-Container</title>
            <path d="M18.627 13.991c0.204 0.407 0.318 0.866 0.318 1.352s-0.115 0.945-0.318 1.352v1.195h0.318v-5.095h-0.318v1.195zM17.672 12.877c0.112 0.080 0.218 0.167 0.318 0.261v-0.341h-0.318v0.081zM17.672 17.81v0.081h0.318v-0.341c-0.1 0.094-0.206 0.181-0.318 0.261zM13.851 13.137c0.1-0.094 0.206-0.181 0.318-0.261v-0.081h-0.318v0.341zM13.851 17.549v0.341h0.318v-0.081c-0.112-0.080-0.218-0.167-0.318-0.261zM13.214 16.696c-0.204-0.407-0.318-0.866-0.318-1.352s0.115-0.945 0.318-1.352v-1.195h-0.318v5.095h0.318v-1.195zM30.408 12.796h-0.318v5.095h0.318v-5.095zM29.453 12.796h-0.318v5.095h0.318v-5.095zM28.497 12.796h-0.318v5.095h0.318v-5.095zM27.542 12.796h-0.318v5.095h0.318v-5.095zM26.587 12.796h-0.318v5.095h0.318v-5.095zM25.632 12.796h-0.318v5.095h0.318v-5.095zM24.677 12.796h-0.318v5.095h0.318v-5.095zM23.721 12.796h-0.318v5.095h0.318v-5.095zM22.766 12.796h-0.318v5.095h0.318v-5.095zM21.811 12.796h-0.318v5.095h0.318v-5.095zM20.856 12.796h-0.318v5.095h0.318v-5.095zM19.901 12.796h-0.318v5.095h0.318v-5.095zM12.259 12.796h-0.318v5.095h0.318v-5.095zM11.303 12.796h-0.318v5.095h0.318v-5.095zM10.348 12.796h-0.318v5.095h0.318v-5.095zM9.393 12.796h-0.318v5.095h0.318v-5.095zM8.438 12.796h-0.318v5.095h0.318v-5.095zM7.483 12.796h-0.318v5.095h0.318v-5.095zM6.527 12.796h-0.318v5.095h0.318v-5.095zM5.572 12.796h-0.318v5.095h0.318v-5.095zM4.617 12.796h-0.318v5.095h0.318v-5.095zM3.662 12.796h-0.318v5.095h0.318v-5.095zM2.706 12.796h-0.318v5.095h0.318v-5.095zM1.751 12.796h-0.318v5.095h0.318v-5.095zM10.456 20.793c0.366 0 0.663-0.297 0.663-0.663s-0.297-0.663-0.663-0.663-0.663 0.297-0.663 0.663c0 0.366 0.297 0.663 0.663 0.663zM10.456 18.856c0.703 0 1.274 0.57 1.274 1.274s-0.57 1.274-1.274 1.274-1.274-0.57-1.274-1.274c0-0.703 0.57-1.274 1.274-1.274zM13.499 20.793c0.366 0 0.663-0.297 0.663-0.663s-0.297-0.663-0.663-0.663-0.663 0.297-0.663 0.663c0 0.366 0.297 0.663 0.663 0.663zM13.499 18.856c0.703 0 1.274 0.57 1.274 1.274s-0.57 1.274-1.274 1.274-1.274-0.57-1.274-1.274c0-0.703 0.57-1.274 1.274-1.274zM7.414 20.793c0.366 0 0.663-0.297 0.663-0.663s-0.297-0.663-0.663-0.663-0.663 0.297-0.663 0.663c0 0.366 0.297 0.663 0.663 0.663zM7.414 18.856c0.703 0 1.274 0.57 1.274 1.274s-0.57 1.274-1.274 1.274-1.274-0.57-1.274-1.274c0-0.703 0.57-1.274 1.274-1.274zM31.688 12.159c0.088 0 0.159 0.072 0.159 0.159v6.050c0 0.088-0.072 0.159-0.159 0.159h-31.528c-0.088 0-0.159-0.072-0.159-0.159v-6.050c0-0.088 0.072-0.159 0.159-0.159h31.528z"></path>
            <path fill="currentColor" d="M16.179 15.408c0 0.017-0.003 0.028-0.010 0.035s-0.018 0.010-0.035 0.010h-0.27c-0.017 0-0.028-0.004-0.035-0.010s-0.010-0.018-0.010-0.035l-0.036-1.065c0-0.017 0.003-0.028 0.010-0.035s0.018-0.010 0.035-0.010h0.342c0.017 0 0.028 0.003 0.035 0.010s0.010 0.018 0.010 0.035l-0.036 1.065zM16.216 16.095c0 0.017-0.003 0.028-0.010 0.035s-0.018 0.010-0.035 0.010h-0.342c-0.017 0-0.028-0.003-0.035-0.010s-0.010-0.018-0.010-0.035v-0.314c0-0.017 0.003-0.028 0.010-0.035s0.018-0.010 0.035-0.010h0.342c0.017 0 0.028 0.003 0.035 0.010s0.010 0.018 0.010 0.035v0.314zM17.705 16.342l-1.605-2.783c-0.020-0.035-0.057-0.058-0.1-0.058s-0.081 0.024-0.101 0.059l-0.019 0.033-1.615 2.8c-0.010 0.017-0.015 0.036-0.015 0.056 0 0.063 0.051 0.114 0.115 0.114h3.271c0.063 0 0.114-0.051 0.114-0.114 0-0.020-0.005-0.038-0.014-0.055l-0.031-0.053z"></path>
        </symbol>
        <symbol id="icon-Cargo-Mobile-Machine" viewBox="0 0 32 32">
            <title>Cargo-Mobile-Machine</title>
            <path d="M29.516 24.057c0.886 0 1.604-0.718 1.604-1.604s-0.718-1.604-1.604-1.604c-0.886 0-1.604 0.718-1.604 1.604s0.718 1.604 1.604 1.604zM15.382 24.057c0.886 0 1.604-0.718 1.604-1.604s-0.718-1.604-1.604-1.604c-0.886 0-1.604 0.718-1.604 1.604s0.718 1.604 1.604 1.604zM29.668 20.112c1.276 0 2.31 1.035 2.31 2.31s-1.034 2.311-2.31 2.311h-14.406c-1.276 0-2.31-1.034-2.31-2.311s1.034-2.31 2.31-2.31h14.406zM19.658 12.003v5.701h4.766c0.133-0.099 0.259-0.206 0.374-0.325l0.22-1.836c0.030-0.391 0.285-0.745 0.627-0.973v-5.561h-2.994c-1.651 0-2.994 1.343-2.994 2.994zM15.882 18.34l0.853-1.923c0 0-3.807-4.528-4.219-5.042s-1.441-0.926-2.881-0.72l-6.771 0.941 3.118 6.52-0.514 4.116-1.132 0.72c0 0-1.749-2.573-1.852-2.778s-0.103-1.029 0.103-1.235l1.441-1.338c0 0-3.91-6.997-4.013-7.409s0.412-0.412 0.617-0.309c0.166 0.083 1.333 0.767 1.781 1.029l7.481-2.059c0 0 0.72-0.206 1.749-0.206s2.058 0.926 2.881 2.264l4.126 5.72v-4.629c0-2.207 1.796-4.003 4.003-4.003h3.293c0.392 0 0.71 0.319 0.71 0.71v5.598h1.451c0.679 0 1.235 0.556 1.235 1.235l0.051 2.83c0 0.301-0.090 0.528-0.248 0.686-0.151 0.178-0.376 0.292-0.627 0.292h-11.834c-0.453 0-0.823-0.371-0.823-0.823 0-0.064 0.008-0.127 0.021-0.187z"></path>
        </symbol>
        <symbol id="icon-Cargo-Reefer-Container" viewBox="0 0 32 32">
            <title>Cargo-Reefer-Container</title>
            <path d="M18.627 13.991c0.204 0.407 0.318 0.866 0.318 1.352s-0.115 0.945-0.318 1.352v1.195h0.318v-5.095h-0.318v1.195zM17.672 12.877c0.112 0.080 0.218 0.167 0.318 0.261v-0.341h-0.318v0.081zM17.672 17.81v0.081h0.318v-0.341c-0.1 0.094-0.206 0.181-0.318 0.261zM13.851 13.137c0.1-0.094 0.206-0.181 0.318-0.261v-0.081h-0.318v0.341zM13.851 17.549v0.341h0.318v-0.081c-0.112-0.080-0.218-0.167-0.318-0.261zM13.214 16.696c-0.204-0.407-0.318-0.866-0.318-1.352s0.115-0.945 0.318-1.352v-1.195h-0.318v5.095h0.318v-1.195zM30.408 12.796h-0.318v5.095h0.318v-5.095zM29.453 12.796h-0.318v5.095h0.318v-5.095zM28.497 12.796h-0.318v5.095h0.318v-5.095zM27.542 12.796h-0.318v5.095h0.318v-5.095zM26.587 12.796h-0.318v5.095h0.318v-5.095zM25.632 12.796h-0.318v5.095h0.318v-5.095zM24.677 12.796h-0.318v5.095h0.318v-5.095zM23.721 12.796h-0.318v5.095h0.318v-5.095zM22.766 12.796h-0.318v5.095h0.318v-5.095zM21.811 12.796h-0.318v5.095h0.318v-5.095zM20.856 12.796h-0.318v5.095h0.318v-5.095zM19.901 12.796h-0.318v5.095h0.318v-5.095zM12.259 12.796h-0.318v5.095h0.318v-5.095zM11.303 12.796h-0.318v5.095h0.318v-5.095zM10.348 12.796h-0.318v5.095h0.318v-5.095zM9.393 12.796h-0.318v5.095h0.318v-5.095zM8.438 12.796h-0.318v5.095h0.318v-5.095zM7.483 12.796h-0.318v5.095h0.318v-5.095zM6.527 12.796h-0.318v5.095h0.318v-5.095zM5.572 12.796h-0.318v5.095h0.318v-5.095zM4.617 12.796h-0.318v5.095h0.318v-5.095zM3.662 12.796h-0.318v5.095h0.318v-5.095zM2.706 12.796h-0.318v5.095h0.318v-5.095zM1.751 12.796h-0.318v5.095h0.318v-5.095zM10.456 20.793c0.366 0 0.663-0.297 0.663-0.663s-0.297-0.663-0.663-0.663-0.663 0.297-0.663 0.663c0 0.366 0.297 0.663 0.663 0.663zM10.456 18.856c0.703 0 1.274 0.57 1.274 1.274s-0.57 1.274-1.274 1.274-1.274-0.57-1.274-1.274c0-0.703 0.57-1.274 1.274-1.274zM13.499 20.793c0.366 0 0.663-0.297 0.663-0.663s-0.297-0.663-0.663-0.663-0.663 0.297-0.663 0.663c0 0.366 0.297 0.663 0.663 0.663zM13.499 18.856c0.703 0 1.274 0.57 1.274 1.274s-0.57 1.274-1.274 1.274-1.274-0.57-1.274-1.274c0-0.703 0.57-1.274 1.274-1.274zM7.414 20.793c0.366 0 0.663-0.297 0.663-0.663s-0.297-0.663-0.663-0.663-0.663 0.297-0.663 0.663c0 0.366 0.297 0.663 0.663 0.663zM7.414 18.856c0.703 0 1.274 0.57 1.274 1.274s-0.57 1.274-1.274 1.274-1.274-0.57-1.274-1.274c0-0.703 0.57-1.274 1.274-1.274zM31.688 12.159c0.088 0 0.159 0.072 0.159 0.159v6.050c0 0.088-0.072 0.159-0.159 0.159h-31.528c-0.088 0-0.159-0.072-0.159-0.159v-6.050c0-0.088 0.072-0.159 0.159-0.159h31.528z"></path>
            <path fill="currentColor" d="M17.702 15.117l0.101-0.175c0.063-0.109 0.026-0.249-0.084-0.312s-0.249-0.026-0.313 0.084l-0.233 0.404h-0.854l0.427-0.74h0.466c0.126 0 0.229-0.103 0.229-0.229s-0.102-0.229-0.229-0.229h-0.202l0.092-0.159c0.063-0.11 0.026-0.249-0.084-0.313s-0.249-0.026-0.312 0.084l-0.092 0.159-0.101-0.175c-0.063-0.109-0.203-0.147-0.313-0.084s-0.147 0.203-0.084 0.313l0.233 0.404-0.427 0.74-0.427-0.74 0.233-0.404c0.063-0.11 0.026-0.249-0.084-0.313s-0.249-0.026-0.312 0.084l-0.101 0.175-0.092-0.159c-0.063-0.109-0.203-0.147-0.312-0.084s-0.147 0.203-0.084 0.313l0.092 0.159h-0.202c-0.126 0-0.229 0.102-0.229 0.229s0.102 0.229 0.229 0.229h0.466l0.427 0.74h-0.854l-0.233-0.404c-0.063-0.109-0.203-0.147-0.313-0.084s-0.147 0.203-0.084 0.312l0.101 0.175h-0.183c-0.126 0-0.229 0.103-0.229 0.229s0.102 0.229 0.229 0.229h0.183l-0.101 0.175c-0.063 0.11-0.026 0.249 0.084 0.313 0.036 0.021 0.075 0.031 0.114 0.031 0.079 0 0.156-0.041 0.198-0.114l0.233-0.404h0.854l-0.427 0.74h-0.466c-0.126 0-0.229 0.102-0.229 0.229s0.102 0.229 0.229 0.229h0.202l-0.092 0.159c-0.063 0.109-0.026 0.249 0.084 0.312 0.036 0.021 0.075 0.031 0.114 0.031 0.079 0 0.156-0.041 0.198-0.114l0.092-0.159 0.101 0.175c0.042 0.073 0.119 0.114 0.198 0.114 0.039 0 0.078-0.010 0.114-0.031 0.109-0.063 0.147-0.203 0.084-0.312l-0.233-0.404 0.427-0.74 0.427 0.74-0.233 0.404c-0.063 0.109-0.026 0.249 0.084 0.312 0.036 0.021 0.075 0.031 0.114 0.031 0.079 0 0.156-0.041 0.198-0.114l0.101-0.175 0.092 0.159c0.042 0.073 0.119 0.114 0.198 0.114 0.039 0 0.078-0.010 0.114-0.031 0.11-0.063 0.147-0.203 0.084-0.312l-0.092-0.159h0.202c0.126 0 0.229-0.102 0.229-0.229s-0.102-0.229-0.229-0.229h-0.466l-0.427-0.74h0.854l0.233 0.404c0.043 0.073 0.119 0.114 0.198 0.114 0.039 0 0.078-0.010 0.114-0.031 0.109-0.063 0.147-0.203 0.084-0.313l-0.101-0.175h0.183c0.126 0 0.229-0.103 0.229-0.229s-0.102-0.229-0.229-0.229h-0.183z"></path>
        </symbol>
        <symbol id="icon-Cargo-Reefer-Trailer" viewBox="0 0 32 32">
            <title>Cargo-Reefer-Trailer</title>
            <path d="M31.688 12.159c0.088 0 0.159 0.072 0.159 0.159v6.050c0 0.088-0.072 0.159-0.159 0.159h-31.528c-0.088 0-0.159-0.072-0.159-0.159v-6.050c0-0.088 0.072-0.159 0.159-0.159h31.528zM10.456 20.793c0.366 0 0.663-0.297 0.663-0.663s-0.297-0.663-0.663-0.663-0.663 0.297-0.663 0.663c0 0.366 0.297 0.663 0.663 0.663zM10.456 18.856c0.703 0 1.274 0.57 1.274 1.274s-0.57 1.274-1.274 1.274-1.274-0.57-1.274-1.274c0-0.703 0.57-1.274 1.274-1.274zM13.499 20.793c0.366 0 0.663-0.297 0.663-0.663s-0.297-0.663-0.663-0.663-0.663 0.297-0.663 0.663c0 0.366 0.297 0.663 0.663 0.663zM13.499 18.856c0.703 0 1.274 0.57 1.274 1.274s-0.57 1.274-1.274 1.274-1.274-0.57-1.274-1.274c0-0.703 0.57-1.274 1.274-1.274zM7.414 20.793c0.366 0 0.663-0.297 0.663-0.663s-0.297-0.663-0.663-0.663-0.663 0.297-0.663 0.663c0 0.366 0.297 0.663 0.663 0.663zM7.414 18.856c0.703 0 1.274 0.57 1.274 1.274s-0.57 1.274-1.274 1.274-1.274-0.57-1.274-1.274c0-0.703 0.57-1.274 1.274-1.274z"></path>
            <path fill="currentColor" d="M18.333 15.062h-0.225l0.124-0.215c0.078-0.134 0.032-0.306-0.103-0.384s-0.306-0.032-0.384 0.103l-0.286 0.496h-1.049l0.525-0.909h0.573c0.155 0 0.281-0.126 0.281-0.281s-0.126-0.281-0.281-0.281h-0.248l0.113-0.195c0.078-0.135 0.032-0.306-0.103-0.384s-0.306-0.032-0.384 0.103l-0.113 0.195-0.124-0.215c-0.078-0.134-0.249-0.181-0.384-0.103s-0.18 0.249-0.103 0.384l0.286 0.496-0.525 0.909-0.525-0.909 0.286-0.496c0.078-0.135 0.032-0.306-0.103-0.384s-0.306-0.032-0.384 0.103l-0.124 0.215-0.113-0.195c-0.078-0.134-0.249-0.181-0.384-0.103s-0.18 0.249-0.103 0.384l0.113 0.195h-0.248c-0.155 0-0.281 0.126-0.281 0.281s0.126 0.281 0.281 0.281h0.573l0.525 0.909h-1.049l-0.286-0.496c-0.078-0.134-0.249-0.181-0.384-0.103s-0.18 0.249-0.103 0.384l0.124 0.215h-0.225c-0.155 0-0.281 0.126-0.281 0.281s0.126 0.281 0.281 0.281h0.225l-0.124 0.215c-0.078 0.135-0.032 0.306 0.103 0.384 0.044 0.025 0.092 0.038 0.14 0.038 0.097 0 0.192-0.050 0.244-0.14l0.286-0.496h1.049l-0.525 0.909h-0.573c-0.155 0-0.281 0.126-0.281 0.281s0.126 0.281 0.281 0.281h0.248l-0.113 0.195c-0.078 0.134-0.032 0.306 0.103 0.384 0.044 0.025 0.092 0.038 0.14 0.038 0.097 0 0.192-0.050 0.243-0.14l0.113-0.195 0.124 0.215c0.052 0.090 0.146 0.14 0.243 0.14 0.048 0 0.096-0.012 0.14-0.038 0.134-0.078 0.18-0.249 0.103-0.384l-0.286-0.496 0.525-0.909 0.525 0.909-0.286 0.496c-0.077 0.134-0.032 0.306 0.103 0.384 0.044 0.025 0.093 0.038 0.14 0.038 0.097 0 0.191-0.050 0.244-0.14l0.124-0.215 0.113 0.195c0.052 0.090 0.146 0.14 0.244 0.14 0.047 0 0.096-0.012 0.14-0.038 0.135-0.078 0.181-0.249 0.103-0.384l-0.113-0.195h0.248c0.155 0 0.281-0.126 0.281-0.281s-0.126-0.281-0.281-0.281h-0.573l-0.525-0.909h1.049l0.286 0.496c0.052 0.090 0.147 0.14 0.244 0.14 0.048 0 0.096-0.012 0.14-0.038 0.134-0.078 0.18-0.249 0.103-0.384l-0.124-0.215h0.225c0.155 0 0.281-0.126 0.281-0.281s-0.126-0.281-0.281-0.281z"></path>
        </symbol>
        <symbol id="icon-Cargo-Self-Drive" viewBox="0 0 32 32">
            <title>Cargo-Self-Drive</title>
            <path d="M14.036 22.062h11.473c-0.572 0.625-0.924 1.454-0.924 2.366 0 0.441 0.085 0.862 0.234 1.251l-12.345-0v-1.417c0-2.244-1.773-4.062-4.016-4.062s-4.016 1.818-4.016 4.062v1.417h-2.875c-0.661 0-1.141-0.755-1.141-1.416v-6.814c0 0 7.929-1.527 8.835-1.741s1.138-0.716 1.21-1.193 0.11-0.865 0.11-1.309c0-0.445-0.579-0.467-0.579-0.467h-9.648c-0.027-1.339 0.056-4.699 2.895-5.099l9.559-1.248c0.661 0 1.227 0.484 1.227 1.145v14.526zM8.528 26.028c0.898 0 1.625-0.728 1.625-1.625s-0.728-1.625-1.625-1.625c-0.898 0-1.625 0.727-1.625 1.625s0.728 1.625 1.625 1.625zM8.528 21.281c1.724 0 3.122 1.398 3.122 3.122s-1.398 3.122-3.122 3.122c-1.724 0-3.122-1.398-3.122-3.122s1.398-3.122 3.122-3.122zM28.878 26.054c0.898 0 1.625-0.727 1.625-1.625s-0.727-1.625-1.625-1.625c-0.898 0-1.625 0.727-1.625 1.625s0.727 1.625 1.625 1.625zM28.878 21.306c1.724 0 3.122 1.398 3.122 3.122s-1.398 3.122-3.122 3.122c-1.724 0-3.122-1.397-3.122-3.122s1.397-3.122 3.122-3.122z"></path>
        </symbol>
        <symbol id="icon-Cargo-Trailer" viewBox="0 0 32 32">
            <title>Cargo-Trailer</title>
            <path d="M31.688 12.159c0.088 0 0.159 0.072 0.159 0.159v6.050c0 0.088-0.072 0.159-0.159 0.159h-31.528c-0.088 0-0.159-0.072-0.159-0.159v-6.050c0-0.088 0.072-0.159 0.159-0.159h31.528zM10.456 20.793c0.366 0 0.663-0.297 0.663-0.663s-0.297-0.663-0.663-0.663-0.663 0.297-0.663 0.663c0 0.366 0.297 0.663 0.663 0.663zM10.456 18.856c0.703 0 1.274 0.57 1.274 1.274s-0.57 1.274-1.274 1.274-1.274-0.57-1.274-1.274c0-0.703 0.57-1.274 1.274-1.274zM13.499 20.793c0.366 0 0.663-0.297 0.663-0.663s-0.297-0.663-0.663-0.663-0.663 0.297-0.663 0.663c0 0.366 0.297 0.663 0.663 0.663zM13.499 18.856c0.703 0 1.274 0.57 1.274 1.274s-0.57 1.274-1.274 1.274-1.274-0.57-1.274-1.274c0-0.703 0.57-1.274 1.274-1.274zM7.414 20.793c0.366 0 0.663-0.297 0.663-0.663s-0.297-0.663-0.663-0.663-0.663 0.297-0.663 0.663c0 0.366 0.297 0.663 0.663 0.663zM7.414 18.856c0.703 0 1.274 0.57 1.274 1.274s-0.57 1.274-1.274 1.274-1.274-0.57-1.274-1.274c0-0.703 0.57-1.274 1.274-1.274z"></path>
        </symbol>
        <symbol id="icon-Dimensions" viewBox="0 0 32 32">
            <title>Dimensions</title>
            <path d="M30.933 16c0.589 0 1.067 0.493 1.067 1.102v9.918h-32v-9.918c0-0.609 0.478-1.102 1.067-1.102s1.067 0.493 1.067 1.102v7.714h4.267v-3.306c0-0.609 0.478-1.102 1.067-1.102s1.067 0.493 1.067 1.102v3.306h6.4v-7.714c0-0.609 0.478-1.102 1.067-1.102s1.067 0.493 1.067 1.102v7.714h6.4v-3.306c0-0.609 0.478-1.102 1.067-1.102s1.067 0.493 1.067 1.102v3.306h4.267v-7.714c0-0.609 0.478-1.102 1.067-1.102zM0.319 7.41c-0.097 0-0.145-0.033-0.145-0.1 0-0.040 0.015-0.085 0.044-0.135s0.047-0.082 0.053-0.095l0.513-0.92c0.039-0.060 0.071-0.102 0.097-0.125s0.068-0.035 0.126-0.035h1.906c0.058 0 0.098 0.012 0.121 0.035s0.034 0.065 0.034 0.125v5.41h1.374c0.058 0 0.098 0.012 0.121 0.035s0.034 0.065 0.034 0.125v1.090c0 0.060-0.011 0.102-0.034 0.125s-0.063 0.035-0.121 0.035h-4.285c-0.058 0-0.098-0.012-0.121-0.035s-0.034-0.065-0.034-0.125v-1.090c0-0.060 0.011-0.102 0.034-0.125s0.063-0.035 0.121-0.035h1.451v-4.16h-1.287zM16.718 7.41c-0.271 0-0.709 0.007-1.316 0.020l-1.122 0.010c-0.058 0-0.098-0.012-0.121-0.035s-0.034-0.065-0.034-0.125v-1.090c0-0.060 0.011-0.102 0.034-0.125s0.063-0.035 0.121-0.035h0.319c0.677-0.020 1.435-0.030 2.273-0.030 0.6 0 1.074 0.172 1.422 0.515s0.522 0.805 0.522 1.385v0.47c0 0.76-0.371 1.273-1.112 1.54l-1.703 0.61c-0.226 0.080-0.372 0.16-0.44 0.24s-0.102 0.213-0.102 0.4v0.49h3.066c0.058 0 0.098 0.012 0.121 0.035s0.034 0.065 0.034 0.125v1.090c0 0.060-0.011 0.102-0.034 0.125s-0.063 0.035-0.121 0.035h-4.372c-0.058 0-0.098-0.012-0.121-0.035s-0.034-0.065-0.034-0.125v-1.9c0-0.42 0.106-0.753 0.319-1s0.477-0.427 0.793-0.54l1.886-0.68c0.148-0.053 0.245-0.128 0.29-0.225s0.068-0.222 0.068-0.375v-0.12c0-0.233-0.050-0.4-0.15-0.5s-0.263-0.15-0.488-0.15zM28.208 9.1c0-0.040 0.016-0.077 0.048-0.11l1.683-1.58h-2.622c-0.058 0-0.098-0.012-0.121-0.035s-0.034-0.065-0.034-0.125v-1.090c0-0.060 0.011-0.102 0.034-0.125s0.063-0.035 0.121-0.035h4.276c0.058 0 0.098 0.012 0.121 0.035s0.034 0.065 0.034 0.125v1.010c0 0.047-0.005 0.083-0.015 0.11s-0.031 0.057-0.063 0.090l-1.49 1.46c0.574 0 1.021 0.132 1.34 0.395s0.479 0.728 0.479 1.395v0.51c0 0.58-0.174 1.042-0.522 1.385s-0.822 0.515-1.422 0.515c-0.4 0-0.967-0.007-1.703-0.020l-1.112-0.010c-0.052 0-0.090-0.012-0.116-0.035s-0.039-0.065-0.039-0.125v-1.090c0-0.060 0.011-0.102 0.034-0.125s0.063-0.035 0.121-0.035c0.161 0 0.29 0.003 0.387 0.010 0.942 0.013 1.699 0.020 2.273 0.020 0.226 0 0.389-0.055 0.488-0.165s0.15-0.288 0.15-0.535v-0.080c0-0.247-0.050-0.425-0.15-0.535s-0.263-0.165-0.488-0.165h-1.054c-0.052 0-0.089-0.010-0.111-0.030s-0.053-0.063-0.092-0.13l-0.387-0.74c-0.032-0.067-0.048-0.113-0.048-0.14z"></path>
        </symbol>
        <symbol id="icon-Dimensoons-XYZ" viewBox="0 0 32 32">
            <title>Dimensoons-XYZ</title>
            <path d="M17.385 19.594v-9.529c0.043-0.616-0.262-1.204-0.789-1.525s-1.19-0.321-1.717 0c-0.527 0.321-0.832 0.909-0.789 1.525v9.529l-8.306 4.765c-0.556 0.271-0.915 0.829-0.929 1.448s0.319 1.193 0.863 1.489c0.544 0.296 1.207 0.262 1.718-0.086l8.306-4.765 8.306 4.765c0.779 0.379 1.717 0.092 2.151-0.657s0.216-1.706-0.5-2.193l-8.314-4.765zM31.756 30.009l-1.223-1.953 1.128-1.819c0.035-0.050 0.060-0.107 0.071-0.167 0-0.042-0.029-0.064-0.087-0.064h-0.794c-0.028-0.009-0.059-0.009-0.087 0-0.026 0.019-0.048 0.043-0.064 0.071l-0.723 1.318-0.794-1.31c-0.016-0.028-0.037-0.053-0.064-0.071-0.028-0.009-0.059-0.009-0.087 0h-0.874c-0.058 0-0.087 0.021-0.087 0.064 0.012 0.060 0.036 0.117 0.071 0.167l1.159 1.882-1.183 1.89c-0.035 0.050-0.060 0.107-0.071 0.167 0 0.042 0.029 0.064 0.087 0.064h0.794c0.028 0.009 0.059 0.009 0.087 0 0.026-0.019 0.048-0.043 0.064-0.071l0.794-1.334 0.794 1.334c0.016 0.028 0.037 0.053 0.064 0.071 0.028 0.009 0.059 0.009 0.087 0h0.889c0.058 0 0.087-0.021 0.087-0.064-0.001-0.060-0.015-0.12-0.040-0.175zM3.131 29.313h-1.826l1.819-2.565c0.004-0.026 0.004-0.053 0-0.079 0.004-0.034 0.004-0.069 0-0.103v-0.548c0.006-0.027-0.002-0.055-0.021-0.074s-0.047-0.027-0.074-0.021h-2.787c-0.025-0.011-0.054-0.011-0.079 0-0.032 0.020-0.051 0.057-0.048 0.095v0.659c-0.008 0.023-0.008 0.048 0 0.071 0.025 0.011 0.054 0.011 0.079 0h1.803l-1.834 2.628c-0.003 0.024-0.003 0.048 0 0.071-0.004 0.034-0.004 0.069 0 0.103v0.516c-0.011 0.025-0.011 0.054 0 0.079 0.025 0.011 0.054 0.011 0.079 0h2.891c0.027 0.006 0.055-0.002 0.074-0.021s0.027-0.047 0.021-0.074v-0.659c0.006-0.027-0.002-0.055-0.021-0.074s-0.047-0.027-0.074-0.021v0.016zM14.5 3.919c0.079 0.244 0.146 0.421 0.199 0.532 0.049 0.11 0.122 0.208 0.214 0.286 0.112 0.083 0.243 0.135 0.381 0.151v1.255c-0.006 0.027 0.002 0.055 0.021 0.074s0.047 0.027 0.074 0.021h0.723c0.027 0.006 0.055-0.002 0.074-0.021s0.027-0.047 0.021-0.074v-1.271c0.133-0.019 0.258-0.071 0.365-0.151 0.096-0.079 0.172-0.18 0.222-0.294 0.053-0.116 0.119-0.289 0.199-0.516l0.508-1.668c0.018-0.054 0.031-0.11 0.040-0.167 0-0.048 0-0.064-0.095-0.064h-0.739c0 0 0 0 0 0-0.005 0.026-0.005 0.053 0 0.079l-0.524 1.588c-0.021 0.071-0.048 0.14-0.079 0.206-0.017 0.035-0.045 0.063-0.079 0.079-0.052 0.010-0.106 0.010-0.159 0h-0.071c-0.052 0.010-0.106 0.010-0.159 0-0.032-0.017-0.058-0.045-0.071-0.079-0.031-0.070-0.057-0.141-0.079-0.214l-0.532-1.588c0.005-0.026 0.005-0.053 0-0.079-0.021-0.007-0.043-0.007-0.064 0h-0.794c-0.064 0-0.095 0.021-0.095 0.064 0.008 0.057 0.022 0.112 0.040 0.167l0.461 1.684z"></path>
        </symbol>
        <symbol id="icon-Hazardous" viewBox="0 0 32 32">
            <title>Hazardous</title>
            <path d="M17.64 19.448c0 0.154-0.028 0.258-0.088 0.32-0.060 0.056-0.164 0.088-0.318 0.088h-2.468c-0.152 0-0.258-0.032-0.318-0.088-0.058-0.062-0.090-0.166-0.090-0.32l-0.33-9.734c0-0.154 0.030-0.26 0.090-0.318 0.060-0.060 0.164-0.090 0.318-0.090h3.128c0.154 0 0.258 0.030 0.32 0.090 0.058 0.058 0.088 0.164 0.088 0.318l-0.332 9.734zM17.972 25.726c0 0.152-0.030 0.258-0.088 0.318-0.062 0.060-0.166 0.088-0.32 0.088h-3.128c-0.154 0-0.258-0.028-0.318-0.088s-0.090-0.166-0.090-0.318v-2.874c0-0.154 0.030-0.26 0.090-0.32 0.060-0.058 0.164-0.088 0.318-0.088h3.128c0.154 0 0.258 0.030 0.32 0.088 0.058 0.060 0.088 0.166 0.088 0.32v2.874zM31.87 28.462l-0.282-0.482-14.676-25.448c-0.18-0.318-0.522-0.532-0.914-0.532-0.4 0-0.744 0.22-0.922 0.544l-0.174 0.302-14.764 25.602c-0.088 0.152-0.138 0.328-0.138 0.514 0 0.572 0.47 1.038 1.048 1.038h29.906c0.578 0 1.046-0.466 1.046-1.038 0-0.18-0.046-0.352-0.13-0.5z"></path>
        </symbol>
        <symbol id="icon-Reefer" viewBox="0 0 32 32">
            <title>Reefer</title>
            <path d="M32 16l-0.8-1.4h-3.6l1.6-2.8-0.8-1.4h-1.6l-2.6 4h-5.6l2.8-4.8h4.8l0.8-1.4-0.8-1.4h-3.2l2-3.2-1-1.4h-1.8l-1.8 3.2-1.6-3h-1.6l-0.8 1.4 2.4 4.2-2.8 5-2.8-5 2.6-4.2-1-1.4h-1.6l-1.6 2.8-1.8-3.2h-1.8l-0.8 1.4 1.8 3.2h-3.4l-0.8 1.6 0.8 1.4h5l2.8 5h-5.6l-2.4-4.2h-1.6l-1 1.4 1.6 2.8h-3.6l-0.8 1.4 0.8 1.4h3.6l-1.6 2.8 0.8 1.4h1.6l2.6-4.2h5.6l-2.8 5h-5l-0.8 1.4 0.8 1.6h3.2l-1.8 3.2 0.8 1.4h1.6l1.8-3.2 1.6 2.8h1.6l0.8-1.4-2-4.4 2.8-4.8 2.8 4.8-2.6 4.2 0.8 1.4h1.6l1.6-2.8 1.8 3h2l0.8-1.4-1.8-3.2h3.2l0.8-1.6-0.8-1.4h-4.8l-3-4.6h5.8l2.4 4.2h1.6l0.8-1.4-1.6-2.8h3.6z"></path>
        </symbol>
        <symbol id="icon-Ship-1" viewBox="0 0 32 32">
            <title>Ship-1</title>
            <path fill="currentColor" d="M0 16.455v-1.491h3.495v1.491h-3.495zM13.053 16.455v-1.491h3.496v1.491h-3.496zM17.061 16.455v-1.491h3.496v1.491h-3.496zM21.069 16.455v-1.491h3.496v1.491h-3.496z"></path>
            <path d="M0.977 20.152c-0.574-0.901-0.908-1.969-0.908-3.1l31.011-0.030-1.776 3.099c-0.088-0.003-0.177-0.005-0.265-0.005-2.717 0-2.726 1.631-5.468 1.631s-5.46-1.628-8.19-1.628l-0.011-0.004c-2.73 0-5.448 1.63-8.19 1.63s-2.745-1.63-5.462-1.63c-0.248 0-0.496 0.013-0.742 0.037zM10.643 11.852l1.852 4.631h-8.335v-4.631h0.693l0.606-1.852h1.625l1.032 1.852h2.527zM29.38 14.632l2.411 1-0.494 0.851h-6.132l1.755-2.964h1.68l0.606 0.955c0 0.096 0.079 0.158 0.174 0.158z"></path>
        </symbol>
        <symbol id="icon-Ship-2" viewBox="0 0 32 32">
            <title>Ship-2</title>
            <path d="M0.936 21.984c-0.592-0.929-0.936-2.061-0.936-3.227l31.973 0-1.831 3.195c-0.091-0.003-0.182-0.005-0.273-0.005-2.801 0-2.811 1.681-5.637 1.681s-5.629-1.678-8.444-1.678l-0.011-0.004c-2.814 0-5.618 1.681-8.444 1.681s-2.83-1.681-5.631-1.681c-0.256 0-0.512 0.014-0.765 0.038zM8.61 11.91l0.038 6.291h-8.648v-6.291h0.768l0.625-1.91h1.675l1.064 1.91h4.477z"></path>
            <path fill="currentColor" d="M13.299 18.171v-1.793h3.604v1.793h-3.604zM17.432 18.171v-1.793h3.604v1.793h-3.604zM9.162 18.171v-1.793h3.604v1.793h-3.604zM21.564 18.171v-1.793h3.604v1.793h-3.604zM25.706 18.171v-1.793h3.604v1.793h-3.604zM13.299 15.931v-1.793h3.604v1.793h-3.604zM9.162 15.931v-1.793h3.604v1.793h-3.604z"></path>
        </symbol>
        <symbol id="icon-Tracking-Delivery-Delayed" viewBox="0 0 32 32">
            <title>Tracking-Delivery-Delayed</title>
            <path fill="currentColor" d="M29.085 13.711l-2.103-1.87v-2.365h0.499v2.099l1.916 1.702-0.312 0.433zM27.332 7.414c2.187 0 3.966 1.977 3.966 4.406 0 1.967-1.166 3.636-2.77 4.201v-0.825c1.212-0.532 2.072-1.843 2.072-3.376 0-2.002-1.465-3.63-3.267-3.63s-3.267 1.628-3.267 3.63c0 0.103 0.006 0.205 0.014 0.305h-0.698c-0.006-0.101-0.014-0.202-0.014-0.305 0-2.43 1.779-4.406 3.966-4.406z"></path>
            <path d="M21.985 21.164h-5.296c0.065-0.17 0.103-0.353 0.103-0.545 0-0.397-0.155-0.758-0.407-1.031h5.049v-6.328c0-0.288 0.249-0.499 0.54-0.499l4.206 0.544c1.249 0.175 1.286 1.638 1.274 2.221h-4.245c0 0-0.255 0.010-0.255 0.204s0.017 0.362 0.049 0.57c0.032 0.208 0.133 0.426 0.532 0.52s3.888 0.758 3.888 0.758v2.969c0 0.288-0.211 0.617-0.502 0.617h-1.265v-0.617c0-0.977-0.78-1.77-1.768-1.77s-1.767 0.792-1.767 1.77v0.617h-0.136zM8.265 21.322c0.401-0.002 0.724-0.325 0.721-0.721s-0.329-0.716-0.729-0.714c-0.4 0.002-0.723 0.325-0.721 0.721s0.329 0.716 0.729 0.714zM8.254 19.225c0.769-0.004 1.397 0.61 1.4 1.371s-0.616 1.382-1.385 1.386c-0.77 0.004-1.397-0.61-1.401-1.371s0.616-1.382 1.386-1.386zM14.956 21.322c0.401-0.002 0.724-0.325 0.721-0.721s-0.329-0.716-0.729-0.714c-0.4 0.002-0.723 0.325-0.721 0.721s0.329 0.716 0.729 0.714zM14.945 19.225c0.769-0.004 1.397 0.61 1.4 1.371s-0.616 1.382-1.385 1.386c-0.77 0.004-1.397-0.61-1.401-1.371s0.616-1.382 1.386-1.386zM4.939 21.339c0.401-0.002 0.724-0.325 0.721-0.721s-0.329-0.716-0.729-0.714c-0.4 0.002-0.723 0.325-0.721 0.721s0.329 0.716 0.729 0.714zM4.927 19.242c0.769-0.004 1.397 0.61 1.4 1.371s-0.616 1.382-1.385 1.386c-0.77 0.004-1.397-0.61-1.401-1.371s0.616-1.382 1.386-1.386zM23.858 21.316c0.395 0 0.715-0.317 0.715-0.708s-0.32-0.708-0.715-0.708-0.715 0.317-0.715 0.708c0 0.391 0.32 0.708 0.715 0.708zM23.858 19.248c0.759 0 1.374 0.609 1.374 1.36s-0.615 1.36-1.374 1.36-1.374-0.609-1.374-1.36c0-0.751 0.615-1.36 1.374-1.36zM20.493 12c0.096 0 0.174 0.078 0.174 0.172v6.55c0 0.095-0.078 0.173-0.174 0.173l-17.066-0c-0.096 0-0.174-0.078-0.174-0.172v-0.519h16.725v-5.518h-16.725v-0.513c0-0.095 0.078-0.172 0.174-0.172h17.066zM3.784 15.788h-1.978l1.225 1.232-0.699 0.672-2.332-2.344 2.338-2.295 0.692 0.679-1.117 1.096h1.871v-1.607h14.959v4.388h-14.959v-1.82z"></path>
        </symbol>
        <symbol id="icon-Tracking-Collection-Delayed" viewBox="0 0 32 32">
            <title>Tracking-Collection-Delayed</title>
            <path fill="currentColor" d="M29.084 13.711l-2.103-1.87v-2.365h0.499v2.099l1.916 1.702-0.312 0.433zM27.331 7.414c2.187 0 3.966 1.977 3.966 4.406 0 1.967-1.166 3.636-2.77 4.201v-0.825c1.212-0.532 2.072-1.843 2.072-3.376 0-2.002-1.465-3.63-3.267-3.63s-3.267 1.628-3.267 3.63c0 0.103 0.006 0.205 0.014 0.305h-0.698c-0.006-0.101-0.014-0.202-0.014-0.305 0-2.43 1.779-4.406 3.966-4.406z"></path>
            <path d="M21.985 21.164h-5.296c0.065-0.17 0.103-0.353 0.103-0.545 0-0.397-0.155-0.758-0.407-1.031h5.049v-6.328c0-0.288 0.249-0.499 0.54-0.499l4.206 0.544c1.249 0.175 1.286 1.638 1.274 2.221h-4.245c0 0-0.255 0.010-0.255 0.204s0.017 0.362 0.049 0.57c0.032 0.208 0.133 0.426 0.532 0.52s3.888 0.758 3.888 0.758v2.969c0 0.288-0.211 0.617-0.502 0.617h-1.265v-0.617c0-0.977-0.78-1.77-1.768-1.77s-1.767 0.792-1.767 1.77v0.617h-0.136zM8.265 21.322c0.401-0.002 0.724-0.325 0.721-0.721s-0.329-0.716-0.729-0.714c-0.4 0.002-0.723 0.325-0.721 0.721s0.329 0.716 0.729 0.714zM8.254 19.225c0.769-0.004 1.397 0.61 1.4 1.371s-0.616 1.382-1.385 1.386c-0.77 0.004-1.397-0.61-1.401-1.371s0.616-1.382 1.386-1.386zM14.956 21.322c0.401-0.002 0.724-0.325 0.721-0.721s-0.329-0.716-0.729-0.714c-0.4 0.002-0.723 0.325-0.721 0.721s0.329 0.716 0.729 0.714zM14.945 19.225c0.769-0.004 1.397 0.61 1.4 1.371s-0.616 1.382-1.385 1.386c-0.77 0.004-1.397-0.61-1.401-1.371s0.616-1.382 1.386-1.386zM4.939 21.339c0.401-0.002 0.724-0.325 0.721-0.721s-0.329-0.716-0.729-0.714c-0.4 0.002-0.723 0.325-0.721 0.721s0.329 0.716 0.729 0.714zM4.927 19.242c0.769-0.004 1.397 0.61 1.4 1.371s-0.616 1.382-1.385 1.386c-0.77 0.004-1.397-0.61-1.401-1.371s0.616-1.382 1.386-1.386zM23.858 21.316c0.395 0 0.715-0.317 0.715-0.708s-0.32-0.708-0.715-0.708-0.715 0.317-0.715 0.708c0 0.391 0.32 0.708 0.715 0.708zM23.858 19.248c0.759 0 1.374 0.609 1.374 1.36s-0.615 1.36-1.374 1.36-1.374-0.609-1.374-1.36c0-0.751 0.615-1.36 1.374-1.36zM20.493 12c0.096 0 0.174 0.078 0.174 0.172v6.55c0 0.095-0.078 0.173-0.174 0.173l-17.066-0c-0.096 0-0.174-0.078-0.174-0.172v-0.519h16.725v-5.518h-16.725v-0.513c0-0.095 0.078-0.172 0.174-0.172h17.066zM14.959 15.762v1.82h-14.959v-4.388h14.959v1.607h1.871l-1.117-1.096 0.692-0.679 2.338 2.295-2.332 2.344-0.699-0.672 1.225-1.232h-1.978z"></path>
        </symbol>
        <symbol id="icon-Tracking-Collection" viewBox="0 0 32 32">
            <title>Tracking-Collection</title>
            <path fill="currentColor" d="M25.699 21.189h-6.095c0.075-0.197 0.118-0.41 0.118-0.634 0-0.461-0.179-0.882-0.468-1.198h5.811v-7.357c0-0.334 0.286-0.58 0.621-0.58l4.842 0.632c1.438 0.203 1.48 1.905 1.466 2.582h-4.886c0 0-0.293 0.012-0.293 0.237s0.020 0.421 0.056 0.663c0.036 0.242 0.154 0.495 0.613 0.604s4.475 0.882 4.475 0.882v3.452c0 0.335-0.243 0.717-0.578 0.717h-1.455v-0.718c0-1.137-0.898-2.058-2.035-2.058-1.135 0-2.034 0.921-2.034 2.058v0.718h-0.157zM9.907 21.372c0.461-0.002 0.833-0.378 0.83-0.839s-0.378-0.833-0.839-0.83c-0.461 0.003-0.833 0.378-0.83 0.839s0.378 0.833 0.839 0.83zM9.894 18.934c0.885-0.005 1.607 0.709 1.612 1.595s-0.709 1.607-1.595 1.612c-0.886 0.005-1.607-0.709-1.612-1.595s0.709-1.607 1.595-1.612zM17.608 21.372c0.461-0.002 0.833-0.378 0.83-0.839s-0.378-0.833-0.839-0.83c-0.461 0.003-0.833 0.378-0.83 0.839s0.378 0.833 0.839 0.83zM17.595 18.934c0.885-0.005 1.607 0.709 1.612 1.595s-0.709 1.607-1.595 1.612c-0.886 0.005-1.607-0.709-1.612-1.595s0.709-1.607 1.595-1.612zM6.078 21.392c0.461-0.002 0.833-0.378 0.83-0.839s-0.378-0.833-0.839-0.83c-0.461 0.003-0.833 0.378-0.83 0.839s0.378 0.833 0.839 0.83zM6.065 18.954c0.885-0.005 1.607 0.709 1.612 1.595s-0.709 1.607-1.595 1.612c-0.886 0.005-1.607-0.709-1.612-1.595s0.709-1.607 1.595-1.612zM27.854 21.366c0.454 0 0.823-0.369 0.823-0.823s-0.369-0.823-0.823-0.823-0.823 0.369-0.823 0.823c0 0.455 0.369 0.823 0.823 0.823zM27.854 18.961c0.873 0 1.581 0.708 1.581 1.581s-0.708 1.581-1.581 1.581-1.581-0.708-1.581-1.581c0-0.873 0.708-1.581 1.581-1.581zM23.98 10.533c0.11 0 0.201 0.090 0.201 0.2v7.617c0 0.11-0.090 0.201-0.201 0.201l-19.643-0.001c-0.11 0-0.201-0.090-0.201-0.201v-0.603h19.251v-6.417h-19.251v-0.597c0-0.11 0.090-0.2 0.201-0.2h19.643z"></path>
            <path d="M17.218 14.945v2.117h-17.218v-5.102h17.218v1.869h2.154l-1.285-1.275 0.796-0.789 2.691 2.668-2.684 2.726-0.805-0.781 1.41-1.433h-2.276z"></path>
        </symbol>
        <symbol id="icon-Tracking-Complex-Booking" viewBox="0 0 32 32">
            <title>Tracking-Complex-Booking</title>
            <path d="M23.76 20.025h-6.046c0.241-0.621 0.107-1.326-0.345-1.815h5.764v-7.293c0.004-0.158 0.072-0.308 0.187-0.416s0.269-0.166 0.428-0.16l4.8 0.627c1.423 0.202 1.453 1.886 1.453 2.56h-4.817c0 0-0.291 0.013-0.291 0.236 0.001 0.22 0.019 0.44 0.055 0.657 0.035 0.308 0.274 0.554 0.581 0.598 0.459 0.109 4.438 0.876 4.438 0.876v3.419c0 0.333-0.24 0.712-0.573 0.712h-1.444v-0.712c0-0.721-0.384-1.386-1.008-1.747s-1.393-0.36-2.017 0c-0.624 0.36-1.008 1.026-1.008 1.747v0.712h-0.156zM25.903 17.819h0.004c0.865 0 1.566 0.701 1.566 1.566s-0.7 1.566-1.565 1.566-1.566-0.699-1.568-1.564c-0.002-0.864 0.698-1.567 1.562-1.569zM25.907 20.202c0.451 0 0.817-0.366 0.817-0.817s-0.366-0.817-0.817-0.817c-0.451 0-0.817 0.366-0.817 0.817s0.366 0.817 0.817 0.817zM22.046 17.427h-19.238c-0.098 0-0.177-0.079-0.177-0.177v-7.503c0-0.098 0.079-0.177 0.177-0.177h19.238c0.098 0 0.177 0.079 0.177 0.177v7.503c0 0.047-0.019 0.092-0.052 0.125s-0.078 0.052-0.125 0.052zM8.215 17.832h0.008c0.865 0 1.566 0.701 1.566 1.566 0 0.864-0.7 1.565-1.564 1.566s-1.566-0.697-1.569-1.561c-0.003-0.864 0.694-1.567 1.558-1.572zM8.223 20.215c0.451 0 0.817-0.366 0.817-0.817s-0.366-0.817-0.817-0.817c-0.451 0-0.817 0.366-0.817 0.817s0.366 0.817 0.817 0.817zM11.958 17.832c0.865 0 1.566 0.701 1.566 1.566s-0.701 1.566-1.566 1.566c-0.865 0-1.566-0.701-1.566-1.566s0.701-1.566 1.566-1.566zM11.958 20.215c0.451 0 0.817-0.366 0.817-0.817s-0.366-0.817-0.817-0.817c-0.451 0-0.817 0.366-0.817 0.817s0.366 0.817 0.817 0.817zM4.472 17.832c0.865 0 1.566 0.701 1.566 1.566s-0.701 1.566-1.566 1.566c-0.865 0-1.566-0.701-1.566-1.566s0.701-1.566 1.566-1.566zM4.472 20.215c0.451 0 0.817-0.366 0.817-0.817s-0.366-0.817-0.817-0.817c-0.451 0-0.817 0.366-0.817 0.817s0.366 0.817 0.817 0.817zM15.684 17.832c-0.865 0-1.566 0.701-1.566 1.566s0.701 1.566 1.566 1.566c0.865 0 1.566-0.701 1.566-1.566s-0.701-1.566-1.566-1.566zM15.684 20.215c-0.451 0-0.817-0.366-0.817-0.817s0.366-0.817 0.817-0.817c0.451 0 0.817 0.366 0.817 0.817s-0.366 0.817-0.817 0.817z"></path>
            <path fill="currentColor" d="M13.225 2.884l2.884-2.884 2.952 2.88-0.455 0.463-2.236-2.181v7.133h-0.648v-6.994l-2.038 2.038-0.459-0.455zM6.451 5.314v-4.076l4.122-0.051 0.008 0.648-3.124 0.038 5.044 5.044-0.459 0.459-4.943-4.943v2.88h-0.648zM25.975 5.314h-0.648v-2.88l-4.943 4.943-0.459-0.459 5.044-5.044-3.124-0.038 0.008-0.648 4.122 0.051v4.076zM13.225 28.994l0.459-0.459 2.038 2.038v-6.994h0.648v7.133l2.236-2.181 0.455 0.463-2.952 2.88-2.884-2.88zM6.451 26.56h0.648v2.88l4.943-4.943 0.459 0.459-5.044 5.044 3.124 0.038-0.008 0.648-4.122-0.051v-4.076zM25.975 26.56v4.076l-4.122 0.051-0.008-0.648 3.124-0.038-5.044-5.044 0.459-0.459 4.943 4.943v-2.88h0.648z"></path>
        </symbol>
        <symbol id="icon-Tracking-Delivery" viewBox="0 0 32 32">
            <title>Tracking-Delivery</title>
            <path fill="currentColor" d="M25.699 21.189h-6.095c0.075-0.197 0.118-0.41 0.118-0.634 0-0.461-0.179-0.882-0.468-1.198h5.811v-7.357c0-0.334 0.286-0.58 0.621-0.58l4.842 0.632c1.438 0.203 1.48 1.905 1.466 2.582h-4.886c0 0-0.293 0.012-0.293 0.237s0.020 0.421 0.056 0.663c0.036 0.242 0.154 0.495 0.613 0.604s4.475 0.882 4.475 0.882v3.452c0 0.335-0.243 0.717-0.578 0.717h-1.455v-0.718c0-1.137-0.898-2.058-2.035-2.058-1.135 0-2.034 0.921-2.034 2.058v0.718h-0.157zM9.907 21.372c0.461-0.002 0.833-0.378 0.83-0.839s-0.378-0.833-0.839-0.83c-0.461 0.003-0.833 0.378-0.83 0.839s0.378 0.833 0.839 0.83zM9.894 18.934c0.885-0.005 1.607 0.709 1.612 1.595s-0.709 1.607-1.595 1.612c-0.886 0.005-1.607-0.709-1.612-1.595s0.709-1.607 1.595-1.612zM17.608 21.372c0.461-0.002 0.833-0.378 0.83-0.839s-0.378-0.833-0.839-0.83c-0.461 0.003-0.833 0.378-0.83 0.839s0.378 0.833 0.839 0.83zM17.595 18.934c0.885-0.005 1.607 0.709 1.612 1.595s-0.709 1.607-1.595 1.612c-0.886 0.005-1.607-0.709-1.612-1.595s0.709-1.607 1.595-1.612zM6.078 21.392c0.461-0.002 0.833-0.378 0.83-0.839s-0.378-0.833-0.839-0.83c-0.461 0.003-0.833 0.378-0.83 0.839s0.378 0.833 0.839 0.83zM6.065 18.954c0.885-0.005 1.607 0.709 1.612 1.595s-0.709 1.607-1.595 1.612c-0.886 0.005-1.607-0.709-1.612-1.595s0.709-1.607 1.595-1.612zM27.854 21.366c0.454 0 0.823-0.369 0.823-0.823s-0.369-0.823-0.823-0.823-0.823 0.369-0.823 0.823c0 0.455 0.369 0.823 0.823 0.823zM27.854 18.961c0.873 0 1.581 0.708 1.581 1.581s-0.708 1.581-1.581 1.581-1.581-0.708-1.581-1.581c0-0.873 0.708-1.581 1.581-1.581zM23.98 10.533c0.11 0 0.201 0.090 0.201 0.2v7.617c0 0.11-0.090 0.201-0.201 0.201l-19.643-0.001c-0.11 0-0.201-0.090-0.201-0.201v-0.603h19.251v-6.417h-19.251v-0.597c0-0.11 0.090-0.2 0.201-0.2h19.643z"></path>
            <path d="M4.355 14.945v2.117h17.218v-5.102h-17.218v1.869h-2.154l1.285-1.275-0.796-0.789-2.691 2.668 2.684 2.726 0.805-0.781-1.41-1.433h2.276z"></path>
        </symbol>
        <symbol id="icon-Tracking-Empty" viewBox="0 0 32 32">
            <title>Tracking-Empty</title>
            <path d="M29.714 8h2.286v15.771h-32v-15.771h2.286v13.485h27.428v-13.485zM21.257 10.032l-3.911 3.911 3.911 3.911-1.117 1.118-3.911-3.912-3.911 3.912-1.117-1.118 3.911-3.911-3.911-3.911 1.117-1.117 3.911 3.911 3.911-3.911 1.117 1.117z"></path>
        </symbol>
        <symbol id="icon-Tracking-Full-Load" viewBox="0 0 32 32">
            <title>Tracking-Full-Load</title>
            <path fill="currentColor" d="M28.498 19.72c0.707 0 1.28 0.573 1.28 1.28s-0.573 1.28-1.28 1.28c-0.707 0-1.28-0.573-1.28-1.28s0.573-1.28 1.28-1.28zM28.498 21.666c0.177 0 0.346-0.070 0.472-0.194s0.195-0.294 0.195-0.471c0-0.367-0.298-0.665-0.665-0.666s-0.666 0.297-0.666 0.665c-0.001 0.367 0.297 0.666 0.664 0.667zM27.702 16.946c0.022 0.195 0.131 0.402 0.502 0.49s3.622 0.714 3.622 0.714v2.792c0 0.27-0.197 0.581-0.467 0.581h-1.187v-0.581c0-0.909-0.737-1.646-1.646-1.646s-1.646 0.737-1.646 1.646v0.582h-0.126c-0.272 0-0.514-0.31-0.514-0.581v-6.858c0-0.005 0-0.016 0-0.016 0.006-0.127 0.063-0.247 0.157-0.333s0.219-0.13 0.347-0.123l3.92 0.512c1.165 0.171 1.198 1.542 1.187 2.091h-3.955c0 0-0.238 0.010-0.238 0.192 0.001 0.18 0.016 0.36 0.045 0.538zM22.424 19.73c0.707 0 1.28 0.573 1.28 1.28s-0.573 1.28-1.28 1.28c-0.707 0-1.28-0.573-1.28-1.28s0.573-1.28 1.28-1.28zM22.424 21.675c0.368 0 0.666-0.298 0.666-0.666s-0.298-0.666-0.666-0.666c-0.368 0-0.666 0.298-0.666 0.666s0.298 0.666 0.666 0.666zM19.36 19.73c0.707 0 1.28 0.573 1.28 1.28s-0.573 1.28-1.28 1.28c-0.707 0-1.28-0.573-1.28-1.28s0.573-1.28 1.28-1.28zM19.36 21.675c0.368 0 0.666-0.298 0.666-0.666s-0.298-0.666-0.666-0.666c-0.368 0-0.666 0.298-0.666 0.666s0.298 0.666 0.666 0.666zM6.176 19.73c0.707 0 1.28 0.573 1.28 1.28s-0.573 1.28-1.28 1.28c-0.707 0-1.28-0.573-1.28-1.28s0.573-1.28 1.28-1.28zM6.176 21.675c0.177 0 0.346-0.070 0.471-0.195s0.195-0.294 0.195-0.471c0-0.368-0.298-0.666-0.666-0.666s-0.666 0.298-0.666 0.666c0 0.368 0.298 0.666 0.666 0.666zM9.235 19.73c0.707 0 1.28 0.573 1.28 1.28s-0.573 1.28-1.28 1.28c-0.707 0-1.28-0.573-1.28-1.28s0.573-1.28 1.28-1.28zM9.235 21.675c0.368 0 0.666-0.298 0.666-0.666s-0.298-0.666-0.666-0.666c-0.368 0-0.666 0.298-0.666 0.666s0.298 0.666 0.666 0.666zM3.12 19.73c0.707 0 1.28 0.573 1.28 1.28s-0.573 1.28-1.28 1.28c-0.707 0-1.28-0.573-1.28-1.28s0.573-1.28 1.28-1.28zM3.12 21.675c0.368 0 0.666-0.298 0.666-0.666s-0.298-0.666-0.666-0.666c-0.368 0-0.666 0.298-0.666 0.666s0.298 0.666 0.666 0.666zM25.6 19.080v-5.76h-25.28v5.76h25.28zM25.76 13c0.088 0 0.16 0.072 0.16 0.16v6.080c0 0.088-0.072 0.16-0.16 0.16h-25.6c-0.088 0-0.16-0.072-0.16-0.16v-6.080c0-0.088 0.072-0.16 0.16-0.16h25.6z"></path>
            <path d="M0.64 13.643h3.84v2.4h-3.84v-2.4zM0.64 16.376h3.84v2.4h-3.84v-2.4zM4.8 13.643h3.84v2.4h-3.84v-2.4zM4.8 16.376h3.84v2.4h-3.84v-2.4zM8.96 13.643h3.84v2.4h-3.84v-2.4zM8.96 16.376h3.84v2.4h-3.84v-2.4zM13.12 13.643h3.84v2.4h-3.84v-2.4zM13.12 16.376h3.84v2.4h-3.84v-2.4zM17.28 13.643h3.84v2.4h-3.84v-2.4zM17.28 16.376h3.84v2.4h-3.84v-2.4zM21.44 13.643h3.84v2.4h-3.84v-2.4zM21.44 16.376h3.84v2.4h-3.84v-2.4z"></path>
        </symbol>
        <symbol id="icon-Tracking-Full" viewBox="0 0 32 32">
            <title>Tracking-Full</title>
            <path fill="currentColor" d="M29.714 8v13.485h-27.428v-13.485h-2.286v15.772h32v-15.772z"></path>
            <path d="M20.589 10.491l-3.712 7.055c-0.134 0.255-0.376 0.436-0.658 0.492-0.063 0.012-0.126 0.019-0.188 0.019-0.22 0-0.436-0.076-0.608-0.219l-3.951-3.261c-0.408-0.336-0.465-0.938-0.129-1.346s0.939-0.465 1.346-0.129l3.044 2.512 3.163-6.013c0.245-0.468 0.825-0.648 1.292-0.401s0.647 0.825 0.401 1.291zM3.886 19.886h24.229v-11.886h-24.229v11.886z"></path>
        </symbol>
        <symbol id="icon-Tracking-Gate-in" viewBox="0 0 32 32">
            <title>Tracking-Gate-in</title>
            <path d="M10.51 18.493c0.925 0 1.676 0.75 1.676 1.676s-0.75 1.676-1.676 1.676c-0.925 0-1.676-0.75-1.676-1.676s0.75-1.676 1.676-1.676zM14.332 18.493c0.925 0 1.676 0.75 1.676 1.676s-0.75 1.676-1.676 1.676c-0.925 0-1.676-0.75-1.676-1.676s0.75-1.676 1.676-1.676zM3.878 13.029l2.522 2.487-2.516 2.541-0.756-0.729 1.322-1.334h-2.164v-1.040h2.050l-1.206-1.187 0.748-0.738zM0 9.829h0.914v11.886h-0.914v-11.886zM23.771 18.651h0.914v3.2h-0.914v-3.2zM10.51 21.032v0.007c0.232 0 0.455-0.093 0.618-0.258s0.254-0.388 0.252-0.62c0-0.352-0.212-0.669-0.537-0.804s-0.7-0.060-0.949 0.189c-0.249 0.249-0.323 0.623-0.189 0.949s0.452 0.537 0.804 0.537zM14.332 21.032v0.007c0.232 0 0.455-0.093 0.618-0.258s0.254-0.388 0.252-0.62c0-0.352-0.212-0.669-0.537-0.804s-0.7-0.060-0.949 0.189c-0.249 0.249-0.323 0.623-0.189 0.949s0.452 0.537 0.804 0.537z"></path>
            <path fill="currentColor" d="M8.771 9.829h21.099c0.552 0 1 0.448 1 1v6.37c0 0.552-0.448 1-1 1h-21.099c-0.552 0-1-0.448-1-1v-6.37c0-0.552 0.448-1 1-1z"></path>
        </symbol>
        <symbol id="icon-Tracking-Gate-Out" viewBox="0 0 32 32">
            <title>Tracking-Gate-Out</title>
            <path d="M26.957 19.84h-4.898c0.196-0.481 0.090-1.027-0.274-1.407h4.665v-5.646c0.004-0.122 0.058-0.238 0.151-0.322s0.218-0.128 0.345-0.123l3.88 0.484c1.152 0.155 1.174 1.457 1.174 1.983h-3.913c0 0-0.236 0.008-0.236 0.181 0.001 0.171 0.015 0.341 0.044 0.51 0.030 0.246 0.234 0.438 0.491 0.463 0.368 0.084 3.584 0.678 3.584 0.678v2.648c0 0.255-0.189 0.55-0.464 0.55h-1.166v-0.552c0.025-0.573-0.28-1.113-0.794-1.406s-1.154-0.293-1.668 0c-0.514 0.293-0.819 0.833-0.794 1.406v0.552h-0.126zM28.683 18.131c0.7 0 1.268 0.544 1.268 1.215s-0.568 1.215-1.268 1.215c-0.7 0-1.268-0.544-1.268-1.215s0.568-1.215 1.268-1.215zM20.429 18.142c0.7 0 1.268 0.544 1.268 1.215s-0.568 1.215-1.268 1.215c-0.7 0-1.268-0.544-1.268-1.215s0.568-1.215 1.268-1.215zM10.411 18.142c0.7 0 1.268 0.544 1.268 1.215s-0.568 1.215-1.268 1.215c-0.7 0-1.268-0.544-1.268-1.215s0.568-1.215 1.268-1.215zM13.303 18.142c0.7 0 1.268 0.544 1.268 1.215s-0.568 1.215-1.268 1.215c-0.7 0-1.268-0.544-1.268-1.215s0.568-1.215 1.268-1.215zM3.878 13.257l2.522 2.487-2.516 2.541-0.756-0.729 1.322-1.334h-2.164v-1.040h2.050l-1.206-1.187 0.748-0.738zM0 10.057h0.914v11.886h-0.914v-11.886zM28.683 19.972v0.005c0.176 0 0.344-0.067 0.468-0.187s0.192-0.281 0.191-0.45c0-0.349-0.295-0.631-0.659-0.631s-0.659 0.283-0.659 0.631c0 0.349 0.295 0.631 0.659 0.631zM20.429 19.982v0.005c0.176 0 0.344-0.067 0.468-0.187s0.192-0.281 0.191-0.45c0-0.255-0.16-0.485-0.407-0.583s-0.529-0.044-0.718 0.137c-0.188 0.18-0.245 0.452-0.143 0.688s0.342 0.39 0.608 0.39zM10.411 19.982v0.005c0.176 0 0.344-0.067 0.468-0.187s0.192-0.281 0.191-0.45c0-0.255-0.16-0.485-0.407-0.583s-0.529-0.044-0.718 0.137c-0.188 0.18-0.245 0.452-0.143 0.688s0.342 0.39 0.608 0.39zM13.303 19.982v0.005c0.176 0 0.344-0.067 0.468-0.187s0.192-0.281 0.191-0.45c0-0.255-0.16-0.485-0.407-0.583s-0.529-0.044-0.718 0.137c-0.188 0.18-0.245 0.452-0.143 0.688s0.342 0.39 0.608 0.39z"></path>
            <path fill="currentColor" d="M9.512 11.429h15.371c0.552 0 1 0.448 1 1v4.4c0 0.552-0.448 1-1 1h-15.371c-0.552 0-1-0.448-1-1v-4.4c0-0.552 0.448-1 1-1z"></path>
        </symbol>
        <symbol id="icon-Tracking-Loaded-on-Vessel" viewBox="0 0 33 32">
            <title>Tracking-Loaded-on-Vessel</title>
            <path d="M1.47 20.132c-0.588-0.919-0.9-1.986-0.901-3.077l30.786-0.041-1.762 3.077h-0.263c-2.698 0-2.698 1.618-5.427 1.618s-5.427-1.615-8.138-1.615c-2.717 0-5.418 1.618-8.138 1.618s-2.726-1.618-5.421-1.618c-0.244 0-0.491 0.013-0.736 0.038zM0.5 14.984h3.471v1.48h-3.471v-1.48zM13.455 14.984h3.471v1.48h-3.471v-1.48zM21.411 14.984h3.471v1.48h-3.471v-1.48zM11.063 11.894l1.84 4.598h-8.275v-4.598h0.689l0.601-1.837h1.612l1.027 1.837h2.507zM29.661 14.655l2.394 1.002-0.491 0.845h-6.085l1.74-2.942h1.668l0.601 0.939c0.001 0.044 0.020 0.086 0.052 0.115s0.076 0.044 0.12 0.041zM21.757 12.107l-2.487 2.522-2.541-2.516 0.729-0.756 1.334 1.322v-2.164h1.040v2.050l1.187-1.206 0.738 0.748z"></path>
            <path fill="currentColor" d="M17.433 14.984h3.471v1.48h-3.471v-1.48z"></path>
        </symbol>
        <symbol id="icon-Tracking-Logistics-Time" viewBox="0 0 32 32">
            <title>Tracking-Logistics-Time</title>
            <path fill="currentColor" d="M27.116 17.112l-4.215-3.373v-4.269h1v3.788l3.84 3.072-0.625 0.782zM23.603 5.75c3.921 0.002 7.256 2.862 7.854 6.737s-1.719 7.608-5.457 8.792v-1.489c3.074-1.209 4.767-4.517 3.949-7.717s-3.889-5.291-7.166-4.877c-3.277 0.413-5.733 3.202-5.73 6.505 0 0.185 0.013 0.368 0.028 0.55h-1.4c-0.012-0.182-0.028-0.364-0.028-0.55 0.005-4.389 3.561-7.945 7.95-7.95z"></path>
            <path d="M20.808 23.036c0.778 0 1.41 0.631 1.41 1.41s-0.631 1.41-1.41 1.41c-0.778 0-1.41-0.631-1.41-1.41s0.631-1.41 1.41-1.41zM20.808 25.179c0.405 0 0.733-0.328 0.733-0.733s-0.328-0.733-0.733-0.733c-0.405 0-0.733 0.328-0.733 0.733s0.328 0.733 0.733 0.733zM20.143 19.18c0 0-0.262 0.010-0.26 0.21 0.001 0.198 0.018 0.396 0.050 0.591 0.033 0.285 0.261 0.509 0.546 0.538 0.409 0.097 3.989 0.786 3.989 0.786v3.076c0 0.299-0.215 0.639-0.515 0.639h-1.3v-0.64c0-1.001-0.812-1.813-1.813-1.813s-1.813 0.812-1.813 1.813v0.64h-5.573c0.216-0.559 0.095-1.192-0.312-1.633h5.181v-6.556c0.004-0.142 0.065-0.277 0.169-0.374s0.243-0.149 0.385-0.143l4.316 0.564c1.282 0.178 1.32 1.695 1.307 2.3h-4.357zM11.622 23.050c0.778 0 1.409 0.631 1.409 1.41s-0.631 1.41-1.409 1.41c-0.778 0-1.409-0.631-1.409-1.41s0.631-1.41 1.409-1.41zM11.622 25.193v-0.003c0.404 0 0.732-0.327 0.733-0.731 0-0.297-0.179-0.564-0.453-0.678s-0.59-0.051-0.799 0.159c-0.21 0.21-0.273 0.525-0.159 0.799s0.381 0.453 0.678 0.453zM2.305 23.050c0.778 0 1.409 0.631 1.409 1.41s-0.631 1.41-1.409 1.41c-0.778 0-1.409-0.631-1.409-1.41s0.631-1.41 1.409-1.41zM2.305 25.193v-0.003c0.404 0 0.732-0.327 0.733-0.731 0-0.405-0.328-0.733-0.734-0.733s-0.734 0.328-0.734 0.733c0 0.405 0.328 0.733 0.734 0.733zM5.526 23.050c0.778 0 1.41 0.631 1.41 1.41s-0.631 1.41-1.409 1.41c-0.778 0-1.409-0.631-1.409-1.41s0.631-1.41 1.409-1.41zM5.526 25.193v-0.003c0.404 0 0.732-0.327 0.734-0.731 0-0.405-0.328-0.733-0.734-0.733s-0.734 0.328-0.734 0.733c0 0.405 0.328 0.733 0.734 0.733zM0.543 15.752h16.532c0.3 0 0.543 0.243 0.543 0.543v5.961c0 0.3-0.243 0.543-0.543 0.543h-16.532c-0.3 0-0.543-0.243-0.543-0.543v-5.961c0-0.3 0.243-0.543 0.543-0.543z"></path>
        </symbol>
        <symbol id="icon-Tracking-Logistics" viewBox="0 0 32 32">
            <title>Tracking-Logistics</title>
            <path d="M24.45 22.351h-7.033c0.087-0.228 0.137-0.473 0.137-0.73 0-0.533-0.206-1.018-0.54-1.383h6.705v-8.489c0-0.386 0.331-0.669 0.717-0.669l5.587 0.73c1.659 0.234 1.708 2.197 1.692 2.98h-5.638c0 0-0.339 0.013-0.339 0.273s0.023 0.487 0.065 0.766c0.042 0.279 0.178 0.571 0.707 0.697s5.163 1.018 5.163 1.018v3.982c0 0.386-0.28 0.828-0.667 0.828h-1.68v-0.828c0-1.311-1.037-2.374-2.347-2.374s-2.347 1.063-2.347 2.374v0.828h-0.181zM26.937 22.555c0.524 0 0.95-0.425 0.95-0.95s-0.425-0.95-0.95-0.95c-0.525 0-0.95 0.425-0.95 0.95s0.425 0.95 0.95 0.95zM26.937 19.78c1.007 0 1.824 0.817 1.824 1.825s-0.817 1.824-1.824 1.824c-1.007 0-1.824-0.817-1.824-1.824s0.817-1.825 1.824-1.825zM15.044 22.57c0.524 0 0.95-0.425 0.95-0.949s-0.425-0.95-0.95-0.95-0.95 0.425-0.95 0.95c0 0.524 0.425 0.949 0.95 0.949zM15.044 19.795c1.007 0 1.824 0.817 1.824 1.825s-0.817 1.824-1.824 1.824c-1.007 0-1.824-0.817-1.824-1.824s0.817-1.825 1.824-1.825zM2.984 22.57c0.525 0 0.95-0.425 0.95-0.949s-0.425-0.95-0.95-0.95c-0.524 0-0.949 0.425-0.949 0.95s0.425 0.949 0.949 0.949zM2.984 19.795c1.007 0 1.824 0.817 1.824 1.825s-0.817 1.824-1.824 1.824c-1.007 0-1.824-0.817-1.824-1.824s0.817-1.825 1.824-1.825zM7.153 22.57c0.524 0 0.95-0.425 0.95-0.949s-0.425-0.95-0.95-0.95c-0.525 0-0.95 0.425-0.95 0.95s0.425 0.949 0.95 0.949zM7.153 19.795c1.007 0 1.824 0.817 1.824 1.825s-0.817 1.824-1.824 1.824c-1.007 0-1.824-0.817-1.824-1.824s0.817-1.825 1.824-1.825z"></path>
            <path fill="currentColor" d="M22.454 19.474h-22.102c-0.193 0-0.352-0.158-0.352-0.352v-8.419c0-0.193 0.159-0.352 0.352-0.352h22.102c0.193 0 0.352 0.158 0.352 0.352v8.419c0 0.193-0.158 0.352-0.352 0.352z"></path>
        </symbol>
        <symbol id="icon-Tracking-Part-Load" viewBox="0 0 32 32">
            <title>Tracking-Part-Load</title>
            <path d="M28.498 19.72c0.707 0 1.28 0.573 1.28 1.28s-0.573 1.28-1.28 1.28c-0.707 0-1.28-0.573-1.28-1.28s0.573-1.28 1.28-1.28zM28.498 21.666c0.177 0 0.346-0.070 0.472-0.194s0.195-0.294 0.195-0.471c0-0.367-0.298-0.665-0.665-0.666s-0.666 0.297-0.666 0.665c-0.001 0.367 0.297 0.666 0.664 0.667zM27.702 16.946c0.022 0.195 0.131 0.402 0.502 0.49s3.622 0.714 3.622 0.714v2.792c0 0.27-0.197 0.581-0.467 0.581h-1.187v-0.581c0-0.909-0.737-1.646-1.646-1.646s-1.646 0.737-1.646 1.646v0.582h-0.126c-0.272 0-0.514-0.31-0.514-0.581v-6.858c0-0.005 0-0.016 0-0.016 0.006-0.127 0.063-0.247 0.157-0.333s0.219-0.13 0.347-0.123l3.92 0.512c1.165 0.171 1.198 1.542 1.187 2.091h-3.955c0 0-0.238 0.010-0.238 0.192 0.001 0.18 0.016 0.36 0.045 0.538zM22.424 19.73c0.707 0 1.28 0.573 1.28 1.28s-0.573 1.28-1.28 1.28c-0.707 0-1.28-0.573-1.28-1.28s0.573-1.28 1.28-1.28zM22.424 21.675c0.368 0 0.666-0.298 0.666-0.666s-0.298-0.666-0.666-0.666c-0.368 0-0.666 0.298-0.666 0.666s0.298 0.666 0.666 0.666zM19.36 19.73c0.707 0 1.28 0.573 1.28 1.28s-0.573 1.28-1.28 1.28c-0.707 0-1.28-0.573-1.28-1.28s0.573-1.28 1.28-1.28zM19.36 21.675c0.368 0 0.666-0.298 0.666-0.666s-0.298-0.666-0.666-0.666c-0.368 0-0.666 0.298-0.666 0.666s0.298 0.666 0.666 0.666zM6.176 19.73c0.707 0 1.28 0.573 1.28 1.28s-0.573 1.28-1.28 1.28c-0.707 0-1.28-0.573-1.28-1.28s0.573-1.28 1.28-1.28zM6.176 21.675c0.177 0 0.346-0.070 0.471-0.195s0.195-0.294 0.195-0.471c0-0.368-0.298-0.666-0.666-0.666s-0.666 0.298-0.666 0.666c0 0.368 0.298 0.666 0.666 0.666zM9.235 19.73c0.707 0 1.28 0.573 1.28 1.28s-0.573 1.28-1.28 1.28c-0.707 0-1.28-0.573-1.28-1.28s0.573-1.28 1.28-1.28zM9.235 21.675c0.368 0 0.666-0.298 0.666-0.666s-0.298-0.666-0.666-0.666c-0.368 0-0.666 0.298-0.666 0.666s0.298 0.666 0.666 0.666zM3.12 19.73c0.707 0 1.28 0.573 1.28 1.28s-0.573 1.28-1.28 1.28c-0.707 0-1.28-0.573-1.28-1.28s0.573-1.28 1.28-1.28zM3.12 21.675c0.368 0 0.666-0.298 0.666-0.666s-0.298-0.666-0.666-0.666c-0.368 0-0.666 0.298-0.666 0.666s0.298 0.666 0.666 0.666zM25.6 19.080v-5.76h-25.28v5.76h25.28zM25.76 13c0.088 0 0.16 0.072 0.16 0.16v6.080c0 0.088-0.072 0.16-0.16 0.16h-25.6c-0.088 0-0.16-0.072-0.16-0.16v-6.080c0-0.088 0.072-0.16 0.16-0.16h25.6z"></path>
            <path fill="currentColor" d="M0.64 16.376h3.84v2.4h-3.84v-2.4zM4.8 16.376h3.84v2.4h-3.84v-2.4zM8.96 16.376h3.84v2.4h-3.84v-2.4zM13.12 16.376h3.84v2.4h-3.84v-2.4zM17.28 16.376h3.84v2.4h-3.84v-2.4zM21.44 16.376h3.84v2.4h-3.84v-2.4z"></path>
        </symbol>
        <symbol id="icon-Tracking-Pin-Railway" viewBox="0 0 32 32">
            <title>Tracking-Pin-Railway</title>
            <path fill="currentColor" d="M13.811 21.504v-2.396h0.742v2.396h-0.742zM19.059 21.504v-2.396h0.742v2.396h-0.742zM12.1 17.569c0.63 0 1.141 0.511 1.141 1.141s-0.511 1.141-1.141 1.141c-0.63 0-1.141-0.511-1.141-1.141s0.511-1.141 1.141-1.141zM17.018 12.199h4.675v-3.701h-4.675v3.701zM11.907 12.199h4.675v-3.701h-4.675v3.701zM21.471 17.112c-0.649 0-1.198 0.425-1.386 1.011h-0.012c-0.101-0.204-0.311-0.346-0.553-0.346h-5.442c-0.242 0-0.452 0.142-0.553 0.346h-0.012c-0.188-0.586-0.737-1.011-1.386-1.011-0.468 0-0.884 0.221-1.15 0.565-0.019-0.060-0.029-0.123-0.029-0.189v-2.547c0.092 0.298 0.371 0.516 0.698 0.516h1.623c0.402 0 0.73-0.329 0.73-0.73s-0.329-0.73-0.73-0.73h-2.224c-0.039 0-0.074 0.018-0.097 0.045v-5.54c-0.011-0.066-0.016-0.132-0.016-0.198 0-1.468 2.621-2.658 5.858-2.662v-0h0.019v0c3.237 0.005 5.858 1.195 5.858 2.662 0 0.067-0.006 0.133-0.016 0.198v5.54c-0.024-0.027-0.058-0.045-0.097-0.045h-2.224c-0.402 0-0.731 0.329-0.731 0.73s0.329 0.73 0.731 0.73h1.623c0.327 0 0.606-0.218 0.698-0.516v2.547c0 0.066-0.010 0.129-0.029 0.189-0.266-0.343-0.682-0.565-1.15-0.565zM21.512 17.569c0.63 0 1.141 0.511 1.141 1.141s-0.511 1.141-1.141 1.141c-0.63 0-1.141-0.511-1.141-1.141s0.511-1.141 1.141-1.141z"></path>
            <path d="M6.074 12.889c0-5.963 4.852-10.815 10.815-10.815s10.815 4.851 10.815 10.815c0 2.312-1.438 5.798-3.886 9.497-0.427-0.263-1.012-0.546-1.567-0.546-1.038 0-1.143 1.024-2.19 1.024s-2.086-1.023-3.129-1.023l-0.021-0.002c-1.043 0-2.099 1.024-3.147 1.024s-1.084-1.024-2.122-1.024c-0.567 0-1.156 0.295-1.576 0.563-2.546-3.771-3.992-7.194-3.992-9.514zM16.889 0c-7.107 0-12.889 5.782-12.889 12.889 0 4.318 3.74 9.903 5.348 12.103 0.524 0.718 5.188 7.008 7.541 7.008 3.293 0 12.889-12.284 12.889-19.111 0-7.107-5.782-12.889-12.889-12.889z"></path>
        </symbol>
        <symbol id="icon-Tracking-Pin-Ship" viewBox="0 0 32 32">
            <title>Tracking-Pin-Ship</title>
            <path d="M6.074 12.889c0-5.963 4.852-10.815 10.815-10.815s10.815 4.851 10.815 10.815c0 2.312-1.438 5.798-3.886 9.497-0.427-0.263-1.012-0.546-1.567-0.546-1.038 0-1.143 1.024-2.19 1.024s-2.086-1.023-3.129-1.023l-0.021-0.002c-1.043 0-2.099 1.024-3.147 1.024s-1.084-1.024-2.122-1.024c-0.567 0-1.156 0.295-1.576 0.563-2.546-3.771-3.992-7.194-3.992-9.514zM16.889-0c-7.107 0-12.889 5.782-12.889 12.889 0 4.318 3.74 9.903 5.348 12.103 0.524 0.718 5.188 7.008 7.541 7.008 3.293 0 12.889-12.284 12.889-19.111 0-7.107-5.782-12.889-12.889-12.889z"></path>
            <path fill="currentColor" d="M17.486 11.565c2.31 0.275 5.998 2.627 5.998 4.445l-1.49 4.796c-0.687 0.22-0.898 0.965-1.794 0.965-0.989 0-2.062-0.909-3.047-1.015l0.333-9.191zM10.498 16.010c0-1.818 3.689-4.17 5.998-4.445l0.333 9.191c-0.985 0.107-2.058 1.016-3.047 1.016-0.896 0-1.106-0.745-1.794-0.966l-1.49-4.796zM12.427 9.996h9.066c-0.008-0.018-0.016-0.036-0.025-0.053-0.441-0.936-0.764-0.917-3.138-0.917h-2.741c-2.374 0-2.696-0.019-3.138 0.917-0.008 0.018-0.016 0.036-0.025 0.053zM18.318 7.499h5.969l-0.53 1.709h-1.291l0.93 5.524c-0.695-0.948-1.887-2.263-3.134-2.981 1.5-0.064 1.791-0.293 1.515-1.089h-9.632c-0.267 0.768-0.005 1.008 1.363 1.082-1.415 0.806-2.594 2.318-3.115 3.425l1.091-5.961h-1.291l-0.53-1.709h5.969l0.904-3.454h0.879l0.905 3.454z"></path>
        </symbol>
        <symbol id="icon-Tracking-Pin-Truck" viewBox="0 0 32 32">
            <title>Tracking-Pin-Truck</title>
            <path fill="currentColor" d="M17.817 12.867l0.024-0.252c0.027-0.391 0.35-0.696 0.742-0.7h1.135c0.392 0.004 0.716 0.308 0.742 0.7l0.046 0.252h1.064c0.276 0.001 0.523 0.17 0.623 0.427h-0.009c-0.073-0.367-0.239-1.152-0.559-2.372-0.286-1.058-0.832-1.254-1.472-1.28h-0.427c-0.192 0-0.388 0-0.585 0h-4.467c-0.201 0-0.397 0-0.589 0h-0.427c-0.644 0-1.19 0.201-1.472 1.28-0.32 1.22-0.486 2.005-0.559 2.372 0.1-0.257 0.347-0.426 0.623-0.427h5.565zM19.155 11.915c-0.471 0-0.853-0.382-0.853-0.853s0.382-0.853 0.853-0.853c0.471 0 0.853 0.382 0.853 0.853s-0.382 0.853-0.853 0.853zM23.413 9.884h0.158c0.413 0.002 0.747 0.338 0.747 0.751v1.412c0 0.413-0.334 0.749-0.747 0.751h-0.090c-0.413-0.002-0.747-0.338-0.747-0.751v-0.96h-0.738l0.226 2.47v-0.030 4.907c0 0.368-0.297 0.668-0.666 0.67h0.725c0.156 0 0.282 0.126 0.282 0.282v1.045c0 0.156-0.126 0.282-0.282 0.282h-0.363v0.555c0 0.165-0.066 0.323-0.184 0.439s-0.278 0.179-0.443 0.175h-1.766c-0.338-0.002-0.61-0.277-0.61-0.614l-0.026-0.555h-3.972l-0.026 0.555c0 0.338-0.272 0.612-0.61 0.614h-1.749c-0.167 0.005-0.329-0.059-0.449-0.177s-0.185-0.279-0.183-0.446v-0.555h-0.363c-0.156 0-0.282-0.126-0.282-0.282v-1.041c0-0.156 0.126-0.282 0.282-0.282h0.708c-0.368-0.002-0.666-0.302-0.666-0.67v-4.885l0.226-2.47h-0.742v1.003c0 0.413-0.334 0.749-0.747 0.751h-0.090c-0.413-0.002-0.747-0.338-0.747-0.751v-1.399c0-0.413 0.334-0.749 0.747-0.751h0.23c0.097 0.014 0.189 0.048 0.273 0.098l1.161 0.427 0.192-2.133 0.137-2.261c0-0.368 0.297-0.668 0.666-0.67 0 0 2.074-0.179 4.028-0.179s4.028 0.179 4.028 0.179c0.352 0.002 0.643 0.276 0.666 0.627l0.137 2.261 0.192 2.133 1.161-0.427c0.084-0.050 0.176-0.084 0.273-0.098h0.043zM13.852 18.243v-0.132c0-0.328-0.265-0.595-0.593-0.597h-0.695c-0.328 0.002-0.593 0.269-0.593 0.597v0.132c0 0.328 0.265 0.595 0.593 0.597h0.695c0.328-0.002 0.593-0.269 0.593-0.597zM19.398 18.507c0.009-0.338 0.026-0.67 0.051-0.994h-5.094c0.034 0.327 0.051 0.659 0.051 0.994h4.992zM19.526 16.711h0.013c0.038-0.341 0.090-0.674 0.145-0.994h-5.547c0.055 0.32 0.107 0.653 0.145 0.994h5.244zM16.928 14.915h2.91c0.085-0.35 0.175-0.683 0.277-0.994h-6.409c0.102 0.311 0.196 0.644 0.277 0.994h2.944zM21.847 18.243l-0.013-0.132c0-0.328-0.265-0.595-0.593-0.597h-0.695c-0.328 0.002-0.593 0.269-0.593 0.597v0.132c0 0.328 0.265 0.595 0.593 0.597h0.708c0.328-0.002 0.593-0.269 0.593-0.597z"></path>
            <path d="M6.074 12.889c0-5.963 4.852-10.815 10.815-10.815s10.815 4.851 10.815 10.815c0 2.312-1.438 5.798-3.886 9.497-0.427-0.263-1.012-0.546-1.567-0.546-1.038 0-1.143 1.024-2.19 1.024s-2.086-1.023-3.129-1.023l-0.021-0.002c-1.043 0-2.099 1.024-3.147 1.024s-1.084-1.024-2.122-1.024c-0.567 0-1.156 0.295-1.576 0.563-2.546-3.771-3.992-7.194-3.992-9.514zM16.889 0c-7.107 0-12.889 5.782-12.889 12.889 0 4.318 3.74 9.903 5.348 12.103 0.524 0.718 5.188 7.008 7.541 7.008 3.293 0 12.889-12.284 12.889-19.111 0-7.107-5.782-12.889-12.889-12.889z"></path>
        </symbol>
        <symbol id="icon-Tracking-Preliminary-Booked" viewBox="0 0 32 32">
            <title>Tracking-Preliminary-Booked</title>
            <path d="M25.179 22.966h-6.624c0.266-0.678 0.122-1.449-0.371-1.985h6.309v-7.968c0.005-0.173 0.079-0.336 0.205-0.454s0.294-0.18 0.467-0.173l5.247 0.683c1.559 0.219 1.588 2.056 1.588 2.798h-5.292c0 0-0.319 0.011-0.319 0.256 0.001 0.241 0.021 0.482 0.059 0.72 0.040 0.347 0.317 0.619 0.664 0.653 0.497 0.119 4.847 0.957 4.847 0.957v3.737c0 0.36-0.256 0.776-0.627 0.776h-1.577v-0.779c0.033-0.808-0.379-1.57-1.074-1.984s-1.561-0.414-2.256 0c-0.695 0.414-1.107 1.176-1.074 1.984v0.779h-0.171zM27.513 20.554c0.947 0 1.715 0.768 1.715 1.715s-0.768 1.715-1.715 1.715c-0.947 0-1.715-0.768-1.715-1.715s0.768-1.715 1.715-1.715zM27.513 23.152v0.007c0.238 0 0.465-0.095 0.632-0.263s0.26-0.397 0.258-0.635c0-0.492-0.399-0.891-0.891-0.891s-0.891 0.399-0.891 0.891c0 0.492 0.399 0.891 0.891 0.891zM1 11.703h21.635c0.552 0 1 0.448 1 1v6.565c0 0.552-0.448 1-1 1h-21.635c-0.552 0-1-0.448-1-1v-6.565c0-0.552 0.448-1 1-1zM16.351 20.569c0.947 0 1.715 0.768 1.715 1.715s-0.768 1.715-1.715 1.715c-0.947 0-1.714-0.768-1.714-1.715s0.768-1.715 1.714-1.715zM16.351 23.167v0.007c0.238 0 0.465-0.095 0.632-0.263s0.26-0.397 0.258-0.635c0-0.36-0.217-0.685-0.55-0.823s-0.716-0.062-0.971 0.193c-0.255 0.255-0.331 0.638-0.193 0.971s0.463 0.55 0.823 0.55zM2.802 20.569c0.947 0 1.714 0.768 1.714 1.715s-0.768 1.715-1.715 1.715c-0.947 0-1.714-0.768-1.714-1.715s0.768-1.715 1.714-1.715zM2.802 23.167v0.007c0.237 0 0.465-0.095 0.632-0.263s0.26-0.397 0.258-0.635c0-0.36-0.217-0.685-0.55-0.823s-0.716-0.062-0.971 0.193c-0.255 0.255-0.331 0.638-0.193 0.971s0.463 0.55 0.823 0.55zM6.713 20.569c0.947 0 1.715 0.768 1.715 1.715s-0.768 1.715-1.715 1.715c-0.947 0-1.715-0.768-1.715-1.715s0.768-1.715 1.715-1.715zM6.713 23.167v0.007c0.237 0 0.465-0.095 0.632-0.263s0.26-0.397 0.258-0.635c0-0.36-0.217-0.685-0.55-0.823s-0.716-0.062-0.971 0.193c-0.255 0.255-0.331 0.638-0.193 0.971s0.463 0.55 0.823 0.55zM22.687 12.639h-21.751v6.783h21.751v-6.783z"></path>
            <path fill="currentColor" d="M15.648 13.83l-0.732-0.719-4.414 4.335-1.789-1.76-0.735 0.722 1.789 1.758 0.735 0.719 0.732-0.719z"></path>
        </symbol>
        <symbol id="icon-Tracking-Ship-Cancelled" viewBox="0 0 32 32">
            <title>Tracking-Ship-Cancelled</title>
            <path fill="currentColor" d="M20.312 8l-9.15 15.848h1.084l9.151-15.848z"></path>
            <path d="M10.47 11.369l1.822 4.555h-8.199v-4.555h0.682l0.596-1.822h1.598l1.016 1.822h2.486zM15.534 14.43l-0.847 1.466h-1.847v-1.466h2.694zM17.903 15.896l0.847-1.466h1.473v1.466h-2.319zM17.573 16.467l13.002-0.012-1.747 3.048c-0.087-0.003-0.174-0.005-0.261-0.005-2.672 0-2.681 1.605-5.378 1.605-2.473 0-4.926-1.343-7.387-1.567l1.771-3.068zM14.356 16.47l-2.002 3.468c-1.76 0.474-3.52 1.162-5.29 1.162-2.697 0-2.7-1.603-5.373-1.603-0.244 0-0.488 0.012-0.73 0.036-0.565-0.886-0.893-1.937-0.893-3.050l14.287-0.014zM0 15.896v-1.467h3.439v1.467h-3.439zM20.726 15.896v-1.466h3.439v1.466h-3.439zM24.407 13.001h6.195v3h-6.195v-3z"></path>
        </symbol>
        <symbol id="icon-Tracking-Truck-Missed-Ship" viewBox="0 0 32 32">
            <title>Tracking-Truck-Missed-Ship</title>
            <path fill="currentColor" d="M18.687 18.796l-1.816 1.816-0.707-0.707 1.816-1.816-1.816-1.816 0.707-0.707 1.816 1.816 1.816-1.816 0.707 0.707-1.816 1.816 1.816 1.816-0.707 0.707-1.816-1.816z"></path>
            <path d="M9.376 21.716h-5.345c0.066-0.171 0.104-0.356 0.104-0.55 0-0.4-0.157-0.765-0.411-1.040h5.096v-6.386c0-0.29 0.251-0.503 0.545-0.503l4.245 0.549c1.261 0.176 1.298 1.653 1.286 2.242h-4.285c0 0-0.257 0.010-0.257 0.206s0.017 0.366 0.049 0.575c0.032 0.21 0.135 0.43 0.537 0.524s3.924 0.765 3.924 0.765v2.996c0 0.291-0.213 0.623-0.507 0.623h-1.276v-0.623c0-0.987-0.788-1.786-1.784-1.786s-1.783 0.799-1.783 1.786v0.623h-0.138zM-4.471 21.875c0.405-0.002 0.731-0.328 0.728-0.728s-0.332-0.723-0.736-0.721c-0.404 0.002-0.73 0.328-0.728 0.728s0.332 0.723 0.736 0.721zM-4.482 19.759c0.776-0.004 1.41 0.616 1.413 1.384s-0.622 1.395-1.398 1.399c-0.777 0.004-1.41-0.616-1.414-1.384s0.622-1.395 1.399-1.399zM2.282 21.875c0.405-0.002 0.731-0.328 0.728-0.728s-0.332-0.723-0.736-0.721c-0.404 0.002-0.73 0.328-0.728 0.728s0.332 0.723 0.736 0.721zM2.271 19.759c0.776-0.004 1.41 0.616 1.413 1.384s-0.622 1.395-1.398 1.399c-0.777 0.004-1.41-0.616-1.414-1.384s0.622-1.395 1.399-1.399zM-7.829 21.893c0.405-0.002 0.731-0.328 0.728-0.728s-0.332-0.723-0.736-0.721c-0.404 0.002-0.73 0.328-0.728 0.728s0.332 0.723 0.736 0.721zM-7.84 19.777c0.776-0.004 1.41 0.616 1.413 1.384s-0.622 1.395-1.398 1.399c-0.777 0.004-1.41-0.616-1.414-1.384s0.622-1.395 1.399-1.399zM11.266 21.87c0.398 0 0.722-0.32 0.722-0.715s-0.323-0.714-0.722-0.714-0.722 0.32-0.722 0.714c0 0.395 0.323 0.715 0.722 0.715zM11.266 19.783c0.766 0 1.387 0.614 1.387 1.372s-0.621 1.373-1.387 1.373-1.387-0.614-1.387-1.373c0-0.758 0.621-1.372 1.387-1.372zM7.87 12.467c0.097 0 0.176 0.078 0.176 0.174v6.611c0 0.096-0.079 0.175-0.176 0.175l-17.224-0c-0.097 0-0.176-0.078-0.176-0.174v-0.524h16.88v-5.57h-16.88v-0.518c0-0.095 0.079-0.174 0.176-0.174h17.224zM-8.342 16.291h-1.996l1.236 1.243-0.706 0.678-2.353-2.366 2.359-2.316 0.698 0.685-1.127 1.106h1.888v-1.622h15.098v4.429h-15.098v-1.837zM27.294 15.497c1.598 0.191 4.151 1.818 4.151 3.076l-1.031 3.319c-0.476 0.152-0.621 0.668-1.242 0.668-0.684 0-1.427-0.629-2.109-0.703l0.231-6.361zM22.457 18.573c0-1.258 2.553-2.886 4.151-3.076l0.231 6.361c-0.682 0.074-1.424 0.703-2.109 0.703-0.62 0-0.766-0.516-1.241-0.668l-1.031-3.319zM23.792 14.411h6.274c-0.006-0.012-0.011-0.025-0.017-0.037-0.305-0.648-0.528-0.634-2.171-0.634h-1.897c-1.643 0-1.866-0.013-2.171 0.634-0.006 0.012-0.011 0.025-0.017 0.037zM27.869 12.683h4.131l-0.367 1.183h-0.893l0.643 3.823c-0.481-0.656-1.306-1.566-2.169-2.063 1.038-0.045 1.239-0.203 1.048-0.754h-6.666c-0.185 0.532-0.003 0.698 0.943 0.749-0.979 0.558-1.795 1.604-2.155 2.37l0.755-4.125h-0.893l-0.367-1.183h4.131l0.626-2.39h0.608l0.626 2.39z"></path>
        </symbol>
        <symbol id="icon-Tracking-Unit-Booked" viewBox="0 0 32 32">
            <title>Tracking-Unit-Booked</title>
            <path fill="currentColor" d="M24.964 23.356h-6.568c0.263-0.673 0.121-1.436-0.368-1.968h6.255v-7.899c0.005-0.171 0.078-0.333 0.203-0.45s0.292-0.179 0.463-0.172l5.203 0.677c1.545 0.217 1.575 2.038 1.575 2.774h-5.247c0 0-0.316 0.011-0.316 0.254 0.001 0.239 0.021 0.478 0.059 0.714 0.040 0.344 0.314 0.613 0.659 0.648 0.493 0.118 4.805 0.949 4.805 0.949v3.705c0 0.357-0.254 0.769-0.622 0.769h-1.564v-0.773c0.033-0.802-0.376-1.557-1.065-1.967s-1.548-0.411-2.237 0c-0.689 0.411-1.098 1.166-1.065 1.967v0.773h-0.169zM27.278 20.964c0.939 0 1.7 0.761 1.7 1.7s-0.761 1.7-1.7 1.7c-0.939 0-1.7-0.761-1.7-1.7s0.761-1.7 1.7-1.7zM16.211 20.979c0.939 0 1.7 0.761 1.7 1.7s-0.761 1.7-1.7 1.7c-0.939 0-1.7-0.761-1.7-1.7s0.761-1.7 1.7-1.7zM2.778 20.979c0.939 0 1.7 0.761 1.7 1.7s-0.761 1.7-1.7 1.7c-0.939 0-1.7-0.761-1.7-1.7s0.761-1.7 1.7-1.7zM6.656 20.979c0.939 0 1.7 0.761 1.7 1.7s-0.761 1.7-1.7 1.7c-0.939 0-1.7-0.761-1.7-1.7s0.761-1.7 1.7-1.7zM27.278 23.54v0.007c0.235 0 0.461-0.094 0.627-0.261s0.258-0.394 0.256-0.629c0-0.488-0.395-0.883-0.883-0.883s-0.883 0.395-0.883 0.883c0 0.488 0.395 0.883 0.883 0.883zM16.211 23.555v0.007c0.235 0 0.461-0.094 0.627-0.261s0.258-0.394 0.256-0.629c0-0.357-0.215-0.679-0.545-0.816s-0.71-0.061-0.962 0.191c-0.253 0.253-0.328 0.632-0.191 0.962s0.459 0.545 0.816 0.545zM2.778 23.555v0.007c0.235 0 0.461-0.094 0.627-0.261s0.258-0.394 0.256-0.629c0-0.357-0.215-0.679-0.545-0.816s-0.71-0.061-0.962 0.191c-0.253 0.253-0.328 0.632-0.191 0.962s0.459 0.545 0.816 0.545zM6.656 23.555v0.007c0.235 0 0.461-0.094 0.627-0.261s0.258-0.394 0.256-0.629c0-0.357-0.215-0.679-0.545-0.816s-0.71-0.061-0.962 0.191c-0.253 0.253-0.328 0.632-0.191 0.962s0.459 0.545 0.816 0.545z"></path>
            <path d="M1 12.189h21.433c0.552 0 1 0.448 1 1v6.492c0 0.552-0.448 1-1 1h-21.433c-0.552 0-1-0.448-1-1v-6.492c0-0.552 0.448-1 1-1zM15.464 14.291l-0.724-0.711-4.362 4.284-1.768-1.739-0.726 0.714 1.768 1.737 0.726 0.711 5.086-4.995z"></path>
        </symbol>
        <symbol id="icon-Tracking-Unloaded-from-Vessel" viewBox="0 0 32 32">
            <title>Tracking-Unloaded-from-Vessel</title>
            <path d="M27.034 19.9h0.731v2.541h-0.731v-2.541zM11.136 15.074l2.015 2.031-2.011 2.075-0.604-0.595 1.057-1.089h-1.729v-0.849h1.638l-0.963-0.969 0.598-0.602zM4.569 16.567c1.333 0.171 3.461 1.633 3.468 2.76l-0.86 2.987c-0.397 0.133-0.518 0.597-1.035 0.597-0.571 0-1.191-0.566-1.758-0.631l0.185-5.714zM0.731 19.327c0-1.129 2.129-2.591 3.468-2.76l0.185 5.714c-0.569 0.066-1.188 0.631-1.759 0.631-0.517 0-0.638-0.462-1.035-0.597l-0.859-2.987zM5.185 14.173h3.583l-0.319 1.033h-0.768l0.553 3.329c-0.417-0.573-1.133-1.366-1.88-1.799 0.908-0.039 1.073-0.178 0.908-0.658h-5.776c-0.159 0.458-0.004 0.609 0.818 0.652-0.803 0.502-1.45 1.221-1.866 2.076l0.649-3.6h-0.768l-0.319-1.033h3.577l0.543-2.085h0.526l0.538 2.085zM16.364 19.94c0.721 0 1.305 0.56 1.305 1.251s-0.584 1.251-1.305 1.251c-0.721 0-1.305-0.56-1.305-1.251s0.584-1.251 1.305-1.251zM19.341 19.94c0.721 0 1.305 0.56 1.305 1.251s-0.584 1.251-1.305 1.251c-0.721 0-1.305-0.56-1.305-1.251s0.584-1.251 1.305-1.251zM1.461 15.82h5.845l-0.017-0.042c-0.285-0.719-0.493-0.705-2.023-0.705h-1.765c-1.532 0-1.738-0.015-2.023 0.705l-0.017 0.042zM16.364 21.835v0.005c0.181 0 0.354-0.069 0.481-0.192s0.198-0.29 0.197-0.463c0-0.263-0.165-0.5-0.419-0.6s-0.545-0.045-0.739 0.141c-0.194 0.186-0.252 0.465-0.147 0.708s0.352 0.401 0.626 0.401zM19.341 21.835v0.005c0.181 0 0.354-0.069 0.481-0.192s0.198-0.29 0.197-0.463c0-0.263-0.165-0.5-0.419-0.6s-0.545-0.045-0.739 0.141c-0.194 0.186-0.252 0.465-0.147 0.708s0.352 0.401 0.626 0.401z"></path>
            <path fill="currentColor" d="M15.118 13.029h15.882c0.552 0 1 0.448 1 1v4.588c0 0.552-0.448 1-1 1h-15.882c-0.552 0-1-0.448-1-1v-4.588c0-0.552 0.448-1 1-1z"></path>
        </symbol>
        <symbol id="icon-Truck-Front" viewBox="0 0 32 32">
            <title>Truck-Front</title>
            <path fill="currentColor" d="M20.637 12.487c0.896 0 1.623-0.726 1.623-1.623s-0.726-1.623-1.623-1.623c-0.896 0-1.623 0.726-1.623 1.623s0.727 1.623 1.623 1.623zM23.431 15.94l-0.278-1.534-0.001-0.004c-0.017-0.26-0.104-0.501-0.243-0.705-0.258-0.382-0.695-0.634-1.188-0.634h-2.189c-0.758 0-1.383 0.595-1.431 1.341l-0.174 1.779z"></path>
            <path d="M26.459 15.557c-0.183-0.486-0.653-0.835-1.201-0.835h-17.923c-0.548 0-1.019 0.348-1.201 0.835 0.141-0.706 0.464-2.202 1.078-4.54 0.543-2.063 1.597-2.436 2.832-2.484h0.811c0.37 0.008 0.75 0.019 1.13 0h8.623c0.381 0.019 0.76 0.008 1.13 0h0.811c1.235 0.048 2.289 0.421 2.832 2.484 0.615 2.337 0.937 3.834 1.078 4.54zM25.796 25.028c0 0.627-0.513 1.14-1.14 1.14h-1.34c-0.627 0-1.14-0.513-1.14-1.14v-0.254c0-0.627 0.513-1.14 1.14-1.14h1.34c0.627 0 1.14 0.513 1.14 1.14v0.254zM16.316 18.659h-5.674c-0.158-0.668-0.336-1.303-0.531-1.901h12.372c-0.195 0.598-0.373 1.233-0.531 1.901h-5.636zM21.349 22.099h-10.106c-0.078-0.653-0.172-1.288-0.282-1.901h10.67c-0.11 0.613-0.204 1.248-0.282 1.901zM21.105 25.538h-9.618c-0.016-0.645-0.048-1.279-0.095-1.901h9.808c-0.047 0.621-0.079 1.256-0.095 1.901zM10.417 25.028c0 0.627-0.513 1.14-1.14 1.14h-1.34c-0.627 0-1.14-0.513-1.14-1.14v-0.254c0-0.627 0.513-1.14 1.14-1.14h1.34c0.627 0 1.14 0.513 1.14 1.14v0.254zM28.977 9.033c-0.048 0-0.096 0.003-0.143 0.007l0.006-0.020-0.080 0.029c-0.189 0.029-0.366 0.095-0.524 0.19l-2.237 0.813-0.374-4.053-0.266-4.328c0-0.706-0.577-1.283-1.283-1.283 0 0-3.994-0.339-7.761-0.341h-0.037c-3.767 0.002-7.761 0.341-7.761 0.341-0.706 0-1.283 0.577-1.283 1.283l-0.26 4.33-0.38 4.051-2.237-0.813c-0.158-0.095-0.335-0.161-0.524-0.19l-0.080-0.029 0.006 0.020c-0.047-0.005-0.095-0.007-0.143-0.007h-0.175c-0.792 0-1.44 0.648-1.44 1.44v2.676c0 0.792 0.648 1.44 1.44 1.44h0.175c0.792 0 1.44-0.648 1.44-1.44v-1.84h1.422l-0.436 4.724c0 0 0.003-0.019 0.010-0.056-0 0.009-0.001 0.018-0.001 0.027v9.382c0 0.706 0.577 1.283 1.283 1.283h-1.373c-0.299 0-0.543 0.244-0.543 0.543v1.991c0 0.299 0.244 0.543 0.543 0.543h0.701v1.064c0 0.647 0.529 1.177 1.177 1.177h3.405c0.647 0 1.177-0.53 1.177-1.177l0.049-1.064h7.653l0.049 1.064c0 0.647 0.529 1.177 1.177 1.177h3.405c0.647 0 1.177-0.53 1.177-1.177v-1.064h0.701c0.299 0 0.543-0.244 0.543-0.543v-1.991c0-0.299-0.244-0.543-0.543-0.543h-1.373c0.706 0 1.283-0.577 1.283-1.283v-9.382c0-0.009-0-0.018-0.001-0.027 0.007 0.037 0.010 0.056 0.010 0.056l-0.436-4.724h1.422v1.84c0 0.792 0.648 1.44 1.44 1.44h0.175c0.792 0 1.44-0.648 1.44-1.44v-2.676c0-0.792-0.648-1.44-1.44-1.44h-0.175z"></path>
        </symbol>
        <symbol id="icon-Truck-L-121m-19m" viewBox="0 0 32 32">
            <title>Truck-L-121m-19m</title>
            <path d="M5.623 19.431c0.662 0 1.198 0.537 1.198 1.198s-0.537 1.198-1.198 1.198c-0.662 0-1.198-0.537-1.198-1.198s0.537-1.198 1.198-1.198zM5.623 21.266v0.001c0.167 0 0.326-0.066 0.444-0.184s0.184-0.278 0.183-0.445v-0.005c-0.001-0.255-0.155-0.484-0.391-0.581s-0.507-0.042-0.686 0.139c-0.18 0.181-0.232 0.452-0.134 0.687s0.329 0.388 0.584 0.387zM8.51 19.431c0.662 0 1.198 0.537 1.198 1.198s-0.537 1.198-1.198 1.198c-0.662 0-1.198-0.537-1.198-1.198s0.537-1.198 1.198-1.198zM8.51 21.266v0.001c0.167 0 0.326-0.066 0.444-0.184s0.184-0.278 0.183-0.445v-0.005c-0.001-0.255-0.155-0.484-0.391-0.581s-0.507-0.042-0.686 0.139c-0.18 0.181-0.232 0.452-0.134 0.687s0.329 0.388 0.584 0.387zM2.742 19.431c0.662 0 1.198 0.537 1.198 1.198s-0.537 1.198-1.198 1.198c-0.662 0-1.198-0.537-1.198-1.198s0.537-1.198 1.198-1.198zM2.742 21.266l0.007 0.001c0.167 0 0.326-0.066 0.444-0.184s0.184-0.278 0.183-0.445c0.001-0.348-0.279-0.631-0.627-0.633s-0.631 0.278-0.633 0.626c-0.002 0.348 0.278 0.631 0.625 0.634zM28.735 19.423c0.662 0 1.198 0.537 1.198 1.198s-0.537 1.198-1.198 1.198c-0.662 0-1.198-0.537-1.198-1.198s0.537-1.198 1.198-1.198zM28.735 21.259v-0.001c0.166 0 0.326-0.066 0.444-0.184s0.184-0.277 0.184-0.444v-0.004c-0.001-0.255-0.155-0.484-0.391-0.581s-0.507-0.042-0.686 0.139c-0.18 0.181-0.232 0.452-0.134 0.687s0.329 0.388 0.584 0.387zM20.863 19.431c0.662 0 1.198 0.537 1.198 1.198s-0.537 1.198-1.198 1.198c-0.662 0-1.198-0.537-1.198-1.198s0.537-1.198 1.198-1.198zM20.863 21.266v0.001c0.167 0 0.326-0.066 0.444-0.184s0.184-0.278 0.183-0.445v-0.005c-0.001-0.255-0.155-0.484-0.391-0.581s-0.507-0.042-0.686 0.139c-0.18 0.181-0.232 0.452-0.134 0.687s0.329 0.388 0.584 0.387zM28.164 16.117c0 0-0.225 0.010-0.217 0.181-0 0.17 0.014 0.34 0.043 0.508 0.028 0.244 0.223 0.435 0.467 0.459 0.348 0.084 3.417 0.675 3.417 0.675v2.635c0 0.256-0.188 0.549-0.443 0.549h-1.112v-0.58c-0.009-0.86-0.713-1.55-1.573-1.541s-1.55 0.713-1.541 1.573v0.549h-4.774c0.185-0.479 0.081-1.022-0.268-1.399h4.434v-5.619c-0-0.001-0-0.002 0-0.003 0.006-0.122 0.059-0.236 0.149-0.318s0.209-0.124 0.331-0.118l3.697 0.479c1.097 0.153 1.119 1.454 1.119 1.971h-3.73zM25.86 13.082c0.073 0 0.13 0.068 0.13 0.151v5.749c0 0.083-0.058 0.151-0.13 0.151h-25.716c-0.072 0-0.13-0.068-0.13-0.151v-5.749c0-0.083 0.058-0.151 0.13-0.151h25.716z"></path>
        </symbol>
        <symbol id="icon-Truck-M-81-12m" viewBox="0 0 32 32">
            <title>Truck-M-81-12m</title>
            <path d="M7.703 21.097c0.449 0.015 0.836-0.315 0.893-0.76s-0.234-0.862-0.673-0.961c-0.438-0.099-0.88 0.152-1.020 0.579s0.068 0.89 0.48 1.070c0.102 0.042 0.21 0.064 0.32 0.065v0.007zM7.719 18.605c0.91-0.002 1.648 0.735 1.65 1.644s-0.735 1.648-1.644 1.65c-0.91 0.002-1.648-0.735-1.65-1.644v-0.005c0-0.908 0.736-1.644 1.644-1.644zM16.949 18.59c0.91-0.002 1.648 0.735 1.65 1.644s-0.735 1.648-1.644 1.65c-0.91 0.002-1.648-0.735-1.65-1.644v-0.005c0.001-0.904 0.732-1.639 1.636-1.644h0.008zM27.677 18.59c0.902 0.005 1.631 0.738 1.628 1.641s-0.734 1.633-1.637 1.633c-0.902 0-1.634-0.73-1.637-1.633s0.726-1.636 1.628-1.641h0.016zM25.438 20.931h-6.45c0.26-0.661 0.12-1.412-0.361-1.934h6.145v-7.61c0.005-0.165 0.077-0.322 0.198-0.435s0.282-0.173 0.447-0.166l5.031 0.654c1.493 0.208 1.523 1.968 1.523 2.67h-5.061c0 0-0.305 0-0.305 0.246-0.006 0.229 0.006 0.459 0.037 0.686 0.043 0.332 0.311 0.589 0.645 0.617 0.478 0.115 4.646 0.918 4.646 0.918v3.578c0 0.344-0.246 0.742-0.601 0.742h-1.503v-0.739c0.042-1.167-0.857-2.16-2.023-2.219-0.597-0.031-1.18 0.193-1.603 0.616s-0.647 1.006-0.616 1.603v0.773h-0.149zM4.016 18.582c0.91-0.002 1.648 0.735 1.65 1.644s-0.735 1.648-1.644 1.65c-0.91 0.002-1.648-0.735-1.65-1.644v-0.005c0-0.908 0.736-1.644 1.644-1.644zM16.962 21.101c0.476-0.002 0.86-0.389 0.859-0.865s-0.387-0.861-0.863-0.861c-0.476 0-0.862 0.385-0.863 0.861s0.383 0.863 0.859 0.865h0.008zM0.195 10.106h23.55c0.046-0.001 0.091 0.016 0.124 0.048s0.053 0.076 0.054 0.122v7.874c-0.001 0.046-0.020 0.090-0.054 0.122s-0.078 0.049-0.124 0.048h-23.567c-0.046 0.001-0.091-0.016-0.124-0.048s-0.053-0.076-0.054-0.122v-7.875c0.001-0.046 0.020-0.090 0.054-0.122s0.078-0.049 0.124-0.048h0.017v0.001zM27.661 21.084c0.474 0.003 0.861-0.379 0.864-0.853s-0.379-0.861-0.853-0.864c-0.474-0.003-0.861 0.379-0.864 0.853v0.014c-0.002 0.466 0.37 0.848 0.836 0.858l0.017-0.008zM4 21.075c0.449 0.015 0.836-0.315 0.893-0.76s-0.234-0.862-0.673-0.961c-0.438-0.099-0.88 0.152-1.020 0.579s0.068 0.89 0.48 1.070c0.102 0.042 0.21 0.064 0.32 0.064v0.008z"></path>
        </symbol>
        <symbol id="icon-Truck-S-8m" viewBox="0 0 32 32">
            <title>Truck-S-8m</title>
            <path d="M2.034 21.862c0.516 0.017 0.961-0.362 1.026-0.875s-0.269-0.991-0.773-1.105c-0.504-0.114-1.012 0.174-1.173 0.665s0.078 1.024 0.551 1.231c0.117 0.048 0.242 0.073 0.368 0.074v0.009zM2.051 18.996c1.046-0.002 1.896 0.845 1.897 1.891s-0.845 1.896-1.891 1.897c-1.046 0.002-1.896-0.845-1.897-1.891v-0.006c0-1.044 0.847-1.891 1.891-1.891zM0.217 9.222h22.485c0.094 0 0.17 0.087 0.17 0.195v9.055c0 0.107-0.078 0.195-0.17 0.195h-22.503c-0.094 0-0.17-0.087-0.17-0.195v-9.056c0-0.107 0.078-0.195 0.17-0.195h0.016l0.001 0.001zM27.016 21.847c0.545 0.003 0.99-0.436 0.994-0.981s-0.436-0.99-0.981-0.994c-0.545-0.003-0.99 0.436-0.994 0.981v0.016c-0.002 0.536 0.426 0.975 0.962 0.987l0.019-0.009zM27.035 18.978c1.038 0.005 1.875 0.849 1.873 1.887s-0.845 1.877-1.882 1.877c-1.038 0-1.88-0.84-1.882-1.877s0.835-1.882 1.873-1.887h0.019zM24.459 21.671h-20.043c0.299-0.76 0.138-1.624-0.416-2.224h19.692v-8.751c0.006-0.19 0.088-0.37 0.227-0.5 0.138-0.13 0.323-0.199 0.513-0.19l5.785 0.752c1.717 0.24 1.751 2.263 1.751 3.070h-5.819c0 0-0.351 0-0.351 0.283-0.007 0.264 0.007 0.528 0.043 0.789 0.049 0.382 0.358 0.677 0.741 0.709 0.55 0.132 5.343 1.056 5.343 1.056v4.114c0 0.396-0.283 0.853-0.692 0.853h-1.728v-0.85c0.048-1.342-0.985-2.484-2.327-2.551-0.687-0.036-1.357 0.222-1.843 0.708s-0.744 1.156-0.708 1.843v0.889h-0.169z"></path>
        </symbol>
        <symbol id="icon-Warehouse-High-Value" viewBox="0 0 32 32">
            <title>Warehouse-High-Value</title>
            <path d="M2.792 22.631h5.278v2.578h-6.199l0.921-2.578zM8.445 25.209v-2.578h7.137v2.578h-7.137zM15.963 25.209v-2.578h7.137v2.578h-7.137zM23.476 22.631h5.299l0.921 2.578h-6.22v-2.578zM8.445 22.25v-2.579h7.137v2.579h-7.137zM15.963 22.25v-2.579h7.137v2.579h-7.137zM23.476 19.672h4.243l0.921 2.579h-5.164v-2.579zM23.476 16.722h3.19l0.921 2.579h-4.11v-2.579zM15.768 6l15.772 3.376v15.838h-1.404l-3.201-8.873h-22.33l-3.2 8.873h-1.405v-15.838l15.768-3.376z"></path>
            <path fill="currentColor" d="M17.346 10.827h-3.15v-0.505c0-0.869 0.706-1.575 1.575-1.575s1.575 0.706 1.575 1.575v0.505zM16.086 12.945v0.678c0 0.174-0.141 0.315-0.315 0.315s-0.315-0.141-0.315-0.315v-0.678c-0.187-0.109-0.315-0.31-0.315-0.543 0-0.348 0.282-0.63 0.63-0.63s0.63 0.282 0.63 0.63c0 0.233-0.128 0.434-0.315 0.543zM17.975 10.827v-0.505c0-1.216-0.989-2.205-2.205-2.205s-2.205 0.989-2.205 2.205v0.505c-0.173 0-0.315 0.142-0.315 0.315v3.15c0 0.173 0.142 0.315 0.315 0.315h4.41c0.173 0 0.315-0.142 0.315-0.315v-3.15c0-0.173-0.142-0.315-0.315-0.315z"></path>
        </symbol>
        <symbol id="icon-Warehouse-Reefer" viewBox="0 0 32 32">
            <title>Warehouse-Reefer</title>
            <path d="M2.792 22.631h5.278v2.578h-6.199l0.921-2.578zM8.445 25.209v-2.578h7.137v2.578h-7.137zM15.963 25.209v-2.578h7.137v2.578h-7.137zM23.476 22.631h5.299l0.921 2.578h-6.22v-2.578zM8.445 22.25v-2.579h7.137v2.579h-7.137zM15.963 22.25v-2.579h7.137v2.579h-7.137zM23.476 19.672h4.243l0.921 2.579h-5.164v-2.579zM23.476 16.722h3.19l0.921 2.579h-4.11v-2.579zM15.768 6l15.772 3.376v15.838h-1.404l-3.201-8.873h-22.33l-3.2 8.873h-1.405v-15.838l15.768-3.376z"></path>
            <path fill="currentColor" d="M19.477 10.803h-0.346l0.191-0.331c0.119-0.207 0.049-0.471-0.159-0.59s-0.47-0.049-0.59 0.158l-0.441 0.763h-1.613l0.806-1.398h0.881c0.238 0 0.432-0.193 0.432-0.432s-0.193-0.432-0.432-0.432h-0.382l0.174-0.3c0.119-0.207 0.048-0.471-0.159-0.59s-0.471-0.048-0.59 0.158l-0.173 0.3-0.191-0.33c-0.12-0.207-0.384-0.278-0.59-0.159s-0.278 0.384-0.159 0.59l0.441 0.763-0.807 1.397-0.807-1.397 0.441-0.763c0.119-0.207 0.048-0.471-0.158-0.59s-0.471-0.048-0.59 0.159l-0.191 0.33-0.173-0.3c-0.119-0.206-0.384-0.278-0.59-0.158s-0.277 0.384-0.158 0.59l0.173 0.3h-0.382c-0.238 0-0.432 0.194-0.432 0.432s0.193 0.432 0.432 0.432h0.881l0.807 1.398h-1.614l-0.441-0.763c-0.119-0.206-0.384-0.278-0.59-0.158s-0.277 0.384-0.158 0.59l0.191 0.331h-0.346c-0.239 0-0.432 0.193-0.432 0.432s0.193 0.432 0.432 0.432h0.346l-0.191 0.331c-0.12 0.207-0.049 0.471 0.158 0.59 0.068 0.039 0.143 0.058 0.216 0.058 0.149 0 0.294-0.077 0.375-0.216l0.441-0.763h1.614l-0.807 1.397h-0.881c-0.238 0-0.432 0.194-0.432 0.432s0.193 0.432 0.432 0.432h0.382l-0.173 0.3c-0.119 0.207-0.048 0.471 0.158 0.59 0.068 0.039 0.142 0.058 0.216 0.058 0.149 0 0.294-0.077 0.375-0.216l0.173-0.301 0.191 0.331c0.080 0.139 0.225 0.216 0.375 0.216 0.073 0 0.147-0.019 0.216-0.058 0.206-0.119 0.277-0.384 0.158-0.59l-0.441-0.763 0.807-1.397 0.807 1.397-0.441 0.763c-0.119 0.207-0.049 0.471 0.159 0.59 0.068 0.039 0.142 0.058 0.215 0.058 0.149 0 0.294-0.077 0.375-0.216l0.191-0.331 0.173 0.3c0.080 0.139 0.225 0.216 0.375 0.216 0.073 0 0.147-0.019 0.216-0.058 0.207-0.12 0.277-0.384 0.159-0.59l-0.174-0.3h0.382c0.238 0 0.432-0.193 0.432-0.432s-0.193-0.432-0.432-0.432h-0.881l-0.806-1.397h1.614l0.44 0.763c0.080 0.139 0.225 0.216 0.374 0.216 0.074 0 0.148-0.019 0.216-0.058 0.207-0.12 0.278-0.384 0.159-0.59l-0.191-0.331h0.346c0.239 0 0.432-0.193 0.432-0.432s-0.193-0.432-0.432-0.432z"></path>
        </symbol>
        <symbol id="icon-Warehouse" viewBox="0 0 32 32">
            <title>Warehouse</title>
            <path fill="currentColor" d="M1 25.487v-2.578h7.135v2.578h-7.135zM8.515 25.487v-2.578h7.135v2.578h-7.135zM16.030 25.487v-2.578h7.135v2.578h-7.135zM23.546 25.487v-2.578h7.135v2.578h-7.135zM8.515 22.53v-2.578h7.135v2.578h-7.135zM16.030 22.53v-2.578h7.135v2.578h-7.135zM23.546 22.53v-2.578h7.135v2.578h-7.135zM23.546 19.578v-2.578h7.135v2.578h-7.135z"></path>
            <path d="M16 6l-16 3.424v16.070h1.424l3.25-13.512h22.651l3.251 13.512h1.424v-16.070z"></path>
        </symbol>
        <symbol id="icon-Weight-KG" viewBox="0 0 32 32">
            <title>Weight-KG</title>
            <path d="M28.9 25.040c0.54 3.72-1.060 6.4-6.38 6.4h-13.86c-5.34 0-7.46-2.68-6.4-6.4l2.68-10.66c0.311-1.691 1.255-3.2 2.64-4.22v-2.16c0-4.418 3.582-8 8-8s8 3.582 8 8v2.14c1.397 1.021 2.349 2.538 2.66 4.24l2.66 10.66zM9.72 8l0.020 0.86c1.167-0.542 2.434-0.835 3.72-0.86h4.26c1.286 0.025 2.553 0.318 3.72 0.86v-0.86c0-3.236-2.624-5.86-5.86-5.86s-5.86 2.624-5.86 5.86zM16.24 24.26c-0.022-0.094-0.063-0.183-0.12-0.26l-3.46-5.14 3.16-4.62c0.064-0.081 0.106-0.178 0.12-0.28 0-0.16-0.060-0.16-0.22-0.16h-2c-0.065-0.020-0.135-0.020-0.2 0l-0.16 0.2-2.56 3.9h-0.92v-3.9c0.016-0.067-0.005-0.138-0.053-0.187s-0.119-0.069-0.187-0.053h-1.82c-0.067-0.016-0.138 0.005-0.187 0.053s-0.069 0.119-0.053 0.187v10.16c-0.016 0.067 0.005 0.138 0.053 0.187s0.119 0.069 0.187 0.053h1.82c0.067 0.016 0.138-0.005 0.187-0.053s0.069-0.119 0.053-0.187v-4.16h0.9l2.68 4.22 0.16 0.2c0.065 0.020 0.135 0.020 0.2 0h2.2c0.22 0 0.22-0.060 0.22-0.16zM17.64 23.060c-0.001 0.347 0.128 0.682 0.36 0.94-0.35 0.045-0.674 0.207-0.92 0.46-0.223 0.299-0.336 0.667-0.32 1.040v0.22c-0.031 0.579 0.154 1.15 0.52 1.6 0.508 0.453 1.183 0.67 1.86 0.6h2.48c0.664 0.042 1.32-0.165 1.84-0.58 0.459-0.457 0.693-1.094 0.64-1.74v-0.42c0.033-0.471-0.101-0.939-0.38-1.32-0.379-0.348-0.852-0.577-1.36-0.66l-2.18-0.5c-0.168-0.019-0.324-0.097-0.44-0.22-0.079-0.147-0.114-0.314-0.1-0.48v-0.22h1.4c0.628 0.049 1.25-0.144 1.74-0.54 0.413-0.465 0.615-1.080 0.56-1.7v-0.32c0.024-0.139 0.024-0.281 0-0.42l-0.36-0.94h0.62c0.064 0.027 0.136 0.027 0.2 0 0.023-0.065 0.023-0.135 0-0.2v-1.12c0.020-0.065 0.020-0.135 0-0.2-0.064-0.027-0.136-0.027-0.2 0h-4.42c-0.632-0.055-1.259 0.147-1.74 0.56-0.413 0.481-0.615 1.108-0.56 1.74v0.94c-0.025 0.474 0.064 0.948 0.26 1.38 0.184 0.333 0.494 0.578 0.86 0.68l-0.36 0.52c-0.033 0.138-0.033 0.282 0 0.42v0.48zM19.020 26.12c-0.076-0.126-0.11-0.273-0.1-0.42v-0.26c-0.037-0.314 0.065-0.628 0.28-0.86l2 0.46 0.54 0.16c0.093 0.031 0.171 0.095 0.22 0.18 0.022 0.099 0.022 0.201 0 0.3 0.017 0.169-0.042 0.338-0.16 0.46-0.151 0.107-0.336 0.157-0.52 0.14h-1.7c-0.2 0.019-0.4-0.038-0.56-0.16zM19.020 20.12l0.040-0.12c-0.131-0.178-0.188-0.4-0.16-0.62v-0.62c-0.023-0.213 0.034-0.427 0.16-0.6 0.173-0.126 0.387-0.183 0.6-0.16h1c0.208-0 0.408 0.078 0.56 0.22 0.116 0.177 0.165 0.39 0.14 0.6v0.76c0.028 0.204-0.022 0.411-0.14 0.58-0.18 0.107-0.392 0.15-0.6 0.12h-1c-0.213 0.023-0.427-0.034-0.6-0.16z"></path>
        </symbol>
    </defs>
</svg>
