<svg version="1.1" 
  xmlns="http://www.w3.org/2000/svg" 
  xmlns:xlink="http://www.w3.org/1999/xlink" style="position:absolute;height:0;width:0">
  <defs>
    <symbol id="icon-Account-Signed-In" width="32" height="32" viewBox="0 0 32 32" x="0" y="0">
      <path fill="#000" d="M19.394 27.743c-2.12 0.57-4.361 0.863-6.573 0.863-0.072 0-0.144-0.001-0.215-0.002-0.072 0.001-0.144 0.002-0.215 0.002-4.412 0-8.936-1.167-12.392-3.364l0.087-0.877c0.085-1.275 0.518-2.459 1.204-3.463 1.282-1.874 3.45-3.112 5.896-3.112h1.393l0.374 0.003c0.453 0 0.793 0.086 1.020 0.262 0.227 0.174 0.465 0.485 0.718 0.934l1.939 3.291 1.889-3.291c0.253-0.449 0.491-0.76 0.718-0.934 0.227-0.176 0.567-0.262 1.020-0.262l0.374-0.003h1.393c0.468 0 0.926 0.045 1.369 0.132v9.821zM12.606 16.829c-3.749 0-6.788-3.007-6.788-6.717s3.038-6.718 6.788-6.718c3.748 0 6.788 3.007 6.788 6.718s-3.039 6.717-6.788 6.717z"></path>
      <path fill="#8c8c8c" d="M30.667 15.18h-2c0-1.112-0.895-2.014-2-2.014s-2 0.902-2 2.014v3.357h7.333v10.070h-10.667v-10.070h1.333v-3.357c0-2.225 1.791-4.028 4-4.028s4 1.803 4 4.028z"></path>
    </symbol>
    <symbol id="icon-Account-Signed-Out" width="32" height="32" viewBox="0 0 32 32" x="48" y="0">
      <path fill="#8c8c8c" d="M22.667 18.537v-3.357c0-2.225 1.791-4.028 4-4.028s4 1.803 4 4.028v3.357h1.333v10.070h-10.667v-10.070h1.333zM24.534 18.339h4.267v-3.209c0-1.063-0.955-1.925-2.133-1.925s-2.133 0.862-2.133 1.925v3.209z"></path>
      <path fill="#000" d="M19.394 27.743c-2.12 0.57-4.361 0.863-6.573 0.863-0.072 0-0.144-0.001-0.215-0.002-0.072 0.001-0.144 0.002-0.215 0.002-4.412 0-8.936-1.167-12.392-3.364l0.087-0.877c0.085-1.275 0.518-2.459 1.204-3.463 1.282-1.874 3.45-3.112 5.896-3.112h1.393l0.374 0.003c0.453 0 0.793 0.086 1.020 0.262 0.227 0.174 0.465 0.485 0.718 0.934l1.939 3.291 1.889-3.291c0.253-0.449 0.491-0.76 0.718-0.934 0.227-0.176 0.567-0.262 1.020-0.262l0.374-0.003h1.393c0.468 0 0.926 0.045 1.369 0.132v9.821zM12.606 16.829c-3.749 0-6.788-3.007-6.788-6.717s3.038-6.718 6.788-6.718c3.748 0 6.788 3.007 6.788 6.718s-3.039 6.717-6.788 6.717z"></path>
    </symbol>
    <symbol id="icon-Burger-Menu" width="32" height="32" viewBox="0 0 32 32" x="96" y="0">
      <path fill="#000" d="M1.846 23.692h28.308c1.020 0 1.846 0.827 1.846 1.846s-0.827 1.846-1.846 1.846h-28.308c-1.020 0-1.846-0.827-1.846-1.846s0.827-1.846 1.846-1.846zM1.846 13.846h28.308c1.020 0 1.846 0.827 1.846 1.846s-0.827 1.846-1.846 1.846h-28.308c-1.020 0-1.846-0.827-1.846-1.846s0.827-1.846 1.846-1.846zM1.846 4h28.308c1.020 0 1.846 0.827 1.846 1.846s-0.827 1.846-1.846 1.846h-28.308c-1.020 0-1.846-0.827-1.846-1.846s0.827-1.846 1.846-1.846z"></path>
    </symbol>
    <symbol id="icon-Loading-Spinner" width="32" height="32" viewBox="0 0 32 32" x="144" y="0">
      <path fill="#000" opacity="0.7" d="M16.727 0v6.1c2.044 0.171 3.981 1.012 5.527 2.4l4.17-4.3c-2.66-2.522-6.089-4.007-9.697-4.2z"></path>
      <path fill="#000" opacity="0.1" d="M23.321 22.5l4.17 4.3c2.445-2.743 3.886-6.279 4.073-10h-6.012c-0.138 2.096-0.919 4.092-2.23 5.7z"></path>
      <path fill="#000" opacity="0.6" d="M9.649 8.4c1.573-1.408 3.547-2.25 5.624-2.4v-6c-3.608 0.193-7.037 1.678-9.697 4.2l4.073 4.2z"></path>
      <path fill="#000" opacity="0.5" d="M8.582 9.5l-4.073-4.3c-2.445 2.743-3.886 6.279-4.073 10h5.915c0.138-2.096 0.919-4.092 2.23-5.7z"></path>
      <path fill="#000" opacity="0.2" d="M22.255 23.6c-1.547 1.388-3.484 2.229-5.527 2.4v6c3.608-0.193 7.037-1.678 9.697-4.2l-4.17-4.2z"></path>
      <path fill="#000" opacity="0.8" d="M23.321 9.5c1.346 1.595 2.162 3.592 2.327 5.7h5.818c-0.187-3.721-1.628-7.257-4.073-10l-4.073 4.3z"></path>
      <path fill="#000" opacity="0.4" d="M6.351 16.8h-5.915c0.187 3.721 1.628 7.257 4.073 10l4.17-4.3c-1.346-1.595-2.162-3.592-2.327-5.7z"></path>
      <path fill="#000" opacity="0.3" d="M15.176 25.9c-2.044-0.171-3.981-1.012-5.527-2.4l-4.17 4.3c2.66 2.522 6.089 4.007 9.697 4.2v-6.1z"></path>
    </symbol>
    <symbol id="icon-Zoom-Find" width="32" height="32" viewBox="0 0 32 32" x="192" y="0">
      <path fill="#8c8c8c" d="M13.268 7.445l-2.277 0.122c-0.071-0.936-0.367-0.845-0.944-1.517l1.825-1.825c0.93 1.022 1.446 1.468 1.597 2.73h4.131c-0.12 2.633-1.158 5.141-2.935 7.087l-3.026-3.026c0.874-1.013 1.438-2.253 1.629-3.57zM7.143 2c1.589 0.071 3.103 0.698 4.279 1.77l-1.825 1.825c-0.688-0.593-1.548-0.949-2.453-1.015v-2.58zM4.049 5.595l-1.825-1.825c1.175-1.072 2.689-1.699 4.279-1.77v2.58c-0.906 0.066-1.766 0.422-2.453 1.015zM3.595 6.049c-0.593 0.688-0.949 1.548-1.015 2.453h-2.58c0.071-1.589 0.698-3.103 1.77-4.279l1.825 1.825zM10.884 11.77l3.026 3.022c-1.947 1.777-4.454 2.816-7.087 2.935v-4.271c1.5-0.112 2.923-0.704 4.061-1.687zM2.58 9.143c0.066 0.906 0.422 1.766 1.015 2.453l-1.825 1.825c-1.072-1.175-1.699-2.689-1.77-4.279h2.58zM6.503 13.062v2.58c-1.589-0.071-3.103-0.698-4.279-1.77l1.825-1.825c0.688 0.593 1.548 0.949 2.453 1.015z"></path>
      <path fill="#000" d="M31.712 29.959l-9.288-9.288c3.186-4.26 2.54-10.257-1.481-13.74s-10.049-3.267-13.811 0.495c-3.761 3.761-3.977 9.79-0.495 13.811s9.48 4.667 13.74 1.481l9.288 9.284 2.046-2.042zM9.193 19.73c-2.069-2.069-2.689-5.18-1.569-7.883s3.757-4.466 6.683-4.466c2.926 0 5.564 1.763 6.683 4.466s0.5 5.815-1.569 7.883c-2.825 2.809-7.388 2.809-10.212 0h-0.016z"></path>
    </symbol>
    <symbol id="icon-Account" width="32" height="32" viewBox="0 0 32 32" x="240" y="0">
      <path fill="#000" d="M24.615 8.527c0 4.709-3.858 8.526-8.615 8.526-4.759 0-8.615-3.817-8.615-8.526 0-4.71 3.857-8.527 8.615-8.527 4.758 0 8.615 3.817 8.615 8.527zM31.896 26.642l0.104 1.088c-4.386 2.788-10.129 4.27-15.727 4.27-0.091 0-0.183-0.001-0.272-0.003-0.091 0.001-0.183 0.003-0.272 0.003-5.6 0-11.342-1.481-15.728-4.27l0.111-1.114c0.108-1.618 0.657-3.121 1.528-4.395 1.627-2.378 4.379-3.95 7.483-3.95h1.768l0.475 0.004c0.575 0 1.006 0.11 1.295 0.333 0.288 0.221 0.591 0.616 0.911 1.186l2.461 4.177 2.398-4.177c0.321-0.57 0.623-0.965 0.911-1.186 0.288-0.223 0.72-0.333 1.295-0.333l0.475-0.004h1.768c3.105 0 5.856 1.572 7.483 3.95 0.871 1.274 1.42 2.777 1.535 4.421z"></path>
    </symbol>
    <symbol id="icon-Alert-Warning" width="32" height="32" viewBox="0 0 32 32" x="288" y="0">
      <path fill="#000" d="M0 16c0-8.836 7.164-16 16-16 8.837 0 16 7.164 16 16s-7.163 16-16 16c-8.836 0-16-7.164-16-16zM16 28c6.627 0 12-5.373 12-12s-5.373-12-12-12c-6.627 0-12 5.373-12 12s5.373 12 12 12zM14.090 8.084c0.060-0.055 0.167-0.084 0.323-0.084h3.174c0.155 0 0.261 0.029 0.323 0.084 0.059 0.057 0.090 0.157 0.090 0.302l-0.337 9.226c0 0.146-0.029 0.246-0.090 0.302-0.059 0.055-0.167 0.084-0.323 0.084h-2.503c-0.154 0-0.262-0.029-0.322-0.084-0.060-0.056-0.090-0.157-0.090-0.302l-0.335-9.226c0-0.146 0.029-0.245 0.090-0.302zM17.91 23.903c-0.061 0.066-0.168 0.097-0.323 0.097h-3.174c-0.155 0-0.262-0.031-0.323-0.097s-0.090-0.179-0.090-0.346v-3.116c0-0.166 0.030-0.28 0.090-0.346 0.060-0.062 0.168-0.095 0.323-0.095h3.174c0.155 0 0.261 0.033 0.323 0.095 0.060 0.066 0.090 0.18 0.090 0.346v3.116c0 0.167-0.030 0.28-0.090 0.346z"></path>
    </symbol>
    <symbol id="icon-Anchor-Down" width="32" height="32" viewBox="0 0 32 32" x="336" y="0">
      <path fill="#000" d="M13.687 24.004v-24.004h4.474v24.156l8.495-8.495 2.842 2.842-13.498 13.498-13.499-13.499 2.842-2.842 8.344 8.344z"></path>
    </symbol>
    <symbol id="icon-Anchor-Top" width="32" height="32" viewBox="0 0 32 32" x="384" y="0">
      <path fill="#000" d="M13.687 7.996v24.004h4.474v-24.156l8.495 8.495 2.842-2.842-13.498-13.498-13.499 13.499 2.842 2.842 8.344-8.344z"></path>
    </symbol>
    <symbol id="icon-Back" width="32" height="32" viewBox="0 0 32 32" x="432" y="0">
      <path fill="#000" d="M8.303 12.050h9.715c4.419 0 8.002 3.582 8.002 8.002s-3.582 8.002-8.002 8.002h-12.643v3.946h12.646c6.616 0 11.979-5.363 11.979-11.979s-5.363-11.979-11.979-11.979h-10.001l5.952-5.952-2.081-2.081-9.899 9.899 9.884 9.884 2.084-2.084-5.657-5.657z"></path>
    </symbol>
    <symbol id="icon-Cancelled" width="32" height="32" viewBox="0 0 32 32" x="480" y="0">
      <path fill="#000" d="M23.067 6.3c-1.982-1.447-4.425-2.3-7.067-2.3-6.627 0-12 5.373-12 12 0 2.618 0.838 5.040 2.261 7.013l16.805-16.712zM25.862 9.162l-16.755 16.662c1.95 1.371 4.328 2.176 6.893 2.176 6.627 0 12-5.373 12-12 0-2.541-0.79-4.898-2.138-6.838zM16 0c4.243 0 8.313 1.686 11.314 4.686s4.686 7.070 4.686 11.314c0 8.837-7.163 16-16 16s-16-7.163-16-16c0-8.837 7.163-16 16-16z"></path>
    </symbol>
    <symbol id="icon-Checkbox-Fill" width="32" height="32" viewBox="0 0 32 32" x="528" y="0">
      <path fill="#000" d="M2 0h28c1.105 0 2 0.895 2 2v28c0 1.105-0.895 2-2 2h-28c-1.105 0-2-0.895-2-2v-28c0-1.105 0.895-2 2-2zM16.3 26.477c0.157 0 0.315-0.016 0.471-0.046 0.708-0.142 1.314-0.596 1.651-1.235l9.301-17.681c0.617-1.171 0.166-2.621-1.005-3.238s-2.622-0.165-3.238 1.007l-7.928 15.072-7.629-6.295c-1.021-0.844-2.533-0.698-3.375 0.323s-0.698 2.533 0.324 3.374l9.902 8.173c0.433 0.358 0.975 0.548 1.526 0.548z"></path>
    </symbol>
    <symbol id="icon-Checkbox-inactive" width="32" height="32" viewBox="0 0 32 32" x="576" y="0">
      <path fill="#000" d="M2 3.414v24.728l12.364-12.364-12.364-12.364zM2.971 30h25.615l-12.808-12.808-12.808 12.808zM30 28.586v-25.615l-12.808 12.808 12.808 12.808zM28.142 2h-24.728l12.364 12.364 12.364-12.364zM30.137 0.005l0.005-0.005 0.005 0.005c1.036 0.075 1.852 0.94 1.852 1.995v28c0 1.105-0.895 2-2 2h-28c-1.055 0-1.919-0.817-1.995-1.852l-0.005-0.005 0.005-0.005c-0.003-0.045-0.005-0.091-0.005-0.137v-28c0-0.179 0.024-0.353 0.068-0.518l-0.068-0.068 0.133-0.133c0.203-0.526 0.622-0.945 1.148-1.148l0.133-0.133 0.068 0.068c0.165-0.044 0.339-0.068 0.518-0.068h28c0.046 0 0.092 0.002 0.137 0.005z"></path>
    </symbol>
    <symbol id="icon-Checkbox" width="32" height="32" viewBox="0 0 32 32" x="624" y="0">
      <path fill="#000" d="M2 0h28c1.105 0 2 0.895 2 2v28c0 1.105-0.895 2-2 2h-28c-1.105 0-2-0.895-2-2v-28c0-1.105 0.895-2 2-2zM2 2v28h28v-28h-28z"></path>
    </symbol>
    <symbol id="icon-Clear" width="32" height="32" viewBox="0 0 32 32" x="672" y="0">
      <path d="M16 32c-8.837 0-16-7.163-16-16s7.163-16 16-16c8.837 0 16 7.163 16 16s-7.163 16-16 16zM20.978 9.6l-4.978 4.978-4.977-4.978-1.422 1.422 4.977 4.978-4.977 4.978 1.422 1.422 4.977-4.978 4.978 4.978 1.422-1.422-4.978-4.978 4.978-4.978-1.422-1.422z"></path>
    </symbol>
    <symbol id="icon-Close" width="32" height="32" viewBox="0 0 32 32" x="720" y="0">
      <path fill="#000" d="M20 16l12 12-4 4-12-12-12 12-4-4 12-12-12-12 4-4 12 12 12-12 4 4-12 12z"></path>
    </symbol>
    <symbol id="icon-Complete" width="32" height="32" viewBox="0 0 32 32" x="0" y="48">
      <path fill="#000" d="M16 0c4.095 0 8.189 1.562 11.313 4.687 6.249 6.248 6.249 16.378 0 22.626-3.124 3.125-7.218 4.687-11.313 4.687s-8.189-1.562-11.313-4.687c-6.249-6.248-6.249-16.378 0-22.626 3.124-3.125 7.218-4.687 11.313-4.687zM16 4c-3.205 0-6.219 1.248-8.485 3.515-4.679 4.678-4.679 12.292 0 16.97 2.266 2.267 5.28 3.515 8.485 3.515s6.219-1.248 8.485-3.515c4.679-4.678 4.679-12.292 0-16.97-2.266-2.267-5.28-3.515-8.485-3.515zM19.987 9.961c0.386-0.733 1.293-1.015 2.026-0.629s1.015 1.293 0.629 2.026l-5.821 11.064c-0.443 0.842-1.548 1.064-2.282 0.459l-6.197-5.113c-0.639-0.527-0.73-1.473-0.202-2.112s1.473-0.73 2.112-0.202l4.774 3.939 4.962-9.431z"></path>
    </symbol>
    <symbol id="icon-Credit-Card-Payment" width="32" height="32" viewBox="0 0 32 32" x="48" y="48">
      <path d="M29.752 22.503v-0.595c0-0.159-0.131-0.29-0.292-0.29h-2.625c-0.16 0-0.292 0.13-0.292 0.29v0.595c0 0.159 0.131 0.29 0.292 0.29h2.625c0.16 0 0.292-0.13 0.292-0.29zM25.409 22.503v-0.595c0-0.159-0.131-0.29-0.292-0.29h-2.625c-0.16 0-0.292 0.13-0.292 0.29v0.595c0 0.159 0.131 0.29 0.292 0.29h2.625c0.16 0 0.292-0.13 0.292-0.29zM21.066 22.503v-0.595c0-0.159-0.131-0.29-0.292-0.29h-2.625c-0.16 0-0.292 0.13-0.292 0.29v0.595c0 0.159 0.131 0.29 0.292 0.29h2.625c0.16 0 0.292-0.13 0.292-0.29zM21.066 25.965v-0.595c0-0.159-0.131-0.29-0.292-0.29h-6.968c-0.16 0-0.292 0.13-0.292 0.29v0.595c0 0.159 0.131 0.29 0.292 0.29h6.968c0.16 0 0.292-0.13 0.292-0.29zM16.723 21.908c0-0.159-0.131-0.29-0.292-0.29h-2.625c-0.16 0-0.292 0.13-0.292 0.29v0.595c0 0.159 0.131 0.29 0.292 0.29h2.625c0.16 0 0.292-0.13 0.292-0.29v-0.595zM13.241 19.305c0 0.372 0.306 0.676 0.681 0.676h3.255c0.374 0 0.681-0.304 0.681-0.676v-2.264c0-0.372-0.306-0.676-0.681-0.676h-3.255c-0.374 0-0.681 0.304-0.681 0.676v2.264zM31.222 14.5c0.428 0 0.778 0.348 0.778 0.773v11.455c0 0.425-0.35 0.773-0.778 0.773h-18.944c-0.428 0-0.778-0.348-0.778-0.773v-11.455c0-0.425 0.35-0.773 0.778-0.773h18.944zM16.615 6.134c0.367-0.211 0.84-0.085 1.052 0.281l0.826 1.429-17.564 10.127-0.826-1.429c-0.212-0.366-0.085-0.839 0.282-1.050l16.231-9.358zM22 13.5h-8.5l6.375-3.5 2.125 3.5zM10.998 17.563v6.504l-4.21 2.33c-0.381 0.211-0.873 0.085-1.093-0.281l-3.695-6.136 9-4.981c-0.001 0.019-0.002 0.039-0.002 0.058v1.364c-0.093-0.068-0.225-0.081-0.332-0.021l-6.205 3.434c-0.143 0.079-0.192 0.256-0.11 0.393l0.308 0.512c0.083 0.137 0.267 0.184 0.41 0.105l5.929-3.282z"></path>
    </symbol>
    <symbol id="icon-Cusomer-Service" width="32" height="32" viewBox="0 0 32 32" x="96" y="48">
      <path fill="#000" d="M22.216 18.428c2.821 0 5.109-2.287 5.109-5.109s-2.288-5.108-5.109-5.108-5.109 2.287-5.109 5.108c0 2.822 2.288 5.109 5.109 5.109zM31.269 24.932l0.004 0.016 0.060 0.629c-2.512 1.613-5.497 1.988-8.703 1.988-3.588 0-6.9-0.608-9.578-2.588l0.002-0.036c0.175-2.691 2.43-4.838 5.162-4.838l1.338 0.003c0.329 0 0.577 0.063 0.741 0.191s0.339 0.357 0.522 0.687l1.373 2.416 1.373-2.416c0.184-0.33 0.356-0.559 0.522-0.687s0.412-0.191 0.741-0.191l0.272-0.003h1.012c1.779 0 3.354 0.909 4.286 2.285 0.499 0.736 0.813 1.607 0.875 2.543zM10.572 7.967v-0.653c0-0.737-0.212-1.305-0.64-1.703-0.428-0.397-1.055-0.596-1.886-0.596-0.435 0-1.256 0.012-2.463 0.038-0.077 0-0.128 0.014-0.157 0.044s-0.044 0.080-0.044 0.156v1.27c0 0.075 0.014 0.127 0.044 0.158s0.080 0.043 0.157 0.043c0.151 0 0.272-0.004 0.364-0.011 0.822-0.018 1.479-0.027 1.974-0.027 0.293 0 0.505 0.063 0.635 0.188s0.196 0.336 0.196 0.63v0.289c0 0.193-0.030 0.346-0.088 0.459-0.060 0.112-0.185 0.211-0.378 0.295l-0.666 0.276c-0.394 0.168-0.695 0.38-0.906 0.634-0.209 0.256-0.313 0.647-0.313 1.176v0.465c0 0.076 0.014 0.128 0.044 0.158 0.028 0.028 0.082 0.044 0.156 0.044h1.421c0.076 0 0.128-0.016 0.158-0.044 0.028-0.030 0.044-0.082 0.044-0.158v-0.301c0-0.176 0.010-0.301 0.031-0.371 0.021-0.071 0.069-0.134 0.145-0.189 0.074-0.054 0.217-0.123 0.426-0.207l0.303-0.126c0.419-0.167 0.764-0.403 1.037-0.704s0.408-0.713 0.408-1.232zM8.298 13.687v-1.421c0-0.075-0.014-0.128-0.043-0.158-0.029-0.028-0.083-0.043-0.157-0.043h-1.559c-0.075 0-0.128 0.015-0.158 0.043-0.028 0.030-0.043 0.083-0.043 0.158v1.421c0 0.075 0.015 0.127 0.043 0.156 0.030 0.030 0.083 0.045 0.158 0.045h1.559c0.074 0 0.128-0.014 0.157-0.045s0.043-0.081 0.043-0.156zM13.676 13.289l2.692 2.869h-9.66c-3.689 0-6.707-3.018-6.707-6.707s3.018-6.707 6.707-6.707h1.482c3.689 0 6.707 3.018 6.707 6.707 0 1.426-0.455 2.748-1.221 3.838z"></path>
    </symbol>
    <symbol id="icon-Date" width="32" height="32" viewBox="0 0 32 32" x="144" y="48">
      <path fill="#000" d="M28.125 30.129h-26.25v-26.182h3.75v0.728c0 0.512 0.422 0.934 0.938 0.934s0.938-0.422 0.938-0.934v-0.728h15v0.728c0 0.512 0.422 0.934 0.938 0.934s0.938-0.422 0.938-0.934v-0.728h3.75v26.182zM24.375 2.078v-1.144c0-0.514-0.422-0.934-0.938-0.934s-0.938 0.42-0.938 0.934v1.144h-15v-1.144c0-0.514-0.422-0.934-0.938-0.934s-0.938 0.42-0.938 0.934v1.144h-4.357c-0.699 0-1.268 0.584-1.268 1.303v27.315c0 0.721 0.568 1.304 1.268 1.304h27.465c0.699 0 1.267-0.584 1.267-1.304v-27.315c0-0.719-0.568-1.303-1.267-1.303h-4.358zM7.5 7.685c1.031 0 1.875 0.841 1.875 1.869v1.871c0 1.028-0.844 1.869-1.875 1.869h-1.875c-1.031 0-1.875-0.841-1.875-1.869v-1.871c0-1.028 0.844-1.869 1.875-1.869h1.875zM24.375 7.685c1.031 0 1.875 0.841 1.875 1.869v1.871c0 1.028-0.844 1.869-1.875 1.869h-1.875c-1.031 0-1.875-0.841-1.875-1.869v-1.871c0-1.028 0.844-1.869 1.875-1.869h1.875zM15.771 7.685c1.031 0 1.875 0.841 1.875 1.869v1.871c0 1.028-0.844 1.869-1.875 1.869h-1.875c-1.031 0-1.875-0.841-1.875-1.869v-1.871c0-1.028 0.844-1.869 1.875-1.869h1.875zM7.5 15.165c1.031 0 1.875 0.841 1.875 1.871v1.869c0 1.030-0.844 1.869-1.875 1.869h-1.875c-1.031 0-1.875-0.84-1.875-1.869v-1.869c0-1.030 0.844-1.871 1.875-1.871h1.875zM24.375 15.165c1.031 0 1.875 0.841 1.875 1.871v1.869c0 1.030-0.844 1.869-1.875 1.869h-1.875c-1.031 0-1.875-0.84-1.875-1.869v-1.869c0-1.030 0.844-1.871 1.875-1.871h1.875zM15.771 15.165c1.031 0 1.875 0.841 1.875 1.871v1.869c0 1.030-0.844 1.869-1.875 1.869h-1.875c-1.031 0-1.875-0.84-1.875-1.869v-1.869c0-1.030 0.844-1.871 1.875-1.871h1.875zM7.5 22.646c1.031 0 1.875 0.841 1.875 1.871v1.869c0 1.028-0.844 1.869-1.875 1.869h-1.875c-1.031 0-1.875-0.841-1.875-1.869v-1.869c0-1.030 0.844-1.871 1.875-1.871h1.875zM24.375 22.646c1.031 0 1.875 0.841 1.875 1.871v1.869c0 1.028-0.844 1.869-1.875 1.869h-1.875c-1.031 0-1.875-0.841-1.875-1.869v-1.869c0-1.030 0.844-1.871 1.875-1.871h1.875zM15.771 22.646c1.031 0 1.875 0.841 1.875 1.871v1.869c0 1.028-0.844 1.869-1.875 1.869h-1.875c-1.031 0-1.875-0.841-1.875-1.869v-1.869c0-1.030 0.844-1.871 1.875-1.871h1.875z"></path>
    </symbol>
    <symbol id="icon-Delete" width="32" height="32" viewBox="0 0 32 32" x="192" y="48">
      <path fill="#000" d="M28.933 3.739h-8.367v-0.78c0-0.785-0.312-1.537-0.866-2.092s-1.307-0.866-2.092-0.866h-3.504c-1.634 0-2.958 1.324-2.958 2.958v0.78h-8.359c-1.539 0-2.786 1.248-2.786 2.786s1.248 2.786 2.786 2.786h0.898v19.902c0.004 1.434 1.165 2.595 2.599 2.599h19.044c1.434-0.004 2.595-1.165 2.599-2.599v-19.902h1.007c1.539 0 2.786-1.248 2.786-2.786s-1.247-2.786-2.786-2.786zM12.972 2.786c-0-0.549 0.443-0.995 0.991-0.999h3.778c0.562 0.017 1.004 0.484 0.991 1.046 0 0.070 0 0.944 0 0.944h-5.76v-0.991zM26.193 29.167c0 0.474-0.384 0.859-0.859 0.859h-18.966c-0.474 0-0.859-0.384-0.859-0.859v-19.801h3.856c0 0 0 0 0 0.055v16.898c-0.033 0.368 0.145 0.723 0.459 0.917s0.711 0.194 1.026 0c0.314-0.194 0.492-0.549 0.459-0.917v-16.952c0 0 0 0 0-0.055h3.645c0 0 0 0 0 0.055v16.952c0 0.535 0.433 0.968 0.968 0.968s0.968-0.433 0.968-0.968v-16.952c0 0 0 0 0-0.055h3.684c0 0 0 0 0 0.055v16.952c0 0.535 0.433 0.968 0.968 0.968s0.968-0.433 0.968-0.968v-16.952c0 0 0 0 0-0.055h3.778l-0.094 19.856zM28.784 7.36h-25.85c-0.377 0.033-0.74-0.149-0.938-0.47s-0.199-0.728 0-1.050c0.199-0.322 0.562-0.504 0.938-0.47h25.85c0.516 0.046 0.911 0.478 0.911 0.995s-0.395 0.949-0.911 0.995z"></path>
    </symbol>
    <symbol id="icon-Down" width="32" height="32" viewBox="0 0 32 32" x="240" y="48">
      <path fill="#000" d="M29.602 8.002l-13.6 11.562-13.6-11.562-2.4 2.752 16 13.764 16-13.764z"></path>
    </symbol>
    <symbol id="icon-Duration-Time" width="32" height="32" viewBox="0 0 32 32" x="288" y="48">
      <path fill="#000" d="M15.629 30.629c-8.079 0-14.629-6.549-14.629-14.629s6.549-14.629 14.629-14.629c8.079 0 14.629 6.549 14.629 14.629 0 3.88-1.541 7.601-4.285 10.344s-6.464 4.285-10.344 4.285zM15.629 3.2c-7.049 0.001-12.771 5.701-12.799 12.75s5.65 12.794 12.699 12.85c7.049 0.056 12.816-5.598 12.9-12.647 0.041-3.421-1.29-6.716-3.695-9.15s-5.684-3.803-9.105-3.803zM24.314 23.010l-9.448-6.552v-9.448h1.524v8.686l8.686 6.095-0.762 1.219z"></path>
    </symbol>
    <symbol id="icon-Edit" width="32" height="32" viewBox="0 0 32 32" x="336" y="48">
      <path fill="#000" d="M28 9.941l-18.005 18.059-5.995-6.014 18.076-17.986 5.924 5.941zM7.541 30.216l-6.204 1.744c-0.79 0.222-1.519-0.506-1.297-1.297l1.744-6.204c0.049-0.173 0.141-0.331 0.269-0.459l5.947 5.947c-0.127 0.127-0.285 0.22-0.459 0.269zM31.381 6.507l-1.492 1.493-5.889-5.893 1.498-1.487c0.834-0.828 2.165-0.825 2.984-0.005l2.911 2.913c0.809 0.809 0.814 2.153-0.011 2.979z"></path>
    </symbol>
    <symbol id="icon-Favourite-Following" width="32" height="32" viewBox="0 0 32 32" x="384" y="48">
      <path fill="#000" d="M8 0v32l8.333-6.666 8.333 6.666v-32h-16.666zM13.499 10.114l-2.932-2.76 3.975-0.648 1.719-3.642 1.845 3.58 3.995 0.509-2.834 2.861 0.75 3.956-3.596-1.812-3.531 1.936 0.611-3.98z"></path>
    </symbol>
    <symbol id="icon-Help" width="32" height="32" viewBox="0 0 32 32" x="432" y="48">
      <path fill="#000" d="M16 32c-8.837 0-16-7.163-16-16s7.163-16 16-16c8.837 0 16 7.163 16 16s-7.163 16-16 16zM10.707 9.97c0.333 0 0.602-0.009 0.806-0.028 1.815-0.037 3.27-0.056 4.363-0.056 0.648 0 1.116 0.139 1.403 0.417s0.431 0.741 0.431 1.389v0.639c0 0.426-0.065 0.764-0.195 1.014s-0.408 0.468-0.834 0.653l-1.473 0.611c-0.871 0.37-1.538 0.838-2.001 1.403s-0.695 1.431-0.695 2.598v1.028c0 0.167 0.032 0.282 0.097 0.347s0.181 0.097 0.347 0.097h3.14c0.167 0 0.282-0.032 0.347-0.097s0.097-0.181 0.097-0.347v-0.667c0-0.389 0.023-0.662 0.069-0.82s0.153-0.296 0.32-0.417c0.167-0.12 0.482-0.273 0.945-0.459l0.667-0.278c0.926-0.37 1.69-0.889 2.292-1.556s0.903-1.575 0.903-2.723v-1.445c0-1.63-0.472-2.885-1.417-3.765s-2.334-1.32-4.168-1.32c-0.963 0-2.779 0.028-5.446 0.083-0.167 0-0.283 0.032-0.347 0.097s-0.097 0.181-0.097 0.347v2.807c0 0.167 0.032 0.283 0.097 0.347s0.181 0.097 0.347 0.097zM16.709 25.364v-3.14c0-0.167-0.032-0.282-0.097-0.347s-0.181-0.097-0.347-0.097h-3.446c-0.167 0-0.283 0.032-0.347 0.097s-0.097 0.181-0.097 0.347v3.14c0 0.167 0.032 0.282 0.097 0.347s0.181 0.097 0.347 0.097h3.446c0.167 0 0.282-0.032 0.347-0.097s0.097-0.181 0.097-0.347z"></path>
    </symbol>
    <symbol id="icon-Hidden" width="32" height="32" viewBox="0 0 32 32" x="480" y="48">
      <path fill="#000" d="M16.507 13.862l1.54-2.668c-0.643-0.249-1.341-0.386-2.070-0.386-3.175 0-5.758 2.583-5.758 5.758 0 1.806 0.837 3.42 2.142 4.477l1.54-2.667c-0.423-0.484-0.679-1.117-0.679-1.811 0-1.522 1.234-2.755 2.755-2.755 0.181 0 0.359 0.018 0.53 0.052zM8.876 20.531c-0.658-1.174-1.034-2.527-1.034-3.966 0-1.443 0.378-2.799 1.040-3.975-2.544 1.313-4.537 2.996-5.584 3.973 1.047 0.975 3.040 2.654 5.579 3.967zM20.997 6.085h2.368l-12.478 21.613h-2.368l2.19-3.794c-5.721-1.932-9.764-6.302-9.979-6.538l-0.73-0.801 0.73-0.801c0.277-0.304 6.883-7.444 15.247-7.444 1.206 0 2.376 0.149 3.496 0.404l1.524-2.64zM23.077 20.531c2.538-1.313 4.53-2.991 5.577-3.966-1.048-0.975-3.040-2.654-5.578-3.966 0.659 1.174 1.035 2.527 1.035 3.967s-0.376 2.792-1.034 3.966zM31.224 15.765l0.73 0.801-0.73 0.801c-0.277 0.304-6.883 7.444-15.247 7.444-0.345 0-0.686-0.014-1.025-0.037l1.423-2.464c2.99-0.205 5.36-2.702 5.36-5.743 0-0.906-0.212-1.762-0.587-2.525l2.272-3.935c4.547 2.136 7.616 5.454 7.803 5.659z"></path>
    </symbol>
    <symbol id="icon-Information" width="32" height="32" viewBox="0 0 32 32" x="528" y="48">
      <path fill="#000" d="M16 32c-8.837 0-16-7.163-16-16s7.163-16 16-16c8.837 0 16 7.163 16 16s-7.163 16-16 16zM18.704 8.48v-3.296c0-0.192-0.037-0.325-0.112-0.4s-0.208-0.112-0.4-0.112h-4.384c-0.192 0-0.325 0.037-0.4 0.112s-0.112 0.208-0.112 0.4v3.296c0 0.192 0.037 0.325 0.112 0.4s0.208 0.112 0.4 0.112h4.384c0.192 0 0.325-0.037 0.4-0.112s0.112-0.208 0.112-0.4zM13.68 11.616v15.872c0 0.192 0.037 0.325 0.112 0.4s0.208 0.112 0.4 0.112h3.616c0.192 0 0.325-0.037 0.4-0.112s0.112-0.208 0.112-0.4v-15.872c0-0.192-0.037-0.325-0.112-0.4s-0.208-0.112-0.4-0.112h-3.616c-0.192 0-0.325 0.037-0.4 0.112s-0.112 0.208-0.112 0.4z"></path>
    </symbol>
    <symbol id="icon-Left-Arrow" width="32" height="32" viewBox="0 0 32 32" x="576" y="48">
      <path fill="#000" d="M7.996 18.313h24.004v-4.474h-24.156l8.495-8.495-2.842-2.842-13.498 13.498 13.499 13.499 2.842-2.842-8.344-8.344z"></path>
    </symbol>
    <symbol id="icon-Lock-Open" width="32" height="32" viewBox="0 0 32 32" x="624" y="48">
      <path d="M17.5 23.805v3.342c0 0.859-0.672 1.553-1.5 1.553s-1.5-0.694-1.5-1.553v-3.342c-0.894-0.539-1.5-1.528-1.5-2.676 0-1.715 1.344-3.106 3-3.106s3 1.392 3 3.106c0 1.148-0.608 2.137-1.5 2.676zM26.5 13.364h-0.033v-2.493c0-5.995-4.712-10.871-10.5-10.871-5.4 0-9.857 4.243-10.434 9.675h3.050c0.561-3.712 3.643-6.569 7.384-6.569 4.134 0 7.5 3.483 7.5 7.765v2.493h-17.967c-0.825 0-1.5 0.7-1.5 1.553v15.53c0 0.854 0.675 1.553 1.5 1.553h21c0.825 0 1.5-0.699 1.5-1.553v-15.53c0-0.853-0.675-1.553-1.5-1.553z"></path>
    </symbol>
    <symbol id="icon-Lock" width="32" height="32" viewBox="0 0 32 32" x="672" y="48">
      <path fill="#000" d="M23.5 13.364h-15v-2.493c0-4.282 3.364-7.765 7.5-7.765s7.5 3.483 7.5 7.765v2.493zM17.5 23.805v3.342c0 0.859-0.672 1.553-1.5 1.553s-1.5-0.694-1.5-1.553v-3.342c-0.893-0.539-1.5-1.53-1.5-2.676 0-1.715 1.344-3.106 3-3.106s3 1.392 3 3.106c0 1.146-0.606 2.137-1.5 2.676zM26.5 10.871c0-5.995-4.712-10.871-10.5-10.871-5.79 0-10.5 4.877-10.5 10.871v2.493c-0.825 0-1.5 0.699-1.5 1.553v15.53c0 0.854 0.675 1.553 1.5 1.553h21c0.825 0 1.5-0.699 1.5-1.553v-15.53c0-0.854-0.675-1.553-1.5-1.553v-2.493z"></path>
    </symbol>
    <symbol id="icon-Mail" width="32" height="32" viewBox="0 0 32 32" x="720" y="48">
      <path fill="#000" d="M3 8.118v16.882h26v-16.882l-10.623 9.832c-1.342 1.242-3.413 1.242-4.755 0l-10.623-9.832zM25.792 7h-19.584l9.452 8.749c0.192 0.177 0.488 0.177 0.679 0l9.452-8.749zM2 4h28c1.105 0 2 0.895 2 2v20c0 1.105-0.895 2-2 2h-28c-1.105 0-2-0.895-2-2v-20c0-1.105 0.895-2 2-2z"></path>
    </symbol>
    <symbol id="icon-MapNavigation" width="32" height="32" viewBox="0 0 32 32" x="0" y="96">
      <path fill="#000" d="M26.702 16.457l5.224 14.629h-31.852l5.225-14.629h4.836c0.327 0.624 0.66 1.235 0.993 1.829h-4.54l-3.919 10.971h26.662l-3.918-10.971h-4.476c0.334-0.593 0.666-1.205 0.993-1.829h4.772zM16.033 0.914c3.931 0 7.118 3.187 7.118 7.119s-7.118 14.824-7.118 14.824c0 0-7.118-10.894-7.118-14.824 0-3.931 3.186-7.119 7.118-7.119zM16.033 10.531c1.655 0 2.996-1.342 2.996-2.997s-1.341-2.997-2.996-2.997c-1.655 0-2.996 1.342-2.996 2.997s1.341 2.997 2.996 2.997z"></path>
    </symbol>
    <symbol id="icon-Minus" width="32" height="32" viewBox="0 0 32 32" x="48" y="96">
      <path fill="#000" d="M16 32c-8.837 0-16-7.163-16-16s7.163-16 16-16c8.837 0 16 7.163 16 16s-7.163 16-16 16zM6 14v4h20v-4h-20z"></path>
    </symbol>
    <symbol id="icon-More" width="32" height="32" viewBox="0 0 32 32" x="96" y="96">
      <path fill="#000" d="M3.81 19.619c-2.104 0-3.81-1.706-3.81-3.81s1.706-3.81 3.81-3.81c2.104 0 3.81 1.706 3.81 3.81s-1.706 3.81-3.81 3.81zM16 19.619c-2.104 0-3.81-1.706-3.81-3.81s1.706-3.81 3.81-3.81c2.104 0 3.81 1.706 3.81 3.81s-1.706 3.81-3.81 3.81zM28.19 19.619c-2.104 0-3.81-1.706-3.81-3.81s1.706-3.81 3.81-3.81c2.104 0 3.81 1.706 3.81 3.81s-1.706 3.81-3.81 3.81z"></path>
    </symbol>
    <symbol id="icon-Move" width="32" height="32" viewBox="0 0 32 32" x="144" y="96">
      <path fill="#000" d="M26.2 12.388l-10.2-8.672-10.2 8.672-1.8-2.065 12-10.324 12 10.324-1.8 2.065zM26.2 19.647l1.8 2.065-12 10.324-12-10.324 1.8-2.065 10.2 8.672 10.2-8.672z"></path>
    </symbol>
    <symbol id="icon-Next" width="32" height="32" viewBox="0 0 32 32" x="192" y="96">
      <path fill="#000" d="M10.752 0l-2.752 2.4 11.562 13.6-11.562 13.6 2.752 2.4 13.766-16z"></path>
    </symbol>
    <symbol id="icon-Notification-Alert" width="32" height="32" viewBox="0 0 32 32" x="240" y="96">
      <path fill="#000" d="M15.972 28.585c-2.302 0-4.227-1.59-4.752-3.731h9.503c-0.524 2.141-2.45 3.731-4.752 3.731zM24.134 17.636c1.431 0.12 2.565 1.326 2.565 2.786 0 1.539-1.259 2.799-2.798 2.799h-15.857c-1.539 0-2.799-1.26-2.799-2.799 0-1.461 1.135-2.667 2.565-2.786v-4.676c0-3.697 2.459-6.818 5.83-7.822v-0.69c0-1.346 1.102-2.449 2.449-2.449s2.448 1.102 2.448 2.449v0.764c3.251 1.075 5.597 4.137 5.597 7.748v4.676zM29.402 17.262c0-2.106-0.484-4.101-1.347-5.88h2.565c0.729 1.82 1.134 3.803 1.134 5.88s-0.405 4.060-1.134 5.88h-2.565c0.863-1.779 1.347-3.774 1.347-5.88zM2.352 17.262c0 2.106 0.484 4.101 1.347 5.88h-2.565c-0.729-1.82-1.134-3.803-1.134-5.88s0.405-4.060 1.134-5.88h2.565c-0.863 1.779-1.347 3.774-1.347 5.88z"></path>
    </symbol>
    <symbol id="icon-Pin-1" width="32" height="32" viewBox="0 0 32 32" x="288" y="96">
      <path fill="#8c8c8c" opacity="0.7" d="M15.647 21.376c-4.644 0-8.409-3.791-8.409-8.468s3.765-8.468 8.409-8.468 8.409 3.791 8.409 8.468c0 4.677-3.765 8.468-8.409 8.468z"></path>
      <path fill="#000" d="M15.647 20.445c-4.231 0-7.662-3.454-7.662-7.715s3.43-7.715 7.662-7.715 7.662 3.454 7.662 7.715c0 4.261-3.43 7.715-7.662 7.715zM15.647 0.093c-7.041 0-12.77 5.768-12.77 12.858 0 4.308 3.705 9.879 5.298 12.075 0.519 0.716 5.141 6.991 7.471 6.991 3.262 0 12.77-12.255 12.77-19.066 0-7.090-5.728-12.858-12.77-12.858z"></path>
    </symbol>
    <symbol id="icon-Pin-2" width="32" height="32" viewBox="0 0 32 32" x="336" y="96">
      <path fill="#000" opacity="0.8" d="M16 0.788c-5.355 0-9.697 4.418-9.697 9.869s9.697 20.555 9.697 20.555 9.697-15.104 9.697-20.555c0-3.695-1.995-6.916-4.95-8.607-1.403-0.803-3.023-1.262-4.747-1.262zM16 14.12c-2.254 0-4.082-1.86-4.082-4.154s1.828-4.154 4.082-4.154c2.254 0 4.082 1.86 4.082 4.154s-1.828 4.154-4.082 4.154z"></path>
      <path fill="#8c8c8c" d="M16 0.124c1.766 0 3.468 0.46 4.974 1.322 3.177 1.819 5.185 5.239 5.185 9.017 0 2.019-1.204 5.291-3.323 9.524-0.488 0.974-1.017 1.985-1.583 3.025-1.064 1.957-2.204 3.925-3.344 5.807-0.399 0.659-0.77 1.26-1.102 1.791-0.117 0.186-0.22 0.35-0.309 0.491-0.054 0.085-0.091 0.143-0.11 0.173l-0.387 0.602-0.387-0.602c-0.019-0.030-0.057-0.088-0.11-0.173-0.089-0.141-0.193-0.305-0.309-0.491-0.333-0.531-0.703-1.133-1.102-1.791-1.14-1.882-2.28-3.85-3.344-5.807-0.566-1.040-1.095-2.051-1.583-3.025-2.12-4.234-3.323-7.505-3.323-9.524 0-5.71 4.548-10.338 10.159-10.338zM16.027 30.105c0.33-0.528 0.698-1.125 1.095-1.78 1.133-1.871 2.266-3.826 3.322-5.769 0.561-1.031 1.086-2.033 1.568-2.996 2.053-4.1 3.223-7.28 3.223-9.098 0-3.435-1.825-6.544-4.714-8.197-1.369-0.784-2.915-1.201-4.521-1.201-5.1 0-9.235 4.208-9.235 9.399 0 1.818 1.17 4.998 3.223 9.098 0.482 0.964 1.007 1.965 1.568 2.996 1.057 1.943 2.19 3.898 3.322 5.769 0.396 0.655 0.765 1.252 1.095 1.78 0.009 0.015 0.018 0.029 0.027 0.043 0.009-0.014 0.018-0.029 0.027-0.043zM19.62 9.771c0-2.035-1.621-3.684-3.62-3.684s-3.62 1.649-3.62 3.684c0 2.035 1.621 3.684 3.62 3.684s3.62-1.649 3.62-3.684zM11.456 9.771c0-2.554 2.034-4.624 4.544-4.624s4.544 2.070 4.544 4.624c0 2.554-2.034 4.624-4.544 4.624s-4.544-2.070-4.544-4.624z"></path>
    </symbol>
    <symbol id="icon-Plus" width="32" height="32" viewBox="0 0 32 32" x="384" y="96">
      <path fill="#000" d="M16 32c8.837 0 16-7.163 16-16s-7.163-16-16-16c-8.837 0-16 7.163-16 16s7.163 16 16 16zM18 14h8v4h-8v8h-4v-8h-8v-4h8v-8h4v8z"></path>
    </symbol>
    <symbol id="icon-Previous" width="32" height="32" viewBox="0 0 32 32" x="432" y="96">
      <path fill="#000" d="M21.766 0l2.752 2.4-11.562 13.6 11.562 13.6-2.752 2.4-13.766-16z"></path>
    </symbol>
    <symbol id="icon-Print" width="32" height="32" viewBox="0 0 32 32" x="480" y="96">
      <path fill="#000" d="M6 2v8h-6v16.667h4.667v4.667h22.667v-4.667h4.667v-16.667h-7.333v-8h-18.667zM8.667 9.999v-5.332h13.335v5.332h-13.335zM2.667 12.667h26.667v11.333h-2v-4.667h-22.667v4.667h-2v-11.333zM7.333 28.668v-6.668h17.333v6.668h-17.333z"></path>
    </symbol>
    <symbol id="icon-Radio-Button-Fill" width="32" height="32" viewBox="0 0 32 32" x="528" y="96">
      <path fill="#000" d="M16 30c7.732 0 14-6.268 14-14s-6.268-14-14-14c-7.732 0-14 6.268-14 14s6.268 14 14 14zM16 32c-8.837 0-16-7.163-16-16s7.163-16 16-16c8.837 0 16 7.163 16 16s-7.163 16-16 16zM16 26c-5.523 0-10-4.477-10-10s4.477-10 10-10c5.523 0 10 4.477 10 10s-4.477 10-10 10z"></path>
    </symbol>
    <symbol id="icon-Radio-Button" width="32" height="32" viewBox="0 0 32 32" x="576" y="96">
      <path fill="#000" d="M16 30c7.732 0 14-6.268 14-14s-6.268-14-14-14c-7.732 0-14 6.268-14 14s6.268 14 14 14zM16 32c-8.837 0-16-7.163-16-16s7.163-16 16-16c8.837 0 16 7.163 16 16s-7.163 16-16 16z"></path>
    </symbol>
    <symbol id="icon-Refresh" width="32" height="32" viewBox="0 0 32 32" x="624" y="96">
      <path fill="#000" d="M26.537 21.526l5.463-5.463h-3.902c0.006-6.63-4.624-12.361-11.107-13.75s-13.054 1.945-15.763 7.996c-2.709 6.051-0.82 13.172 4.534 17.084s12.712 3.548 17.654-0.872l-2.029-2.341c-3.824 3.465-9.551 3.782-13.734 0.76s-5.682-8.558-3.595-13.277c2.087-4.719 7.192-7.335 12.242-6.273s8.668 5.513 8.677 10.673h-3.902l5.463 5.463z"></path>
    </symbol>
    <symbol id="icon-Right-Arrow" width="32" height="32" viewBox="0 0 32 32" x="672" y="96">
      <path fill="#000" d="M24.004 13.687h-24.004v4.474h24.156l-8.495 8.495 2.842 2.842 13.498-13.498-13.499-13.499-2.842 2.842 8.344 8.344z"></path>
    </symbol>
    <symbol id="icon-Search" width="32" height="32" viewBox="0 0 32 32" x="720" y="96">
      <path fill="#000" d="M0 29.314v0 0zM14.173 17.593l0.878 0.693c1.401 1.105 3.123 1.714 4.949 1.714 4.418 0 8-3.582 8-8s-3.582-8-8-8c-4.418 0-8 3.582-8 8 0 1.713 0.535 3.334 1.516 4.688l0.656 0.905zM3.757 30.243v0zM2.343 31.657l-2.343-2.343 10.278-10.278c-1.433-1.977-2.278-4.408-2.278-7.036 0-6.627 5.373-12 12-12s12 5.373 12 12c0 6.627-5.373 12-12 12-2.804 0-5.384-0.962-7.427-2.573l-10.23 10.23z"></path>
    </symbol>
    <symbol id="icon-Settings-Alert" width="32" height="32" viewBox="0 0 32 32" x="0" y="144">
      <path fill="#000" d="M16 25.333c5.155 0 9.333-4.179 9.333-9.333s-4.179-9.333-9.333-9.333c-5.155 0-9.333 4.179-9.333 9.333s4.179 9.333 9.333 9.333zM30.667 12c0.733 0 1.333 0.6 1.333 1.333v5.334c0 0.733-0.6 1.333-1.333 1.333h-1.001c-0.551 0-1.027 0.338-1.229 0.818v-0.040c-0.082 0.212-0.164 0.423-0.255 0.63l0.020-0.020c-0.196 0.482-0.099 1.058 0.291 1.447l0.708 0.708c0.519 0.519 0.519 1.367 0 1.886l-3.771 3.771c-0.519 0.519-1.367 0.519-1.886 0l-0.708-0.708c-0.39-0.39-0.965-0.486-1.447-0.291l0.020-0.020c-0.206 0.091-0.418 0.173-0.63 0.255h0.040c-0.479 0.202-0.818 0.678-0.818 1.229v1.001c0 0.733-0.6 1.333-1.333 1.333h-5.334c-0.733 0-1.333-0.6-1.333-1.333v-1.001c0-0.261-0.080-0.518-0.226-0.734-0.517-0.766-1.908-1.142-2.609-0.44l-0.708 0.708c-0.519 0.519-1.368 0.519-1.886 0l-3.771-3.771c-0.518-0.519-0.518-1.367 0-1.886l0.708-0.708c0.39-0.39 0.486-0.965 0.291-1.447l0.020 0.020c-0.092-0.207-0.173-0.419-0.255-0.63v0.040c-0.202-0.479-0.678-0.818-1.229-0.818h-1.001c-0.733 0-1.333-0.6-1.333-1.333v-5.334c0-0.733 0.6-1.333 1.333-1.333h1.001c0.551 0 1.027-0.338 1.229-0.818v0.040c0.082-0.212 0.164-0.423 0.255-0.63l-0.020 0.020c0.196-0.483 0.099-1.058-0.291-1.447l-0.708-0.708c-0.518-0.519-0.518-1.368 0-1.886l3.771-3.771c0.518-0.518 1.367-0.518 1.886 0l0.708 0.708c0.39 0.39 0.965 0.486 1.447 0.291l-0.020 0.020c0.207-0.092 0.419-0.174 0.63-0.255h-0.040c0.479-0.202 0.818-0.678 0.818-1.229v-1.001c0-0.733 0.6-1.333 1.333-1.333h5.334c0.733 0 1.333 0.6 1.333 1.333v1.001c0 0.551 0.338 1.027 0.818 1.229h-0.040c0.212 0.082 0.423 0.164 0.63 0.255l-0.020-0.020c0.482 0.196 1.058 0.099 1.447-0.291l0.708-0.708c0.519-0.518 1.367-0.518 1.886 0l3.771 3.771c0.519 0.518 0.519 1.367 0 1.886l-0.708 0.708c-0.39 0.39-0.486 0.965-0.291 1.447l-0.020-0.020c0.091 0.207 0.173 0.418 0.255 0.63v-0.040c0.202 0.479 0.678 0.818 1.229 0.818h1.001zM20.494 16.687c0.795 0.067 1.425 0.737 1.425 1.548 0 0.855-0.7 1.555-1.554 1.555h-8.81c-0.855 0-1.554-0.7-1.554-1.555 0-0.811 0.63-1.481 1.425-1.548v-2.598c0-2.054 1.366-3.788 3.239-4.346v-0.383c0-0.748 0.612-1.36 1.36-1.36s1.361 0.612 1.361 1.36v0.424c1.806 0.598 3.109 2.298 3.109 4.305v2.598zM15.959 22.769c-1.279 0-2.349-0.883-2.64-2.073h5.28c-0.291 1.189-1.361 2.073-2.64 2.073z"></path>
    </symbol>
    <symbol id="icon-Settings" width="32" height="32" viewBox="0 0 32 32" x="48" y="144">
      <path fill="#000" d="M16 25.333c-5.155 0-9.333-4.179-9.333-9.333s4.179-9.333 9.333-9.333c5.155 0 9.333 4.179 9.333 9.333s-4.179 9.333-9.333 9.333zM30.667 12h-1.001c-0.551 0-1.027-0.338-1.229-0.818v0.040c-0.082-0.212-0.164-0.423-0.255-0.63l0.020 0.020c-0.196-0.483-0.099-1.058 0.291-1.447l0.708-0.708c0.519-0.519 0.519-1.368 0-1.886l-3.771-3.771c-0.519-0.518-1.367-0.518-1.886 0l-0.708 0.708c-0.39 0.39-0.965 0.486-1.447 0.291l0.020 0.020c-0.207-0.092-0.419-0.174-0.63-0.255h0.040c-0.479-0.202-0.818-0.678-0.818-1.229v-1.001c0-0.733-0.6-1.333-1.333-1.333h-5.334c-0.733 0-1.333 0.6-1.333 1.333v1.001c0 0.551-0.338 1.027-0.818 1.229h0.040c-0.212 0.082-0.423 0.164-0.63 0.255l0.020-0.020c-0.482 0.196-1.058 0.099-1.447-0.291l-0.708-0.708c-0.519-0.518-1.368-0.518-1.886 0l-3.771 3.771c-0.518 0.518-0.518 1.367 0 1.886l0.708 0.708c0.39 0.39 0.486 0.965 0.291 1.447l0.020-0.020c-0.091 0.207-0.173 0.418-0.255 0.63v-0.040c-0.202 0.479-0.678 0.818-1.229 0.818h-1.001c-0.733 0-1.333 0.6-1.333 1.333v5.334c0 0.733 0.6 1.333 1.333 1.333h1.001c0.551 0 1.027 0.338 1.229 0.818v-0.040c0.082 0.212 0.164 0.423 0.255 0.63l-0.020-0.020c0.196 0.482 0.099 1.058-0.291 1.447l-0.708 0.708c-0.518 0.519-0.518 1.367 0 1.886l3.771 3.771c0.518 0.519 1.367 0.519 1.886 0l0.708-0.708c0.701-0.701 2.091-0.326 2.609 0.44 0.146 0.216 0.226 0.473 0.226 0.734v1.001c0 0.733 0.6 1.333 1.333 1.333h5.334c0.733 0 1.333-0.6 1.333-1.333v-1.001c0-0.551 0.338-1.027 0.818-1.229h-0.040c0.212-0.082 0.423-0.164 0.63-0.255l-0.020 0.020c0.482-0.196 1.058-0.099 1.447 0.291l0.708 0.708c0.519 0.519 1.367 0.519 1.886 0l3.771-3.771c0.519-0.519 0.519-1.367 0-1.886l-0.708-0.708c-0.39-0.39-0.486-0.965-0.291-1.447l-0.020 0.020c0.091-0.207 0.173-0.418 0.255-0.63v0.040c0.202-0.479 0.678-0.818 1.229-0.818h1.001c0.733 0 1.333-0.6 1.333-1.333v-5.334c0-0.733-0.6-1.333-1.333-1.333z"></path>
    </symbol>
    <symbol id="icon-Shown" width="32" height="32" viewBox="0 0 32 32" x="96" y="144">
      <path fill="#000" d="M15.977 13.574c-1.522 0-2.755 1.234-2.755 2.755s1.234 2.755 2.755 2.755c1.522 0 2.755-1.234 2.755-2.755s-1.234-2.755-2.755-2.755zM23.077 20.295c0.658-1.174 1.034-2.527 1.034-3.966s-0.376-2.793-1.035-3.967c2.538 1.313 4.53 2.991 5.578 3.966-1.048 0.975-3.040 2.654-5.577 3.966zM8.882 12.355c-0.661 1.176-1.040 2.532-1.040 3.975 0 1.439 0.376 2.792 1.034 3.966-2.539-1.313-4.532-2.992-5.579-3.967 1.047-0.977 3.040-2.66 5.584-3.973zM15.977 22.088c-3.175 0-5.758-2.583-5.758-5.758s2.583-5.758 5.758-5.758 5.758 2.583 5.758 5.758c0 3.175-2.583 5.758-5.758 5.758zM31.224 15.529c-0.277-0.304-6.883-7.444-15.247-7.444s-14.97 7.14-15.247 7.444l-0.73 0.801 0.73 0.801c0.277 0.304 6.883 7.444 15.247 7.444s14.97-7.14 15.247-7.444l0.73-0.801-0.73-0.801z"></path>
    </symbol>
    <symbol id="icon-Slider-Off" width="32" height="32" viewBox="0 0 32 32" x="144" y="144">
      <path fill="#000" d="M9.6 26c-5.302 0-9.6-4.477-9.6-10s4.298-10 9.6-10h12.8c5.302 0 9.6 4.477 9.6 10s-4.298 10-9.6 10h-12.8z"></path>
      <path fill="#8c8c8c" d="M18.002 16c0 4.418-3.582 8-8 8-4.42 0-8.002-3.582-8.002-8s3.582-8 8.002-8c4.418 0 8 3.582 8 8z"></path>
    </symbol>
    <symbol id="icon-Slider-on" width="32" height="32" viewBox="0 0 32 32" x="192" y="144">
      <path fill="#000" d="M9.6 26c-5.302 0-9.6-4.477-9.6-10s4.298-10 9.6-10h12.8c5.302 0 9.6 4.477 9.6 10s-4.298 10-9.6 10h-12.8z"></path>
      <path fill="#8c8c8c" d="M30.002 16c0 4.418-3.582 8-8 8-4.42 0-8.002-3.582-8.002-8s3.582-8 8.002-8c4.418 0 8 3.582 8 8z"></path>
    </symbol>
    <symbol id="icon-Status" width="32" height="32" viewBox="0 0 32 32" x="240" y="144">
      <path fill="#000" d="M16.291 0v6.1c2.044 0.171 3.981 1.012 5.527 2.4l4.17-4.3c-2.66-2.522-6.089-4.007-9.697-4.2zM22.885 22.5l4.17 4.3c2.445-2.743 3.886-6.279 4.073-10h-6.012c-0.138 2.096-0.919 4.092-2.23 5.7z"></path>
      <path fill="#000" d="M9.212 8.4c1.573-1.408 3.547-2.25 5.624-2.4v-6c-3.608 0.193-7.037 1.678-9.697 4.2l4.073 4.2zM8.145 9.5l-4.073-4.3c-2.445 2.743-3.886 6.279-4.073 10h5.915c0.138-2.096 0.919-4.092 2.23-5.7z"></path>
      <path fill="#000" d="M21.818 23.6c-1.547 1.388-3.484 2.229-5.527 2.4v6c3.608-0.193 7.037-1.678 9.697-4.2l-4.17-4.2zM22.885 9.5c1.346 1.595 2.162 3.592 2.327 5.7h5.818c-0.187-3.721-1.628-7.257-4.073-10l-4.073 4.3z"></path>
      <path fill="#000" d="M5.915 16.8h-5.915c0.187 3.721 1.628 7.257 4.073 10l4.17-4.3c-1.346-1.595-2.162-3.592-2.327-5.7zM14.739 25.9c-2.044-0.171-3.981-1.012-5.527-2.4l-4.17 4.3c2.66 2.522 6.089 4.007 9.697 4.2v-6.1z"></path>
    </symbol>
    <symbol id="icon-Swap" width="32" height="32" viewBox="0 0 32 32" x="288" y="144">
      <path fill="#000" d="M20.026 9.289h-14.026v-2.646h14.043l-4.988-4.988 1.654-1.654 7.984 7.984-7.859 7.859-1.681-1.681 4.872-4.872zM10.65 22.611h14.043v2.646h-14.026l4.872 4.872-1.681 1.681-7.859-7.859 7.984-7.984 1.654 1.654-4.988 4.988z"></path>
    </symbol>
    <symbol id="icon-Up" width="32" height="32" viewBox="0 0 32 32" x="336" y="144">
      <path fill="#000" d="M29.602 24.518l-13.6-11.562-13.6 11.562-2.4-2.752 16-13.764 16 13.764z"></path>
    </symbol>
    <symbol id="icon-Yes-Tick" width="32" height="32" viewBox="0 0 32 32" x="384" y="144">
      <path fill="#000" d="M28.938 4l-18.41 18.41-7.468-7.466-3.060 3.060 10.528 10.526 21.472-21.47z"></path>
    </symbol>
  </defs>
</svg>
