<svg aria-hidden="true" style="position: absolute; width: 0; height: 0; overflow: hidden;" version="1.1" 
  xmlns="http://www.w3.org/2000/svg" 
  xmlns:xlink="http://www.w3.org/1999/xlink">
  <defs>
    <symbol id="icon-Belgium" viewBox="0 0 40 32">
      <title>Belgium</title>
      <path fill="#fcd21d" d="M0 32h40v-32h-40z"></path>
      <path fill="#be1e2d" d="M26.4 32h13.6v-32h-13.6z"></path>
      <path fill="#2d2926" d="M0 32h13.6v-32h-13.6z"></path>
      <path fill="#2d2926" opacity="0.15" d="M38 30h-36v-28h36v28zM40 0h-40v32h40v-32z"></path>
    </symbol>
    <symbol id="icon-Brazil" viewBox="0 0 40 32">
      <title>Brazil</title>
      <path fill="#68bd45" d="M0 32h40v-32h-40z"></path>
      <path fill="#2d2926" opacity="0.15" d="M38 30h-36v-28h36v28zM40 0h-40v32h40v-32z"></path>
      <path fill="#fcd21d" d="M3.078 16.684l16.922-12.348 16.69 12.348-16.69 12.542z"></path>
      <path fill="#1b5786" d="M28.8 16.8c0 4.86-3.94 8.8-8.8 8.8s-8.8-3.94-8.8-8.8c0-4.86 3.94-8.8 8.8-8.8s8.8 3.94 8.8 8.8z"></path>
      <path fill="#fff" d="M12.154 12.811c6.431 0.155 12.256 1.866 16.627 4.577-0.033 0.501-0.108 0.99-0.221 1.464-4.487-2.718-10.46-4.396-17.029-4.451 0.157-0.554 0.366-1.086 0.623-1.59z"></path>
    </symbol>
    <symbol id="icon-Bulgaria" viewBox="0 0 40 32">
      <title>Bulgaria</title>
      <path fill="#68bd45" d="M0 32h40v-32h-40z"></path>
      <path fill="#be1e2d" d="M0 32h40v-10.4h-40z"></path>
      <path fill="#fff" d="M0 10.4h40v-10.4h-40z"></path>
      <path fill="#2d2926" opacity="0.15" d="M38 30h-36v-28h36v28zM40 0h-40v32h40v-32z"></path>
    </symbol>
    <symbol id="icon-Canada" viewBox="0 0 40 32">
      <title>Canada</title>
      <path fill="#fff" d="M0 32h40v-32h-40z"></path>
      <path fill="#be1e2d" d="M30.4 32v-32h9.6v32h-9.6zM0 32v-32h9.6v32h-9.6zM19.991 6.4l1.536 2.864c0.174 0.311 0.486 0.282 0.799 0.109l1.112-0.576-0.829 4.399c-0.174 0.804 0.385 0.804 0.661 0.456l1.94-2.172 0.315 1.103c0.036 0.145 0.196 0.297 0.436 0.261l2.453-0.516-0.644 2.343c-0.138 0.521-0.246 0.737 0.139 0.875l0.874 0.411-4.223 3.43c-0.167 0.13-0.252 0.363-0.192 0.575l0.37 1.213c-1.454-0.168-2.757-0.42-4.212-0.575-0.128-0.014-0.323 0.208-0.323 0.357l0.111 4.434h-0.707l0.193-4.444c0.001-0.149-0.214-0.361-0.343-0.347-1.455 0.155-2.758 0.407-4.212 0.575l0.37-1.213c0.059-0.211-0.025-0.445-0.192-0.575l-4.223-3.43 0.874-0.411c0.385-0.137 0.277-0.353 0.139-0.875l-0.644-2.343 2.453 0.516c0.24 0.036 0.399-0.116 0.436-0.261l0.315-1.103 1.94 2.172c0.276 0.348 0.835 0.348 0.661-0.456l-0.829-4.399 1.112 0.576c0.312 0.174 0.624 0.203 0.799-0.109l1.536-2.864z"></path>
      <path fill="#2d2926" opacity="0.15" d="M38 30h-36v-28h36v28zM40 0h-40v32h40v-32z"></path>
    </symbol>
    <symbol id="icon-China" viewBox="0 0 40 32">
      <title>China</title>
      <path fill="#be1e2d" d="M0 32h40v-32h-40z"></path>
      <path fill="#fcd21d" d="M5.958 7.44l1.202-2.64 1.271 2.602 2.769 0.38-1.972 2.071 0.51 2.875-2.49-1.324-2.454 1.397 0.434-2.888-2.028-2.012 2.758-0.461zM12.304 4.255l0.481-1.055 0.509 1.040 1.106 0.152-0.788 0.829 0.205 1.149-0.998-0.531-0.979 0.56 0.171-1.156-0.811-0.804 1.104-0.185zM15.503 7.456l0.481-1.056 0.509 1.041 1.107 0.149-0.789 0.829 0.205 1.151-0.998-0.53-0.98 0.56 0.171-1.155-0.809-0.806 1.103-0.183zM12.304 13.856l0.481-1.056 0.509 1.041 1.106 0.151-0.788 0.827 0.205 1.151-0.998-0.53-0.979 0.56 0.171-1.155-0.811-0.804 1.104-0.185zM15.503 10.655l0.481-1.055 0.509 1.040 1.107 0.152-0.789 0.829 0.205 1.149-0.998-0.531-0.98 0.56 0.171-1.156-0.809-0.804 1.103-0.185z"></path>
      <path fill="#2d2926" opacity="0.15" d="M38 30h-36v-28h36v28zM40 0h-40v32h40v-32z"></path>
    </symbol>
    <symbol id="icon-Czech" viewBox="0 0 40 32">
      <title>Czech</title>
      <path fill="#be1e2d" d="M0 32h40v-16h-40z"></path>
      <path fill="#fff" d="M0 16h40v-16h-40z"></path>
      <path fill="#1b5786" d="M0 0v32l16-16z"></path>
      <path fill="#2d2926" opacity="0.15" d="M38 30h-36v-28h36v28zM40 0h-40v32h40v-32z"></path>
    </symbol>
    <symbol id="icon-Denmark" viewBox="0 0 40 32">
      <title>Denmark</title>
      <path fill="#fff" d="M0 0h40v32h-40z"></path>
      <path fill="#be1e2d" d="M0 16h12.8v16h-12.8v-16zM16 16h24v16h-24v-16zM0 0h12.8v12.8h-12.8v-12.8zM16 0h24v12.8h-24v-12.8z"></path>
      <path fill="#2d2926" opacity="0.15" d="M38 30h-36v-28h36v28zM40 0h-40v32h40v-32z"></path>
    </symbol>
    <symbol id="icon-ENGlobal" viewBox="0 0 40 32">
      <title>ENGlobal</title>
      <path fill="#fff" d="M0 0h40v32h-40v-32z"></path>
      <path fill="#68b2e3" d="M23.361 25.768c0.374-0.621 0.691-1.274 0.944-1.952 0.438 0.192 0.867 0.413 1.28 0.656-0.691 0.523-1.445 0.957-2.24 1.296h0.016zM19.297 20.52c-1.234 0.005-2.459 0.17-3.648 0.496-0.306-1.296-0.482-2.619-0.528-3.952h8.368c-0.054 1.331-0.23 2.654-0.528 3.952-1.2-0.328-2.437-0.493-3.68-0.496h0.016zM14.304 23.816c0.253 0.678 0.57 1.331 0.944 1.952-0.811-0.33-1.576-0.766-2.272-1.296 0.422-0.245 0.861-0.464 1.312-0.656h0.016zM12.976 17.064c0.056 1.582 0.282 3.154 0.672 4.688-0.797 0.346-1.559 0.77-2.272 1.264-1.464-1.664-2.365-3.747-2.576-5.952h4.176zM13.568 10.488c-0.346 1.459-0.544 2.949-0.592 4.448h-4.176c0.21-2.139 1.075-4.163 2.48-5.792 0.715 0.523 1.482 0.974 2.288 1.344zM14.208 8.392c-0.477-0.21-0.938-0.456-1.376-0.736 0.731-0.586 1.538-1.070 2.4-1.44-0.411 0.691-0.754 1.419-1.024 2.176zM22.449 9.112c-1.022 0.344-2.090 0.538-3.168 0.576-1.054-0.034-2.101-0.218-3.104-0.544 0.88-2.352 2.112-3.744 3.088-3.744s2.24 1.392 3.12 3.744l0.064-0.032zM24.433 8.36c-0.277-0.754-0.621-1.482-1.026-2.176 0.854 0.374 1.656 0.858 2.386 1.44-0.456 0.29-0.933 0.547-1.424 0.768l0.064-0.032zM23.535 14.904h-8.431c0.050-1.216 0.205-2.426 0.464-3.616 1.208 0.339 2.458 0.512 3.712 0.512 1.259 0.002 2.514-0.171 3.727-0.512 0.254 1.202 0.41 2.421 0.464 3.648l0.064-0.032zM25.681 14.904c-0.062-1.499-0.266-2.987-0.61-4.448 0.811-0.358 1.584-0.798 2.306-1.312 1.374 1.638 2.213 3.661 2.4 5.792l-4.096-0.032zM19.281 26.552c-0.944 0-2.128-1.28-3.008-3.504 0.979-0.272 1.991-0.418 3.008-0.432 1.016 0.014 2.029 0.158 3.008 0.432-0.864 2.256-2.048 3.536-3.008 3.536v-0.032zM24.945 21.752c0.389-1.534 0.616-3.106 0.672-4.688h4.16c-0.229 2.206-1.139 4.288-2.608 5.952-0.699-0.491-1.443-0.915-2.224-1.264zM32 15.992c-0.003-7.069-5.738-12.797-12.807-12.792-7.069 0.003-12.798 5.738-12.793 12.806 0.003 7.069 5.738 12.797 12.807 12.794 2.986-0.002 5.874-1.046 8.17-2.952l0.144-0.144c2.851-2.419 4.49-5.971 4.479-9.712z"></path>
    </symbol>
    <symbol id="icon-Estonia" viewBox="0 0 40 32">
      <title>Estonia</title>
      <path fill="#2d2926" d="M0 32h40v-32h-40z"></path>
      <path fill="#fff" d="M0 32h40v-10.4h-40z"></path>
      <path fill="#68b2e3" d="M0 10.4h40v-10.4h-40z"></path>
      <path fill="#2d2926" opacity="0.15" d="M38 30h-36v-28h36v28zM40 0h-40v32h40v-32z"></path>
    </symbol>
    <symbol id="icon-EU" viewBox="0 0 40 32">
      <title>EU</title>
      <path fill="#1b5786" d="M0 32h40v-32h-40z"></path>
      <path fill="#fcd21d" d="M19.479 7.123l0.51-1.122 0.54 1.106 1.178 0.162-0.84 0.88 0.218 1.222-1.058-0.562-1.044 0.594 0.186-1.23-0.862-0.852 1.172-0.198zM19.479 23.826l0.51-1.122 0.54 1.106 1.178 0.162-0.84 0.88 0.218 1.22-1.058-0.562-1.044 0.594 0.186-1.228-0.862-0.854 1.172-0.196zM15.441 8.251l0.51-1.122 0.54 1.106 1.178 0.162-0.84 0.88 0.218 1.222-1.058-0.562-1.044 0.594 0.186-1.23-0.862-0.852 1.172-0.198zM23.822 22.701l0.55-1.104 0.5 1.126 1.17 0.204-0.87 0.848 0.172 1.228-1.036-0.598-1.064 0.554 0.228-1.22-0.828-0.886 1.178-0.152zM12.047 12.211l-0.872-0.874 1.226-0.116 0.566-1.046 0.528 1.094 1.22 0.228-0.898 0.792 0.188 1.186-1.084-0.604-1.102 0.506 0.228-1.166zM26.523 20.596l-0.902-0.84 1.22-0.162 0.526-1.064 0.57 1.074 1.226 0.182-0.868 0.826 0.23 1.176-1.104-0.564-1.084 0.546 0.186-1.174zM10.921 16.326l-0.848-0.894 1.228-0.086 0.592-1.030 0.5 1.108 1.214 0.258-0.92 0.768 0.16 1.19-1.070-0.632-1.114 0.478 0.258-1.16zM27.648 16.384l-0.918-0.822 1.216-0.186 0.506-1.074 0.59 1.062 1.23 0.158-0.852 0.842 0.254 1.172-1.116-0.54-1.074 0.566 0.164-1.178zM12.913 21.108l-1.066 0.618 0.202-1.216-0.864-0.814 1.192-0.228 0.534-1.122 0.534 1.072 1.194 0.124-0.862 0.892 0.204 1.196-1.068-0.522zM27.348 12.775l-1.080 0.594 0.228-1.21-0.846-0.834 1.198-0.202 0.556-1.11 0.512 1.084 1.19 0.148-0.882 0.874 0.18 1.2-1.056-0.544zM15.999 24.051l-1.002 0.716 0.084-1.228-0.938-0.728 1.166-0.344 0.422-1.166 0.636 1.016 1.2 0.008-0.774 0.97 0.32 1.172-1.114-0.416zM24.251 9.595l-1.068 0.618 0.204-1.216-0.864-0.816 1.194-0.228 0.534-1.12 0.534 1.072 1.192 0.126-0.862 0.89 0.204 1.198-1.068-0.524z"></path>
      <path fill="#2d2926" opacity="0.15" d="M38 30h-36v-28h36v28zM40 0h-40v32h40v-32z"></path>
    </symbol>
    <symbol id="icon-Finland" viewBox="0 0 40 32">
      <title>Finland</title>
      <path fill="#1b5786" d="M0 0h40v32h-40z"></path>
      <path fill="#fff" d="M0 17.6h11.2v14.4h-11.2v-14.4zM17.6 17.6h22.4v14.4h-22.4v-14.4zM0 0h11.2v11.2h-11.2v-11.2zM17.6 0h22.4v11.2h-22.4v-11.2z"></path>
      <path fill="#2d2926" opacity="0.15" d="M38 30h-36v-28h36v28zM40 0h-40v32h40v-32z"></path>
    </symbol>
    <symbol id="icon-France" viewBox="0 0 40 32">
      <title>France</title>
      <path fill="#fff" d="M0 32h40v-32h-40z"></path>
      <path fill="#be1e2d" d="M26.4 32h13.6v-32h-13.6z"></path>
      <path fill="#002b45" d="M0 32h13.6v-32h-13.6z"></path>
      <path fill="#2d2926" opacity="0.15" d="M38 30h-36v-28h36v28zM40 0h-40v32h40v-32z"></path>
    </symbol>
    <symbol id="icon-Germany" viewBox="0 0 40 32">
      <title>Germany</title>
      <path fill="#be1e2d" d="M0 32h40v-32h-40z"></path>
      <path fill="#fcd21d" d="M0 32h40v-10.4h-40z"></path>
      <path fill="#2d2926" d="M0 10.4h40v-10.4h-40z"></path>
      <path fill="#2d2926" opacity="0.15" d="M38 30h-36v-28h36v28zM40 0h-40v32h40v-32z"></path>
    </symbol>
    <symbol id="icon-Hungary" viewBox="0 0 40 32">
      <title>Hungary</title>
      <path fill="#fff" d="M0 32h40v-32h-40z"></path>
      <path fill="#68bd45" d="M0 32h40v-10.4h-40z"></path>
      <path fill="#be1e2d" d="M0 10.4h40v-10.4h-40z"></path>
      <path fill="#2d2926" opacity="0.15" d="M38 30h-36v-28h36v28zM40 0h-40v32h40v-32z"></path>
    </symbol>
    <symbol id="icon-Italy" viewBox="0 0 40 32">
      <title>Italy</title>
      <path fill="#fff" d="M0 32h40v-32h-40z"></path>
      <path fill="#be1e2d" d="M26.4 32h13.6v-32h-13.6z"></path>
      <path fill="#68bd45" d="M0 32h13.6v-32h-13.6z"></path>
      <path fill="#2d2926" opacity="0.15" d="M38 30h-36v-28h36v28zM40 0h-40v32h40v-32z"></path>
    </symbol>
    <symbol id="icon-Japan" viewBox="0 0 40 32">
      <title>Japan</title>
      <path fill="#fff" d="M0 32h40v-32h-40z"></path>
      <path fill="#2d2926" opacity="0.15" d="M38 30h-36v-28h36v28zM40 0h-40v32h40v-32z"></path>
      <path fill="#be1e2d" d="M28.8 16.8c0 4.86-3.94 8.8-8.8 8.8s-8.8-3.94-8.8-8.8c0-4.86 3.94-8.8 8.8-8.8s8.8 3.94 8.8 8.8z"></path>
    </symbol>
    <symbol id="icon-Korea" viewBox="0 0 40 32">
      <title>Korea</title>
      <path fill="#fff" d="M0 32h40v-32h-40z"></path>
      <path fill="#2d2926" opacity="0.15" d="M38 30h-36v-28h36v28zM40 0h-40v32h40v-32z"></path>
      <path fill="#be1e2d" d="M24.837 9.532c4.030 2.687 5.12 8.132 2.433 12.163s-8.132 5.12-12.163 2.433c-4.030-2.687-5.12-8.133-2.433-12.163s8.132-5.12 12.163-2.433z"></path>
      <path fill="#1b5786" d="M12.674 11.965c-1.344 2.015-0.799 4.738 1.216 6.081s4.738 0.799 6.081-1.216c1.343-2.015 4.066-2.56 6.081-1.216s2.56 4.066 1.216 6.081c-2.687 4.030-8.132 5.12-12.163 2.433s-5.12-8.133-2.433-12.163z"></path>
      <path fill="#2d2926" d="M28.331 4.8l4.525 4.525-1.131 1.131-4.525-4.525 1.131-1.131zM26.731 6.4l4.525 4.525-1.131 1.131-4.525-4.525 1.131-1.131zM29.931 3.2l4.525 4.525-1.131 1.131-4.525-4.525 1.131-1.131zM28.331 28.057l-1.131-1.131 4.525-4.525 1.131 1.131-4.525 4.525zM26.731 26.457l-1.131-1.131 4.525-4.525 1.131 1.131-4.525 4.525zM29.931 29.657l-1.131-1.131 4.525-4.525 1.131 1.131-4.525 4.525zM10.925 4.8l1.131 1.131-4.525 4.525-1.131-1.131 4.525-4.525zM12.525 6.4l1.131 1.131-4.525 4.525-1.131-1.131 4.525-4.525zM9.325 3.2l1.131 1.131-4.525 4.525-1.131-1.131 4.525-4.525zM10.925 28.057l-4.525-4.525 1.131-1.131 4.525 4.525-1.131 1.131zM12.525 26.457l-4.525-4.525 1.131-1.131 4.525 4.525-1.131 1.131zM9.325 29.657l-4.525-4.525 1.131-1.131 4.525 4.525-1.131 1.131z"></path>
    </symbol>
    <symbol id="icon-Latvia" viewBox="0 0 40 32">
      <title>Latvia</title>
      <path fill="#fff" d="M0 32h40v-32h-40z"></path>
      <path fill="#be1e2d" d="M0 32h40v-10.4h-40z"></path>
      <path fill="#be1e2d" d="M0 10.4h40v-10.4h-40z"></path>
      <path fill="#2d2926" opacity="0.15" d="M38 30h-36v-28h36v28zM40 0h-40v32h40v-32z"></path>
    </symbol>
    <symbol id="icon-Lithuania" viewBox="0 0 40 32">
      <title>Lithuania</title>
      <path fill="#68bd45" d="M0 32h40v-32h-40z"></path>
      <path fill="#be1e2d" d="M0 32h40v-10.4h-40z"></path>
      <path fill="#fcd21d" d="M0 10.4h40v-10.4h-40z"></path>
      <path fill="#2d2926" opacity="0.15" d="M38 30h-36v-28h36v28zM40 0h-40v32h40v-32z"></path>
    </symbol>
    <symbol id="icon-Netherlands" viewBox="0 0 40 32">
      <title>Netherlands</title>
      <path fill="#fff" d="M0 32h40v-32h-40z"></path>
      <path fill="#002b45" d="M0 32h40v-10.4h-40z"></path>
      <path fill="#be1e2d" d="M0 10.4h40v-10.4h-40z"></path>
      <path fill="#2d2926" opacity="0.15" d="M38 30h-36v-28h36v28zM40 0h-40v32h40v-32z"></path>
    </symbol>
    <symbol id="icon-Norway" viewBox="0 0 40 32">
      <title>Norway</title>
      <path fill="#002b45" d="M0 0h40v32h-40z"></path>
      <path fill="#fff" d="M0 16h12.8v16h-12.8v-16zM16 16h24v16h-24v-16zM0 0h12.8v12.8h-12.8v-12.8zM16 0h24v12.8h-24v-12.8z"></path>
      <path fill="#be1e2d" d="M0 17.6h11.2v14.4h-11.2v-14.4zM17.6 17.6h22.4v14.4h-22.4v-14.4zM0 0h11.2v11.2h-11.2v-11.2zM17.6 0h22.4v11.2h-22.4v-11.2z"></path>
      <path fill="#2d2926" opacity="0.15" d="M38 30h-36v-28h36v28zM40 0h-40v32h40v-32z"></path>
    </symbol>
    <symbol id="icon-Poland" viewBox="0 0 40 32">
      <title>Poland</title>
      <path fill="#be1e2d" d="M0 32h40v-16h-40z"></path>
      <path fill="#fff" d="M0 16h40v-16h-40z"></path>
      <path fill="#2d2926" opacity="0.15" d="M38 30h-36v-28h36v28zM40 0h-40v32h40v-32z"></path>
    </symbol>
    <symbol id="icon-Romania" viewBox="0 0 40 32">
      <title>Romania</title>
      <path fill="#fcd21d" d="M0 32h40v-32h-40z"></path>
      <path fill="#be1e2d" d="M26.4 32h13.6v-32h-13.6z"></path>
      <path fill="#1b5786" d="M0 32h13.6v-32h-13.6z"></path>
      <path fill="#2d2926" opacity="0.15" d="M38 30h-36v-28h36v28zM40 0h-40v32h40v-32z"></path>
    </symbol>
    <symbol id="icon-Russia" viewBox="0 0 40 32">
      <title>Russia</title>
      <path fill="#1b5786" d="M0 32h40v-32h-40z"></path>
      <path fill="#be1e2d" d="M0 32h40v-10.4h-40z"></path>
      <path fill="#fff" d="M0 10.4h40v-10.4h-40z"></path>
      <path fill="#2d2926" opacity="0.15" d="M38 30h-36v-28h36v28zM40 0h-40v32h40v-32z"></path>
    </symbol>
    <symbol id="icon-Slovenia" viewBox="0 0 40 32">
      <title>Slovenia</title>
      <path fill="#1b5786" d="M0 32h40v-32h-40z"></path>
      <path fill="#be1e2d" d="M0 32h40v-10.4h-40z"></path>
      <path fill="#fff" d="M0 10.4h40v-10.4h-40z"></path>
      <path fill="#2d2926" opacity="0.15" d="M38 30h-36v-28h36v28zM40 0h-40v32h40v-32z"></path>
      <path fill="#1b5786" d="M15.894 11.28c0 2.18-2.666 4.586-3.948 4.586-1.066 0-3.946-2.406-3.946-4.586v-4.694c0-0.764 1.768-1.386 3.946-1.386 2.18 0 3.948 0.622 3.948 1.386v4.694z"></path>
      <path fill="#fff" d="M14.965 11.292c0 1.668-2.040 3.508-3.018 3.508-0.816 0-3.018-1.84-3.018-3.508l1.224-1.754c0-0.29 0.61 0.776 0.61 0.776l1.184-2.448 1.264 2.448 0.612-0.612 1.142 1.59z"></path>
      <path fill="none" stroke="#be1e2d" stroke-linejoin="miter" stroke-linecap="butt" stroke-miterlimit="4" stroke-width="0.8" d="M8.106 10.235v1.044c0 2.18 2.88 4.586 3.948 4.586 1.278 0 3.946-2.406 3.946-4.586v-1.086"></path>
      <path fill="#fcd21d" d="M11.971 7.36l-0.466 0.268 0.090-0.53-0.378-0.358 0.52-0.098 0.234-0.49 0.232 0.47 0.522 0.054-0.378 0.39 0.090 0.52-0.466-0.226zM13.57 7.36l-0.466 0.268 0.090-0.53-0.378-0.358 0.52-0.098 0.234-0.49 0.234 0.47 0.52 0.054-0.378 0.39 0.090 0.52-0.466-0.226zM10.37 7.36l-0.466 0.268 0.090-0.53-0.378-0.358 0.522-0.098 0.232-0.49 0.234 0.47 0.52 0.054-0.376 0.39 0.088 0.52-0.466-0.226z"></path>
    </symbol>
    <symbol id="icon-Spain" viewBox="0 0 40 32">
      <title>Spain</title>
      <path fill="#fcd21d" d="M0 32h40v-32h-40z"></path>
      <path fill="#be1e2d" d="M0 32v-8.8h40v8.8h-40zM0 8.8v-8.8h40v8.8h-40z"></path>
      <path fill="#2d2926" opacity="0.15" d="M38 30h-36v-28h36v28zM40 0h-40v32h40v-32z"></path>
    </symbol>
    <symbol id="icon-Sweden" viewBox="0 0 40 32">
      <title>Sweden</title>
      <path fill="#fcd21d" d="M0 0h40v32h-40z"></path>
      <path fill="#1b5786" d="M0 16h12.8v16h-12.8v-16zM16 16h24v16h-24v-16zM0 0h12.8v12.8h-12.8v-12.8zM16 0h24v12.8h-24v-12.8z"></path>
      <path fill="#2d2926" opacity="0.15" d="M38 30h-36v-28h36v28zM40 0h-40v32h40v-32z"></path>
    </symbol>
    <symbol id="icon-Turkey" viewBox="0 0 40 32">
      <title>Turkey</title>
      <path fill="#be1e2d" d="M0 32h40v-32h-40z"></path>
      <path fill="#fff" d="M19.187 14.589l0.298-1.789 1.186 1.367 1.729-0.219-0.853 1.57 0.771 1.654-1.714-0.397-1.253 1.241-0.205-1.815-1.547-0.887z"></path>
      <path fill="#fff" d="M17.816 9.76c-0.726-0.272-1.512-0.42-2.333-0.42-3.687 0-6.677 2.998-6.677 6.697s2.989 6.697 6.677 6.697c0.821 0 1.607-0.149 2.333-0.42-1.371 1.101-3.111 1.76-5.004 1.76-4.425 0-8.012-3.598-8.012-8.036s3.587-8.036 8.012-8.036c1.893 0 3.633 0.659 5.004 1.76z"></path>
      <path fill="#2d2926" opacity="0.15" d="M38 30h-36v-28h36v28zM40 0h-40v32h40v-32z"></path>
    </symbol>
    <symbol id="icon-UK" viewBox="0 0 40 32">
      <title>UK</title>
      <path fill="#fff" d="M0 0h40v32h-40z"></path>
      <path fill="#be1e2d" d="M18 0h4v12h18v8h-18v12h-4v-12h-18v-8h18v-12zM0 1.436v-1.436l11.765 9.481h-1.796l-9.969-8.046zM28.235 9.481l11.765-9.481v1.436l-9.969 8.046h-1.796zM28.235 22.519h1.796l9.969 8.046v1.436l-11.765-9.481zM9.969 22.519h1.796l-11.765 9.481v-1.436l9.969-8.046z"></path>
      <path fill="#002b45" d="M0 9.481v-5.926l7.059 5.926h-7.059zM3.529 0h12.941v9.481h-0.36l-12.581-9.481zM32.941 9.481l7.059-5.926v5.926h-7.059zM23.529 0h12.941l-12.581 9.481h-0.36v-9.481zM32.941 22.519h7.059v5.926l-7.059-5.926zM23.529 22.519h0.36l12.581 9.481h-12.941v-9.481zM0 22.519h7.059l-7.059 5.926v-5.926zM16.111 22.519h0.36v9.481h-12.941l12.581-9.481z"></path>
      <path fill="#2d2926" opacity="0.15" d="M38 30h-36v-28h36v28zM40 0h-40v32h40v-32z"></path>
    </symbol>
    <symbol id="icon-USA" viewBox="0 0 40 32">
      <title>USA</title>
      <path fill="#be1e2d" d="M0 32h40v-32h-19.195v15.197h-20.805z"></path>
      <path fill="#fff" d="M20.8 5.6v-2.4h19.2v2.4h-19.2zM20.8 10.4v-2.4h19.2v2.4h-19.2zM20.8 15.2v-2.4h19.2v2.4h-19.2zM0 20v-2.4h40v2.4h-40zM0 24.8v-2.4h40v2.4h-40zM0 29.6v-2.4h40v2.4h-40z"></path>
      <path fill="#002b45" d="M0 15.2v-15.2h20.8v15.2h-20.8zM1.948 2.095l-0.56 0.095 0.413 0.41-0.089 0.587 0.499-0.285 0.506 0.268-0.104-0.583 0.4-0.423-0.562-0.076-0.259-0.529-0.244 0.536zM5.201 2.095l-0.56 0.095 0.413 0.41-0.089 0.587 0.499-0.285 0.506 0.268-0.104-0.583 0.4-0.423-0.562-0.076-0.259-0.529-0.244 0.536zM8.455 2.095l-0.56 0.095 0.412 0.41-0.088 0.587 0.497-0.285 0.508 0.268-0.106-0.583 0.402-0.423-0.562-0.076-0.259-0.529-0.244 0.536zM11.708 2.095l-0.56 0.095 0.412 0.41-0.088 0.587 0.499-0.285 0.506 0.268-0.106-0.583 0.402-0.423-0.562-0.076-0.259-0.529-0.244 0.536zM14.961 2.095l-0.562 0.095 0.415 0.41-0.089 0.587 0.499-0.285 0.506 0.268-0.104-0.583 0.4-0.423-0.562-0.076-0.259-0.529-0.244 0.536zM18.213 2.095l-0.56 0.095 0.413 0.41-0.089 0.587 0.499-0.285 0.506 0.268-0.104-0.583 0.402-0.423-0.564-0.076-0.259-0.529-0.244 0.536zM1.948 5.819l-0.56 0.095 0.413 0.41-0.089 0.587 0.499-0.285 0.506 0.27-0.104-0.585 0.4-0.421-0.562-0.078-0.259-0.529-0.244 0.536zM5.201 5.819l-0.56 0.095 0.413 0.41-0.089 0.587 0.499-0.285 0.506 0.27-0.104-0.585 0.4-0.421-0.562-0.078-0.259-0.529-0.244 0.536zM8.455 5.819l-0.56 0.095 0.412 0.41-0.088 0.587 0.497-0.285 0.508 0.27-0.106-0.585 0.402-0.421-0.562-0.078-0.259-0.529-0.244 0.536zM11.708 5.819l-0.56 0.095 0.412 0.41-0.088 0.587 0.499-0.285 0.506 0.27-0.106-0.585 0.402-0.421-0.562-0.078-0.259-0.529-0.244 0.536zM14.961 5.819l-0.562 0.095 0.415 0.41-0.089 0.587 0.499-0.285 0.506 0.27-0.104-0.585 0.4-0.421-0.562-0.078-0.259-0.529-0.244 0.536zM18.213 5.819l-0.56 0.095 0.413 0.41-0.089 0.587 0.499-0.285 0.506 0.27-0.104-0.585 0.402-0.421-0.564-0.078-0.259-0.529-0.244 0.536zM3.339 3.957l-0.56 0.095 0.413 0.41-0.089 0.587 0.499-0.285 0.506 0.27-0.104-0.585 0.4-0.421-0.562-0.078-0.259-0.529-0.244 0.536zM6.593 3.957l-0.56 0.095 0.412 0.41-0.089 0.587 0.499-0.285 0.508 0.27-0.106-0.585 0.402-0.421-0.562-0.078-0.259-0.529-0.244 0.536zM9.846 3.957l-0.56 0.095 0.412 0.41-0.088 0.587 0.499-0.285 0.506 0.27-0.106-0.585 0.402-0.421-0.562-0.078-0.259-0.529-0.244 0.536zM13.099 3.957l-0.56 0.095 0.412 0.41-0.088 0.587 0.499-0.285 0.506 0.27-0.104-0.585 0.4-0.421-0.562-0.078-0.259-0.529-0.244 0.536zM16.352 3.957l-0.56 0.095 0.413 0.41-0.089 0.587 0.499-0.285 0.506 0.27-0.104-0.585 0.402-0.421-0.564-0.078-0.259-0.529-0.244 0.536zM3.339 7.683l-0.56 0.093 0.413 0.41-0.089 0.588 0.499-0.287 0.506 0.27-0.104-0.583 0.4-0.423-0.562-0.078-0.259-0.529-0.244 0.538zM6.593 7.683l-0.56 0.093 0.412 0.41-0.089 0.588 0.499-0.287 0.508 0.27-0.106-0.583 0.402-0.423-0.562-0.078-0.259-0.529-0.244 0.538zM9.846 7.683l-0.56 0.093 0.412 0.41-0.088 0.588 0.499-0.287 0.506 0.27-0.106-0.583 0.402-0.423-0.562-0.078-0.259-0.529-0.244 0.538zM13.099 7.683l-0.56 0.093 0.412 0.41-0.088 0.588 0.499-0.287 0.506 0.27-0.104-0.583 0.4-0.423-0.562-0.078-0.259-0.529-0.244 0.538zM16.352 7.683l-0.56 0.093 0.413 0.41-0.089 0.588 0.499-0.287 0.506 0.27-0.104-0.583 0.402-0.423-0.564-0.078-0.259-0.529-0.244 0.538zM3.339 11.406l-0.56 0.093 0.413 0.41-0.089 0.588 0.499-0.287 0.506 0.27-0.104-0.583 0.4-0.423-0.562-0.078-0.259-0.527-0.244 0.536zM6.593 11.406l-0.56 0.093 0.412 0.41-0.089 0.588 0.499-0.287 0.508 0.27-0.106-0.583 0.402-0.423-0.562-0.078-0.259-0.527-0.244 0.536zM9.846 11.406l-0.56 0.093 0.412 0.41-0.088 0.588 0.499-0.287 0.506 0.27-0.106-0.583 0.402-0.423-0.562-0.078-0.259-0.527-0.244 0.536zM13.099 11.406l-0.56 0.093 0.412 0.41-0.088 0.588 0.499-0.287 0.506 0.27-0.104-0.583 0.4-0.423-0.562-0.078-0.259-0.527-0.244 0.536zM16.352 11.406l-0.56 0.093 0.413 0.41-0.089 0.588 0.499-0.287 0.506 0.27-0.104-0.583 0.402-0.423-0.564-0.078-0.259-0.527-0.244 0.536zM1.948 9.544l-0.56 0.093 0.413 0.41-0.089 0.588 0.499-0.287 0.506 0.27-0.104-0.583 0.4-0.423-0.562-0.078-0.259-0.527-0.244 0.536zM5.201 9.544l-0.56 0.093 0.413 0.41-0.089 0.588 0.499-0.287 0.506 0.27-0.104-0.583 0.4-0.423-0.562-0.078-0.259-0.527-0.244 0.536zM8.455 9.544l-0.56 0.093 0.412 0.41-0.088 0.588 0.497-0.287 0.508 0.27-0.106-0.583 0.402-0.423-0.562-0.078-0.259-0.527-0.244 0.536zM11.708 9.544l-0.56 0.093 0.412 0.41-0.088 0.588 0.499-0.287 0.506 0.27-0.106-0.583 0.402-0.423-0.562-0.078-0.259-0.527-0.244 0.536zM14.961 9.544l-0.562 0.093 0.415 0.41-0.089 0.588 0.499-0.287 0.506 0.27-0.104-0.583 0.4-0.423-0.562-0.078-0.259-0.527-0.244 0.536zM18.213 9.544l-0.56 0.093 0.413 0.41-0.089 0.588 0.499-0.287 0.506 0.27-0.104-0.583 0.402-0.423-0.564-0.078-0.259-0.527-0.244 0.536zM1.948 13.268l-0.56 0.093 0.413 0.41-0.089 0.588 0.499-0.285 0.506 0.268-0.104-0.583 0.4-0.423-0.562-0.076-0.259-0.529-0.244 0.536zM5.201 13.268l-0.56 0.093 0.413 0.41-0.089 0.588 0.499-0.285 0.506 0.268-0.104-0.583 0.4-0.423-0.562-0.076-0.259-0.529-0.244 0.536zM8.455 13.268l-0.56 0.093 0.412 0.41-0.088 0.588 0.497-0.285 0.508 0.268-0.106-0.583 0.402-0.423-0.562-0.076-0.259-0.529-0.244 0.536zM11.708 13.268l-0.56 0.093 0.412 0.41-0.088 0.588 0.499-0.285 0.506 0.268-0.106-0.583 0.402-0.423-0.562-0.076-0.259-0.529-0.244 0.536zM14.961 13.268l-0.562 0.093 0.415 0.41-0.089 0.588 0.499-0.285 0.506 0.268-0.104-0.583 0.4-0.423-0.562-0.076-0.259-0.529-0.244 0.536zM18.213 13.268l-0.56 0.093 0.413 0.41-0.089 0.588 0.499-0.285 0.506 0.268-0.104-0.583 0.402-0.423-0.564-0.076-0.259-0.529-0.244 0.536z"></path>
      <path fill="#2d2926" opacity="0.15" d="M38 30h-36v-28h36v28zM40 0h-40v32h40v-32z"></path>
    </symbol>
  </defs>
</svg>
