<svg aria-hidden="true" style="position: absolute; width: 0; height: 0; overflow: hidden;" version="1.1" 
    xmlns="http://www.w3.org/2000/svg" 
    xmlns:xlink="http://www.w3.org/1999/xlink">
    <defs>
        <symbol id="icon-Blog" viewBox="0 0 32 32">
            <title>Blog</title>
            <path fill="#ed8b00" d="M29.161 15.628c0-10.685 0.038-9.707-0.414-10.573-0.544-1.124-1.593-1.921-2.822-2.145-0.451-0.113-19.565-0.075-19.979 0-1.469 0.321-2.633 1.441-3.010 2.897-0.113 0.414-0.113 0.64-0.113 10.196s0 9.782 0.113 10.196c0.139 0.453 0.342 0.883 0.602 1.279 0.288 0.375 0.631 0.704 1.016 0.978 0.389 0.273 0.821 0.476 1.279 0.602 0.376 0.113 0.828 0.113 10.121 0.113s9.745 0 10.159-0.113c1.621-0.374 2.829-1.732 3.010-3.386 0.038-0.376 0.075-3.236 0.038-10.046zM24.119 17.471c-0.038 2.258-0.038 2.446-0.151 2.822-0.219 0.853-0.66 1.632-1.279 2.258-0.778 0.848-1.831 1.394-2.972 1.543-0.677 0.075-7.337 0.075-7.864-0.038-1.204-0.251-2.274-0.934-3.010-1.919-0.359-0.446-0.627-0.957-0.79-1.505-0.226-0.715-0.263-1.279-0.226-4.966 0-2.935 0.038-3.461 0.113-3.8 0.389-1.662 1.571-3.027 3.16-3.65 0.865-0.339 1.43-0.376 3.951-0.376 1.618 0.038 2.107 0.038 2.295 0.113 0.902 0.28 1.717 0.785 2.37 1.467 0.925 0.857 1.468 2.050 1.505 3.311 0 0.64 0.113 0.865 0.451 1.091s0.301 0.15 1.053 0.188l0.903 0.113c0.235 0.156 0.398 0.4 0.451 0.677 0.061 0.889 0.074 1.781 0.038 2.671zM12.191 14.362l1.844 0.038c1.58 0 1.693 0 1.844-0.113 0.288-0.157 0.463-0.463 0.451-0.79 0.025-0.342-0.172-0.661-0.489-0.79-0.226-0.113-0.113-0.113-1.881-0.113s-1.844 0-2.145 0.301c-0.189 0.232-0.257 0.539-0.183 0.829s0.282 0.527 0.559 0.639zM12.163 20.177c0.113 0.038 0.828 0.113 3.311 0.075h2.822l0.527-0.075c0.247-0.14 0.413-0.387 0.45-0.668s-0.060-0.563-0.262-0.762c-0.339-0.301-0.414-0.301-3.574-0.301s-3.273 0-3.537 0.226c-0.23 0.208-0.337 0.52-0.284 0.825s0.26 0.562 0.547 0.68z"></path>
        </symbol>
        <symbol id="icon-Facebook" viewBox="0 0 32 32">
            <title>Facebook</title>
            <path fill="#4460a0" d="M16.899 29.176h-12.621c-0.804 0-1.454-0.651-1.454-1.455v-23.444c0-0.803 0.651-1.454 1.454-1.454h23.444c0.803 0 1.454 0.651 1.454 1.454v23.444c0 0.803-0.651 1.455-1.454 1.455h-6.715v-10.205h3.425l0.513-3.977h-3.938v-2.539c0-1.152 0.32-1.936 1.971-1.936l2.106-0.001v-3.557c-0.364-0.048-1.614-0.157-3.069-0.157-3.036 0-5.115 1.853-5.115 5.257v2.933h-3.434v3.977h3.434v10.205z"></path>
        </symbol>
        <symbol id="icon-Instagram" viewBox="0 0 32 32">
            <title>Instagram</title>
            <path d="M16 2.824c3.578 0 4.027 0.015 5.433 0.079 1.402 0.064 2.36 0.287 3.198 0.612 0.866 0.337 1.601 0.787 2.334 1.52s1.183 1.467 1.52 2.334c0.326 0.838 0.548 1.796 0.612 3.198 0.064 1.405 0.079 1.854 0.079 5.433s-0.015 4.027-0.079 5.433c-0.064 1.402-0.287 2.36-0.612 3.198-0.337 0.866-0.787 1.601-1.52 2.334s-1.467 1.183-2.334 1.52c-0.838 0.326-1.796 0.548-3.198 0.612-1.405 0.064-1.854 0.079-5.433 0.079s-4.027-0.015-5.433-0.079c-1.402-0.064-2.36-0.287-3.198-0.612-0.866-0.337-1.601-0.787-2.334-1.52s-1.183-1.467-1.52-2.334c-0.326-0.838-0.548-1.796-0.612-3.198-0.064-1.405-0.079-1.854-0.079-5.433s0.015-4.027 0.079-5.433c0.064-1.402 0.287-2.36 0.612-3.198 0.337-0.866 0.787-1.601 1.52-2.334s1.467-1.183 2.334-1.52c0.838-0.326 1.796-0.548 3.198-0.612 1.405-0.064 1.854-0.079 5.433-0.079zM16 5.198c-3.518 0-3.935 0.013-5.324 0.077-1.285 0.059-1.982 0.273-2.447 0.454-0.615 0.239-1.054 0.525-1.515 0.986s-0.747 0.9-0.986 1.515c-0.18 0.464-0.395 1.162-0.454 2.447-0.063 1.389-0.077 1.806-0.077 5.324s0.013 3.935 0.077 5.324c0.059 1.285 0.273 1.982 0.454 2.447 0.239 0.615 0.525 1.054 0.986 1.515s0.9 0.747 1.515 0.986c0.464 0.18 1.162 0.395 2.447 0.454 1.389 0.063 1.806 0.077 5.324 0.077s3.935-0.013 5.324-0.077c1.285-0.059 1.982-0.273 2.447-0.454 0.615-0.239 1.054-0.525 1.515-0.986s0.747-0.9 0.986-1.515c0.18-0.464 0.395-1.162 0.454-2.447 0.063-1.389 0.077-1.806 0.077-5.324s-0.013-3.935-0.077-5.324c-0.059-1.285-0.273-1.982-0.454-2.447-0.239-0.615-0.525-1.054-0.986-1.515s-0.9-0.747-1.515-0.986c-0.464-0.18-1.162-0.395-2.447-0.454-1.389-0.063-1.806-0.077-5.324-0.077zM16 9.234c3.737 0 6.766 3.029 6.766 6.766s-3.029 6.766-6.766 6.766c-3.737 0-6.766-3.029-6.766-6.766s3.029-6.766 6.766-6.766zM16 20.392c2.426 0 4.392-1.966 4.392-4.392s-1.966-4.392-4.392-4.392c-2.426 0-4.392 1.966-4.392 4.392s1.966 4.392 4.392 4.392zM24.615 8.966c0 0.873-0.708 1.581-1.581 1.581s-1.581-0.708-1.581-1.581 0.708-1.581 1.581-1.581c0.873 0 1.581 0.708 1.581 1.581z"></path>
        </symbol>
        <symbol id="icon-LinkedIn" viewBox="0 0 32 32">
            <title>LinkedIn</title>
            <path fill="#007ebb" d="M28.894 27.465h-5.762v-8.332c0-2.181-0.901-3.67-2.883-3.67-1.516 0-2.359 1.005-2.751 1.973-0.147 0.348-0.124 0.832-0.124 1.316v8.713h-5.708c0 0 0.074-14.759 0-16.1h5.708v2.527c0.337-1.105 2.161-2.682 5.072-2.682 3.611 0 6.449 2.316 6.449 7.303v8.952zM5.892 9.351h-0.037c-1.839 0-3.032-1.231-3.032-2.791 0-1.59 1.228-2.795 3.104-2.795 1.875 0 3.027 1.202 3.064 2.791 0 1.56-1.189 2.795-3.099 2.795v0 0zM3.481 11.365h5.081v16.1h-5.081v-16.1z"></path>
        </symbol>
        <symbol id="icon-Mail-Share" viewBox="0 0 32 32">
            <title>Mail-Share</title>
            <path fill="#1b5786" d="M2.824 27.106h26.353c0.52 0 0.941-0.421 0.941-0.941v-19.576c0-0.52-0.421-0.941-0.941-0.941h-26.353c-0.52 0-0.941 0.421-0.941 0.941v19.576c0 0.52 0.421 0.941 0.941 0.941zM27.859 9.035v14.871c0 0.52-0.421 0.941-0.941 0.941h-21.835c-0.52 0-0.941-0.421-0.941-0.941v-14.758l11.215 10.405c0.362 0.336 0.923 0.335 1.284-0.003l11.218-10.514zM16.645 16.334c-0.362 0.341-0.928 0.341-1.29 0l-8.955-8.428h19.2l-8.955 8.428z"></path>
        </symbol>
        <symbol id="icon-Twitter" viewBox="0 0 32 32">
            <title>Twitter</title>
            <path fill="#1da1f2" d="M30.295 7.902c-1.057 0.476-2.179 0.79-3.33 0.932 1.207-0.739 2.106-1.89 2.531-3.241-1.139 0.679-2.385 1.16-3.685 1.421-1.794-1.973-4.699-2.474-7.050-1.215s-3.544 3.956-2.895 6.542c-4.683-0.253-9.039-2.479-11.987-6.127-1.554 2.652-0.776 6.056 1.776 7.769-0.917-0.027-1.814-0.27-2.619-0.71v0.089c0.008 2.76 1.956 5.135 4.662 5.683-0.506 0.143-1.028 0.218-1.554 0.222l-1.11-0.089c0.763 2.38 2.961 4.007 5.461 4.040-2.066 1.615-4.614 2.49-7.236 2.486l-1.376-0.089c2.662 1.71 5.759 2.619 8.923 2.619 10.744 0 16.604-8.879 16.604-16.604 0-0.266 0-0.488 0-0.755 1.129-0.814 2.106-1.821 2.886-2.974z"></path>
        </symbol>
        <symbol id="icon-Youtube" viewBox="0 0 32 32">
            <title>Youtube</title>
            <path fill="#d0021b" d="M30.761 10.214c0 0-0.298-2.085-1.191-2.979s-2.449-1.225-3.012-1.291c-4.236-0.298-10.558-0.298-10.558-0.298s-6.321 0-10.558 0.298c-0.596 0.066-1.886 0.066-3.012 1.291s-1.191 2.979-1.191 2.979c-0.186 1.615-0.285 3.239-0.298 4.865v2.284c0.011 1.637 0.111 3.272 0.298 4.898 0 0 0.298 2.085 1.191 2.979s2.648 1.158 3.31 1.291c2.416 0.232 10.227 0.298 10.227 0.298s6.321 0 10.558-0.298c0.596-0.066 1.887-0.066 3.012-1.291s1.191-2.979 1.191-2.979c0.198-1.626 0.309-3.261 0.331-4.898v-2.284c-0.012-1.626-0.112-3.25-0.298-4.865zM12.889 20.143v-8.473l8.142 4.269-8.142 4.203z"></path>
        </symbol>
    </defs>
</svg>
